<svg xmlns="http://www.w3.org/2000/svg" viewBox="0 0 1600 500">
  <defs>
    <style>
      .cls-1 {
        fill: #f4272e;
      }

      .cls-2 {
        fill: #b00534;
      }

      .cls-3 {
        fill: #f4062e;
      }

      .cls-4 {
        fill: #be0534;
      }

      .cls-5 {
        fill: #38282b;
      }

      .cls-6 {
        fill: #840420;
      }

      .cls-7 {
        fill: #f9f9f9;
      }

      .cls-8 {
        fill: #3f2404;
      }
    </style>
  </defs>
  <title>krabbe</title>
  <g id="Layer_1" data-name="Layer 1">
    <g id="between-crab">
      <path class="cls-1" d="M264.48,272.76l63.66,10.06s17.53,4.69,17.61,19.42c0,0,1.59,22.39-1.68,38.53,0,0-3.58-22.82-8.46-29.08,0,0-5.78-17-22.37-16.2l-52.66-3.58Z"/>
      <path class="cls-1" d="M256.59,298.79l60,23.79s16.1,8.39,13,22.82c0,0-3.26,22.21-9.9,37.23,0,0,1.42-23.05-2-30.23,0,0-2-17.83-18.35-20.72l-50.63-15Z"/>
      <path class="cls-1" d="M218.58,317.54l59,26.15s15.75,9,12.11,23.31c0,0-4.12,22.07-11.38,36.81,0,0,2.32-23-.81-30.28,0,0-1.31-17.89-17.53-21.43l-50-17Z"/>
      <g>
        <path class="cls-2" d="M40.61,214.39l33.48,1.29s1.69,50.65,38.39,48.87l5.43,18.18S63.27,276.4,40.61,214.39Z"/>
        <path class="cls-3" d="M75.5,102.66c-2.76,8.83-10.46,14.61-10.84,24-1,24.27,10.37,47.71,13.12,72,1,8.56,1,17.53,4.68,25.28,0,0-38.22,35.8-66.12-31.94,0,0-10.81-42.56,27-80.71l.27-.19C56.32,103.09,77.69,95.64,75.5,102.66Z"/>
        <g>
          <path class="cls-4" d="M95.63,132.18c-1.89-5.77-.94,12-4.67,16.33s-8.56,7.41-12.61,11.4a45.54,45.54,0,0,0-13,30.93,70.17,70.17,0,0,0,2.16,17.79A116.87,116.87,0,0,0,74,228.17S122.6,214.62,95.63,132.18Z"/>
          <path class="cls-4" d="M96.35,132c-1.66-4.57-2.78,1.66-3,3.26-.42,3.77-.48,8.37-2.33,11.78-3,5.51-10,9-14.28,13.45-17.9,19-12.65,46.26-3.42,68.07a.74.74,0,0,0,.83.35c21.27-6,30.17-31.47,30.35-51.35.14-15.53-3.44-30.88-8.18-45.56-.29-.92-1.73-.53-1.43.4,8.49,26.31,15.47,62.69-5.94,85.05-3.44,3.59-8.59,8.19-13.6,9.43-.31.08-1,.59-1.38.51-.7-.18-3.47-10.43-3.86-11.7-3.66-12-5.84-24.89-2.06-37.15a43.54,43.54,0,0,1,9.7-17C82,157.1,88,154,91.55,148.92c1.7-2.41,2.2-5.39,2.63-8.27.25-1.65.41-3.3.61-5,.06-.55.1-1.09.18-1.63s.13-1.14.23-1.71.11-.61-.32,0C95.24,133.27,96.68,132.89,96.35,132Z"/>
        </g>
        <path class="cls-1" d="M124.86,272.8l-60,20.86s-16.2,7.58-13.86,21.7c0,0,2.16,21.72,8,36.59,0,0-.33-22.47,3.36-29.34,0,0,2.79-17.25,19-19.45l50.41-12.72Z"/>
        <path class="cls-1" d="M140.66,298.57,83.08,325.45s-15.35,9.2-11.59,23c0,0,4.34,21.39,11.65,35.58,0,0-2.57-22.32.41-29.51,0,0,1-17.46,16.92-21.31l48.86-17.79Z"/>
        <path class="cls-1" d="M191.29,311.35,121,347.48s-18.88,11.77-15.35,25.8c0,0,3.67,22,11.39,35.94,0,0-1.52-23.17,2.52-31.17,0,0,2.45-18.54,21.57-24.74L200.46,328Z"/>
        <path class="cls-4" d="M302.45,268.92a52.11,52.11,0,0,1,2.33,15.34c0,40.15-46.54,72.71-104,72.71s-104-32.56-104-72.71a52.1,52.1,0,0,1,2.32-15.34,34.94,34.94,0,0,1-2.32-12.51C96.86,227.47,133,204,177.55,204a121.18,121.18,0,0,1,23.27,2.22A121.18,121.18,0,0,1,224.09,204c44.55,0,80.69,23.47,80.69,52.41A35.17,35.17,0,0,1,302.45,268.92Z"/>
      </g>
      <path class="cls-5" d="M160.22,280c3.43,3.71,31.69,50,76.24-1,0,0,11.39-26.49-27.23-17.49,0,0-15.84,5-31.68-2,0,0-25.74-6-18.32,18.49A12,12,0,0,0,160.22,280Z"/>
      <path class="cls-6" d="M168.93,290c2.57,2.11,23.87,28.44,57.42-.57,0,0,8.58-15.06-20.51-10,0,0-11.94,2.84-23.88-1.14,0,0-19.43-3.41-13.81,10.52A6.38,6.38,0,0,0,168.93,290Z"/>
      <g>
        <polygon class="cls-4" points="152.66 186.01 168.14 235.99 184.98 233 163.19 183.01 152.66 186.01"/>
        <ellipse class="cls-3" cx="158.74" cy="159.51" rx="35.15" ry="35.49"/>
        <ellipse class="cls-7" cx="158.74" cy="159.51" rx="26.24" ry="26.49"/>
        <ellipse class="cls-8" cx="163.69" cy="159.51" rx="16.34" ry="16.5"/>
        <ellipse class="cls-7" cx="169.13" cy="154.01" rx="4.95" ry="5"/>
      </g>
      <g>
        <polygon class="cls-4" points="239.79 182.2 227.28 251.99 213.69 247.8 231.28 178.01 239.79 182.2"/>
        <ellipse class="cls-3" cx="237.95" cy="156.51" rx="35.15" ry="35.49"/>
        <ellipse class="cls-7" cx="237.95" cy="156.51" rx="26.24" ry="26.49"/>
        <ellipse class="cls-8" cx="242.9" cy="156.51" rx="16.34" ry="16.5"/>
        <ellipse class="cls-7" cx="247.35" cy="150.01" rx="2.97" ry="3"/>
      </g>
      <path class="cls-2" d="M365.53,208l-29.64,2.21s-3.68,50.15-36,49.42l-5.6,18.13S342.83,270,365.53,208Z"/>
      <path class="cls-3" d="M323.27,93.48c2.83,8.77,10.69,14.61,11.08,23.9,1,24-10.43,46.84-13.18,70.74-1,8.41-.93,17.25-4.71,24.82,0,0,39,36,67.21-30.21,0,0,10.89-41.75-27.62-80.09a1.48,1.48,0,0,0-.27-.19C342.78,94.27,321,86.52,323.27,93.48Z"/>
      <g>
        <path class="cls-4" d="M302.86,122.2c1.9-5.65,1,11.86,4.79,16.2s8.71,7.47,12.87,11.47a45.25,45.25,0,0,1,13.3,30.76,65.63,65.63,0,0,1-2.16,17.48,111.11,111.11,0,0,1-6.55,19.14S275.57,203,302.86,122.2Z"/>
        <path class="cls-4" d="M303.57,122.4c.06-.18-.17-.27-.19.72a16.19,16.19,0,0,0,.26,2.08c.16,1.33.3,2.66.48,4,.4,2.91.78,6.16,2.3,8.74,2.2,3.71,6.44,6.34,9.68,9.05a46.75,46.75,0,0,1,11.6,13.73c6.29,11.67,6.29,24.57,3.23,37.2-1.28,5.29-2.69,12.73-5.74,17.28-1.56,2.32,1,1-.72,1.06-1.39.09-3.87-1.73-5-2.38a42.36,42.36,0,0,1-7.81-5.7,49.9,49.9,0,0,1-14.36-25.34c-4.8-20-.07-41.34,6.29-60.43.31-.92-1.13-1.31-1.44-.4-10,30-16.09,74.61,16.57,93.16a29.86,29.86,0,0,0,6.2,2.81.75.75,0,0,0,.84-.34c9.41-21.51,14.26-47.74-3.12-66.63-4.38-4.76-11.16-8.08-14.73-13.52-2.14-3.25-2.27-8.09-2.72-11.84-.17-1.52-1.27-8.34-3-3.64C301.81,122.9,303.23,123.29,303.57,122.4Z"/>
      </g>
    </g>
  </g>
  <g id="Layer_2" data-name="Layer 2">
    <g id="between-crab-2" data-name="between-crab">
      <path class="cls-1" d="M664.48,272.76l63.66,10.06s17.53,4.69,17.61,19.42c0,0,1.59,22.39-1.68,38.53,0,0-3.58-22.82-8.46-29.08,0,0-5.78-17-22.37-16.2l-52.66-3.58Z"/>
      <path class="cls-1" d="M656.59,298.79l60,23.79s16.1,8.39,13,22.82c0,0-3.26,22.21-9.9,37.23,0,0,1.42-23.05-2-30.23,0,0-2-17.83-18.35-20.72l-50.63-15Z"/>
      <path class="cls-1" d="M618.58,317.54l59,26.15s15.75,9,12.11,23.31c0,0-4.12,22.07-11.38,36.81,0,0,2.32-23-.81-30.28,0,0-1.31-17.89-17.53-21.43l-50-17Z"/>
      <g>
        <path class="cls-2" d="M440.61,214.39l33.48,1.29s1.69,50.65,38.39,48.87l5.43,18.18S463.27,276.4,440.61,214.39Z"/>
        <path class="cls-3" d="M475.5,102.66c-2.76,8.83-10.46,14.61-10.84,24-1,24.27,10.37,47.71,13.12,72,1,8.56,1,17.53,4.68,25.28,0,0-38.22,35.8-66.12-31.94,0,0-10.81-42.56,27-80.71l.27-.19C456.32,103.09,477.69,95.64,475.5,102.66Z"/>
        <g>
          <path class="cls-4" d="M495.63,132.18c-1.89-5.77-.94,12-4.67,16.33s-8.56,7.41-12.61,11.4a45.54,45.54,0,0,0-13,30.93,70.17,70.17,0,0,0,2.16,17.79A116.87,116.87,0,0,0,474,228.17S522.6,214.62,495.63,132.18Z"/>
          <path class="cls-4" d="M496.35,132c-1.66-4.57-2.78,1.66-3,3.26-.42,3.77-.48,8.37-2.33,11.78-3,5.51-10,9-14.28,13.45-17.9,19-12.65,46.26-3.42,68.07a.74.74,0,0,0,.83.35c21.27-6,30.17-31.47,30.35-51.35.14-15.53-3.44-30.88-8.18-45.56-.29-.92-1.73-.53-1.43.4,8.49,26.31,15.47,62.69-5.94,85.05-3.44,3.59-8.59,8.19-13.6,9.43-.31.08-1.05.59-1.38.51-.7-.18-3.47-10.43-3.86-11.7-3.66-12-5.84-24.89-2.06-37.15a43.54,43.54,0,0,1,9.7-17C482,157.1,488,154,491.55,148.92c1.7-2.41,2.2-5.39,2.63-8.27.25-1.65.41-3.3.61-5,.06-.55.1-1.09.18-1.63s.13-1.14.23-1.71.11-.61-.32,0C495.24,133.27,496.68,132.89,496.35,132Z"/>
        </g>
        <path class="cls-1" d="M524.86,272.8l-60,20.86s-16.2,7.58-13.86,21.7c0,0,2.16,21.72,8,36.59,0,0-.33-22.47,3.36-29.34,0,0,2.79-17.25,19-19.45l50.41-12.72Z"/>
        <path class="cls-1" d="M540.66,298.57l-57.58,26.88s-15.35,9.2-11.59,23c0,0,4.34,21.39,11.65,35.58,0,0-2.57-22.32.41-29.51,0,0,1.05-17.46,16.92-21.31l48.86-17.79Z"/>
        <path class="cls-1" d="M591.29,311.35,521,347.48s-18.88,11.77-15.35,25.8c0,0,3.67,22,11.39,35.94,0,0-1.52-23.17,2.52-31.17,0,0,2.45-18.54,21.57-24.74L600.46,328Z"/>
        <path class="cls-4" d="M702.45,268.92a52.11,52.11,0,0,1,2.33,15.34c0,40.15-46.54,72.71-104,72.71s-104-32.56-104-72.71a52.1,52.1,0,0,1,2.32-15.34,34.94,34.94,0,0,1-2.32-12.51c0-28.94,36.13-52.41,80.69-52.41a121.18,121.18,0,0,1,23.27,2.22A121.18,121.18,0,0,1,624.09,204c44.55,0,80.69,23.47,80.69,52.41A35.17,35.17,0,0,1,702.45,268.92Z"/>
      </g>
      <path class="cls-5" d="M560.22,280c3.43,3.71,31.69,50,76.24-1,0,0,11.39-26.49-27.23-17.49,0,0-15.84,5-31.68-2,0,0-25.74-6-18.32,18.49A12,12,0,0,0,560.22,280Z"/>
      <path class="cls-6" d="M568.93,290c2.57,2.11,23.87,28.44,57.42-.57,0,0,8.58-15.06-20.51-10,0,0-11.94,2.84-23.88-1.14,0,0-19.43-3.41-13.81,10.52A6.38,6.38,0,0,0,568.93,290Z"/>
      <g>
        <polygon class="cls-4" points="552.66 186.01 568.14 235.99 584.98 233 563.19 183.01 552.66 186.01"/>
        <ellipse class="cls-3" cx="558.74" cy="159.51" rx="35.15" ry="35.49"/>
        <ellipse class="cls-7" cx="558.74" cy="159.51" rx="26.24" ry="26.49"/>
        <ellipse class="cls-8" cx="563.69" cy="159.51" rx="16.34" ry="16.5"/>
        <ellipse class="cls-7" cx="569.13" cy="154.01" rx="4.95" ry="5"/>
      </g>
      <g>
        <polygon class="cls-4" points="658.59 150.7 646.09 220.5 632.49 216.31 650.09 146.51 658.59 150.7"/>
        <ellipse class="cls-3" cx="656.75" cy="125.02" rx="35.15" ry="35.49"/>
        <ellipse class="cls-7" cx="656.75" cy="125.02" rx="26.24" ry="26.49"/>
        <ellipse class="cls-8" cx="661.7" cy="125.02" rx="16.34" ry="16.5"/>
        <ellipse class="cls-7" cx="666.15" cy="118.52" rx="2.97" ry="3"/>
      </g>
      <path class="cls-2" d="M765.53,208l-29.64,2.21s-3.68,50.15-36,49.42l-5.6,18.13S742.83,270,765.53,208Z"/>
      <path class="cls-3" d="M723.27,93.48c2.83,8.77,10.69,14.61,11.08,23.9,1,24-10.43,46.84-13.18,70.74-1,8.41-.93,17.25-4.71,24.82,0,0,39,36,67.21-30.21,0,0,10.89-41.75-27.62-80.09a1.48,1.48,0,0,0-.27-.19C742.78,94.27,721,86.52,723.27,93.48Z"/>
      <g>
        <path class="cls-4" d="M702.86,122.2c1.9-5.65,1,11.86,4.79,16.2s8.71,7.47,12.87,11.47a45.25,45.25,0,0,1,13.3,30.76,65.63,65.63,0,0,1-2.16,17.48,111.11,111.11,0,0,1-6.55,19.14S675.57,203,702.86,122.2Z"/>
        <path class="cls-4" d="M703.57,122.4c.06-.18-.17-.27-.19.72a16.19,16.19,0,0,0,.26,2.08c.16,1.33.3,2.66.48,4,.4,2.91.78,6.16,2.3,8.74,2.2,3.71,6.44,6.34,9.68,9.05a46.75,46.75,0,0,1,11.6,13.73c6.29,11.67,6.29,24.57,3.23,37.2-1.28,5.29-2.69,12.73-5.74,17.28-1.56,2.32,1,1-.72,1.06-1.39.09-3.87-1.73-5-2.38a42.36,42.36,0,0,1-7.81-5.7,49.9,49.9,0,0,1-14.36-25.34c-4.8-20-.07-41.34,6.29-60.43.31-.92-1.13-1.31-1.44-.4-10,30-16.09,74.61,16.57,93.16a29.86,29.86,0,0,0,6.2,2.81.75.75,0,0,0,.84-.34c9.41-21.51,14.26-47.74-3.12-66.63-4.38-4.76-11.16-8.08-14.73-13.52-2.14-3.25-2.27-8.09-2.72-11.84-.17-1.52-1.27-8.34-3-3.64C701.81,122.9,703.23,123.29,703.57,122.4Z"/>
      </g>
    </g>
  </g>
  <g id="Layer_3" data-name="Layer 3">
    <g id="between-crab-3" data-name="between-crab">
      <path class="cls-1" d="M1064.48,272.76l63.66,10.06s17.53,4.69,17.61,19.42c0,0,1.59,22.39-1.68,38.53,0,0-3.58-22.82-8.46-29.08,0,0-5.78-17-22.37-16.2l-52.66-3.58Z"/>
      <path class="cls-1" d="M1056.59,298.79l60,23.79s16.1,8.39,13,22.82c0,0-3.26,22.21-9.9,37.23,0,0,1.42-23.05-2-30.23,0,0-2-17.83-18.35-20.72l-50.63-15Z"/>
      <path class="cls-1" d="M1018.58,317.54l59,26.15s15.75,9,12.11,23.31c0,0-4.12,22.07-11.38,36.81,0,0,2.32-23-.81-30.28,0,0-1.31-17.89-17.53-21.43l-50-17Z"/>
      <g>
        <path class="cls-2" d="M840.61,214.39l33.48,1.29s1.69,50.65,38.39,48.87l5.43,18.18S863.27,276.4,840.61,214.39Z"/>
        <path class="cls-3" d="M875.5,102.66c-2.76,8.83-10.46,14.61-10.84,24-1,24.27,10.37,47.71,13.12,72,1,8.56,1,17.53,4.68,25.28,0,0-38.22,35.8-66.12-31.94,0,0-10.81-42.56,27-80.71l.27-.19C856.32,103.09,877.69,95.64,875.5,102.66Z"/>
        <g>
          <path class="cls-4" d="M895.63,132.18c-1.89-5.77-.94,12-4.67,16.33s-8.56,7.41-12.61,11.4a45.54,45.54,0,0,0-13,30.93,70.17,70.17,0,0,0,2.16,17.79A116.87,116.87,0,0,0,874,228.17S922.6,214.62,895.63,132.18Z"/>
          <path class="cls-4" d="M896.35,132c-1.66-4.57-2.78,1.66-3,3.26-.42,3.77-.48,8.37-2.33,11.78-3,5.51-10,9-14.28,13.45-17.9,19-12.65,46.26-3.42,68.07a.74.74,0,0,0,.83.35c21.27-6,30.17-31.47,30.35-51.35.14-15.53-3.44-30.88-8.18-45.56-.29-.92-1.73-.53-1.43.4,8.49,26.31,15.47,62.69-5.94,85.05-3.44,3.59-8.59,8.19-13.6,9.43-.31.08-1,.59-1.38.51-.7-.18-3.47-10.43-3.86-11.7-3.66-12-5.84-24.89-2.06-37.15a43.54,43.54,0,0,1,9.7-17C882,157.1,888,154,891.55,148.92c1.7-2.41,2.2-5.39,2.63-8.27.25-1.65.41-3.3.61-5,.06-.55.1-1.09.18-1.63s.13-1.14.23-1.71.11-.61-.32,0C895.24,133.27,896.68,132.89,896.35,132Z"/>
        </g>
        <path class="cls-1" d="M924.86,272.8l-60,20.86s-16.2,7.58-13.86,21.7c0,0,2.16,21.72,8,36.59,0,0-.33-22.47,3.36-29.34,0,0,2.79-17.25,19-19.45l50.41-12.72Z"/>
        <path class="cls-1" d="M940.66,298.57l-57.58,26.88s-15.35,9.2-11.59,23c0,0,4.34,21.39,11.65,35.58,0,0-2.57-22.32.41-29.51,0,0,1.05-17.46,16.92-21.31l48.86-17.79Z"/>
        <path class="cls-1" d="M991.29,311.35,921,347.48s-18.88,11.77-15.35,25.8c0,0,3.67,22,11.39,35.94,0,0-1.52-23.17,2.52-31.17,0,0,2.45-18.54,21.57-24.74L1000.46,328Z"/>
        <path class="cls-4" d="M1102.45,268.92a52.11,52.11,0,0,1,2.33,15.34c0,40.15-46.54,72.71-104,72.71s-104-32.56-104-72.71a52.1,52.1,0,0,1,2.32-15.34,34.94,34.94,0,0,1-2.32-12.51c0-28.94,36.13-52.41,80.69-52.41a121.18,121.18,0,0,1,23.27,2.22,121.18,121.18,0,0,1,23.27-2.22c44.55,0,80.69,23.47,80.69,52.41A35.17,35.17,0,0,1,1102.45,268.92Z"/>
      </g>
      <path class="cls-5" d="M960.22,280c3.43,3.71,31.69,50,76.24-1,0,0,11.39-26.49-27.23-17.49,0,0-15.84,5-31.68-2,0,0-25.74-6-18.32,18.49A12,12,0,0,0,960.22,280Z"/>
      <path class="cls-6" d="M968.93,290c2.57,2.11,23.87,28.44,57.42-.57,0,0,8.58-15.06-20.51-10,0,0-11.94,2.84-23.88-1.14,0,0-19.43-3.41-13.81,10.52A6.38,6.38,0,0,0,968.93,290Z"/>
      <g>
        <polygon class="cls-4" points="952.66 186.01 968.14 235.99 984.98 233 963.19 183.01 952.66 186.01"/>
        <ellipse class="cls-3" cx="958.74" cy="159.51" rx="35.15" ry="35.49"/>
        <ellipse class="cls-7" cx="958.74" cy="159.51" rx="26.24" ry="26.49"/>
        <ellipse class="cls-8" cx="963.69" cy="159.51" rx="16.34" ry="16.5"/>
        <ellipse class="cls-7" cx="969.13" cy="154.01" rx="4.95" ry="5"/>
      </g>
      <g>
        <polygon class="cls-4" points="1039.79 182.2 1027.28 251.99 1013.69 247.8 1031.28 178.01 1039.79 182.2"/>
        <ellipse class="cls-3" cx="1037.95" cy="156.51" rx="35.15" ry="35.49"/>
        <ellipse class="cls-7" cx="1037.95" cy="156.51" rx="26.24" ry="26.49"/>
        <ellipse class="cls-8" cx="1042.9" cy="156.51" rx="16.34" ry="16.5"/>
        <ellipse class="cls-7" cx="1047.35" cy="150.01" rx="2.97" ry="3"/>
      </g>
      <path class="cls-2" d="M1165.53,208l-29.64,2.21s-3.68,50.15-36,49.42l-5.6,18.13S1142.83,270,1165.53,208Z"/>
      <path class="cls-3" d="M1123.27,93.48c2.83,8.77,10.69,14.61,11.08,23.9,1,24-10.43,46.84-13.18,70.74-1,8.41-.93,17.25-4.71,24.82,0,0,39,36,67.21-30.21,0,0,10.89-41.75-27.62-80.09a1.48,1.48,0,0,0-.27-.19C1142.78,94.27,1121,86.52,1123.27,93.48Z"/>
      <g>
        <path class="cls-4" d="M1102.86,122.2c1.9-5.65,1,11.86,4.79,16.2s8.71,7.47,12.87,11.47a45.25,45.25,0,0,1,13.3,30.76,65.63,65.63,0,0,1-2.16,17.48,111.11,111.11,0,0,1-6.55,19.14S1075.57,203,1102.86,122.2Z"/>
        <path class="cls-4" d="M1103.57,122.4c.06-.18-.17-.27-.19.72a16.19,16.19,0,0,0,.26,2.08c.16,1.33.3,2.66.48,4,.4,2.91.78,6.16,2.3,8.74,2.2,3.71,6.44,6.34,9.68,9.05a46.75,46.75,0,0,1,11.6,13.73c6.29,11.67,6.29,24.57,3.23,37.2-1.28,5.29-2.69,12.73-5.74,17.28-1.56,2.32,1,1-.72,1.06-1.39.09-3.87-1.73-5-2.38a42.36,42.36,0,0,1-7.81-5.7,49.9,49.9,0,0,1-14.36-25.34c-4.8-20-.07-41.34,6.29-60.43.31-.92-1.13-1.31-1.44-.4-10,30-16.09,74.61,16.57,93.16a29.86,29.86,0,0,0,6.2,2.81.75.75,0,0,0,.84-.34c9.41-21.51,14.26-47.74-3.12-66.63-4.38-4.76-11.16-8.08-14.73-13.52-2.14-3.25-2.27-8.09-2.72-11.84-.17-1.52-1.27-8.34-3-3.64C1101.81,122.9,1103.23,123.29,1103.57,122.4Z"/>
      </g>
    </g>
  </g>
  <g id="Layer_4" data-name="Layer 4">
    <g id="between-crab-4" data-name="between-crab">
      <path class="cls-1" d="M1464.48,272.76l63.66,10.06s17.53,4.69,17.61,19.42c0,0,1.59,22.39-1.68,38.53,0,0-3.58-22.82-8.46-29.08,0,0-5.78-17-22.37-16.2l-52.66-3.58Z"/>
      <path class="cls-1" d="M1456.59,298.79l60,23.79s16.1,8.39,13,22.82c0,0-3.26,22.21-9.9,37.23,0,0,1.42-23.05-2-30.23,0,0-2-17.83-18.35-20.72l-50.63-15Z"/>
      <path class="cls-1" d="M1418.58,317.54l59,26.15s15.75,9,12.11,23.31c0,0-4.12,22.07-11.38,36.81,0,0,2.32-23-.81-30.28,0,0-1.31-17.89-17.53-21.43l-50-17Z"/>
      <g>
        <path class="cls-2" d="M1240.61,214.39l33.48,1.29s1.69,50.65,38.39,48.87l5.43,18.18S1263.27,276.4,1240.61,214.39Z"/>
        <path class="cls-3" d="M1275.5,102.66c-2.76,8.83-10.46,14.61-10.84,24-1,24.27,10.37,47.71,13.12,72,1,8.56,1,17.53,4.68,25.28,0,0-38.22,35.8-66.12-31.94,0,0-10.81-42.56,27-80.71l.27-.19C1256.32,103.09,1277.69,95.64,1275.5,102.66Z"/>
        <g>
          <path class="cls-4" d="M1295.63,132.18c-1.89-5.77-.94,12-4.67,16.33s-8.56,7.41-12.61,11.4a45.54,45.54,0,0,0-13,30.93,70.17,70.17,0,0,0,2.16,17.79,116.87,116.87,0,0,0,6.48,19.54S1322.6,214.62,1295.63,132.18Z"/>
          <path class="cls-4" d="M1296.35,132c-1.66-4.57-2.78,1.66-3,3.26-.42,3.77-.48,8.37-2.33,11.78-3,5.51-10,9-14.28,13.45-17.9,19-12.65,46.26-3.42,68.07a.74.74,0,0,0,.83.35c21.27-6,30.17-31.47,30.35-51.35.14-15.53-3.44-30.88-8.18-45.56-.29-.92-1.73-.53-1.43.4,8.49,26.31,15.47,62.69-5.94,85.05-3.44,3.59-8.59,8.19-13.6,9.43-.31.08-1.05.59-1.38.51-.7-.18-3.47-10.43-3.86-11.7-3.66-12-5.84-24.89-2.06-37.15a43.54,43.54,0,0,1,9.7-17c4.19-4.46,10.25-7.61,13.77-12.64,1.7-2.41,2.2-5.39,2.63-8.27.25-1.65.41-3.3.61-5,.06-.55.1-1.09.18-1.63s.13-1.14.23-1.71.11-.61-.32,0C1295.24,133.27,1296.68,132.89,1296.35,132Z"/>
        </g>
        <path class="cls-1" d="M1324.86,272.8l-60,20.86s-16.2,7.58-13.86,21.7c0,0,2.16,21.72,8,36.59,0,0-.33-22.47,3.36-29.34,0,0,2.79-17.25,19-19.45l50.41-12.72Z"/>
        <path class="cls-1" d="M1340.66,298.57l-57.58,26.88s-15.35,9.2-11.59,23c0,0,4.34,21.39,11.65,35.58,0,0-2.57-22.32.41-29.51,0,0,1-17.46,16.92-21.31l48.86-17.79Z"/>
        <path class="cls-1" d="M1391.29,311.35,1321,347.48s-18.88,11.77-15.35,25.8c0,0,3.67,22,11.39,35.94,0,0-1.52-23.17,2.52-31.17,0,0,2.45-18.54,21.57-24.74L1400.46,328Z"/>
        <path class="cls-4" d="M1502.45,268.92a52.11,52.11,0,0,1,2.33,15.34c0,40.15-46.54,72.71-104,72.71s-104-32.56-104-72.71a52.1,52.1,0,0,1,2.32-15.34,34.94,34.94,0,0,1-2.32-12.51c0-28.94,36.13-52.41,80.69-52.41a121.18,121.18,0,0,1,23.27,2.22,121.18,121.18,0,0,1,23.27-2.22c44.55,0,80.69,23.47,80.69,52.41A35.17,35.17,0,0,1,1502.45,268.92Z"/>
      </g>
      <path class="cls-5" d="M1360.22,280c3.43,3.71,31.69,50,76.24-1,0,0,11.39-26.49-27.23-17.49,0,0-15.84,5-31.68-2,0,0-25.74-6-18.32,18.49A12,12,0,0,0,1360.22,280Z"/>
      <path class="cls-6" d="M1368.93,290c2.57,2.11,23.87,28.44,57.42-.57,0,0,8.58-15.06-20.51-10,0,0-11.94,2.84-23.88-1.14,0,0-19.43-3.41-13.81,10.52A6.38,6.38,0,0,0,1368.93,290Z"/>
      <g>
        <polygon class="cls-4" points="1341.27 159.01 1356.76 209 1373.59 206 1351.81 156.01 1341.27 159.01"/>
        <ellipse class="cls-3" cx="1347.35" cy="132.52" rx="35.15" ry="35.49"/>
        <ellipse class="cls-7" cx="1347.35" cy="132.52" rx="26.24" ry="26.49"/>
        <ellipse class="cls-8" cx="1352.3" cy="132.52" rx="16.34" ry="16.5"/>
        <ellipse class="cls-7" cx="1357.75" cy="127.02" rx="4.95" ry="5"/>
      </g>
      <g>
        <polygon class="cls-4" points="1439.79 182.2 1427.28 251.99 1413.69 247.8 1431.28 178.01 1439.79 182.2"/>
        <ellipse class="cls-3" cx="1437.95" cy="156.51" rx="35.15" ry="35.49"/>
        <ellipse class="cls-7" cx="1437.95" cy="156.51" rx="26.24" ry="26.49"/>
        <ellipse class="cls-8" cx="1442.9" cy="156.51" rx="16.34" ry="16.5"/>
        <ellipse class="cls-7" cx="1447.35" cy="150.01" rx="2.97" ry="3"/>
      </g>
      <path class="cls-2" d="M1565.53,208l-29.64,2.21s-3.68,50.15-36,49.42l-5.6,18.13S1542.83,270,1565.53,208Z"/>
      <path class="cls-3" d="M1523.27,93.48c2.83,8.77,10.69,14.61,11.08,23.9,1,24-10.43,46.84-13.18,70.74-1,8.41-.93,17.25-4.71,24.82,0,0,39,36,67.21-30.21,0,0,10.89-41.75-27.62-80.09a1.48,1.48,0,0,0-.27-.19C1542.78,94.27,1521,86.52,1523.27,93.48Z"/>
      <g>
        <path class="cls-4" d="M1502.86,122.2c1.9-5.65,1,11.86,4.79,16.2s8.71,7.47,12.87,11.47a45.25,45.25,0,0,1,13.3,30.76,65.63,65.63,0,0,1-2.16,17.48,111.11,111.11,0,0,1-6.55,19.14S1475.57,203,1502.86,122.2Z"/>
        <path class="cls-4" d="M1503.57,122.4c.06-.18-.17-.27-.19.72a16.19,16.19,0,0,0,.26,2.08c.16,1.33.3,2.66.48,4,.4,2.91.78,6.16,2.3,8.74,2.2,3.71,6.44,6.34,9.68,9.05a46.75,46.75,0,0,1,11.6,13.73c6.29,11.67,6.29,24.57,3.23,37.2-1.28,5.29-2.69,12.73-5.74,17.28-1.56,2.32,1,1-.72,1.06-1.39.09-3.87-1.73-5-2.38a42.36,42.36,0,0,1-7.81-5.7,49.9,49.9,0,0,1-14.36-25.34c-4.8-20-.07-41.34,6.29-60.43.31-.92-1.13-1.31-1.44-.4-10,30-16.09,74.61,16.57,93.16a29.86,29.86,0,0,0,6.2,2.81.75.75,0,0,0,.84-.34c9.41-21.51,14.26-47.74-3.12-66.63-4.38-4.76-11.16-8.08-14.73-13.52-2.14-3.25-2.27-8.09-2.72-11.84-.17-1.52-1.27-8.34-3-3.64C1501.81,122.9,1503.23,123.29,1503.57,122.4Z"/>
      </g>
    </g>
  </g>
</svg>
