<svg xmlns="http://www.w3.org/2000/svg" width="254" height="305" viewBox="0 0 254 305">
  <defs>
    <style>
      .cls-1 {
        fill: #87807a;
      }

      .cls-2 {
        fill: #9b9795;
      }

      .cls-3 {
        fill: #bcbbbb;
      }

      .cls-4 {
        fill: #c99561;
      }

      .cls-5 {
        fill: #a57850;
      }

      .cls-14, .cls-26, .cls-36, .cls-37, .cls-38, .cls-39, .cls-6, .cls-7 {
        fill: none;
      }

      .cls-6 {
        stroke: #b58457;
      }

      .cls-14, .cls-36, .cls-37, .cls-38, .cls-39, .cls-6, .cls-7, .cls-8, .cls-9 {
        stroke-miterlimit: 10;
      }

      .cls-7 {
        stroke: #896245;
      }

      .cls-8 {
        fill: #161616;
      }

      .cls-37, .cls-38, .cls-8, .cls-9 {
        stroke: #000;
      }

      .cls-9 {
        fill: #262626;
      }

      .cls-10 {
        fill: #171a1b;
      }

      .cls-11 {
        fill: #212020;
      }

      .cls-12 {
        fill: #272828;
      }

      .cls-13 {
        fill: #444;
      }

      .cls-14 {
        stroke: #f4eed7;
        stroke-linecap: round;
        stroke-width: 4px;
      }

      .cls-15 {
        fill: #f7d854;
      }

      .cls-16 {
        fill: #f4eed7;
      }

      .cls-17 {
        fill: #f9a24b;
      }

      .cls-18 {
        fill: #ef6a30;
      }

      .cls-19 {
        fill: #96604b;
      }

      .cls-20 {
        fill: #020202;
      }

      .cls-21 {
        fill: #854623;
      }

      .cls-22 {
        fill: #050505;
      }

      .cls-23 {
        fill: #74371a;
      }

      .cls-24 {
        fill: #622e14;
      }

      .cls-25 {
        fill: #d49727;
      }

      .cls-27 {
        fill: #1b1b15;
      }

      .cls-28 {
        fill: #803a1a;
      }

      .cls-29 {
        fill: #b5811c;
      }

      .cls-30 {
        fill: #23231d;
      }

      .cls-31 {
        fill: #f9f9f8;
      }

      .cls-32 {
        fill: #484138;
      }

      .cls-33 {
        fill: #292927;
      }

      .cls-34 {
        fill: #070700;
      }

      .cls-35 {
        fill: #33332d;
      }

      .cls-36 {
        stroke: #33332d;
        stroke-width: 1.27px;
      }

      .cls-38 {
        stroke-dasharray: 2.92 2.92;
      }

      .cls-39 {
        stroke: #ffd845;
        isolation: isolate;
      }

      .cls-40 {
        fill: #ffd5b6;
      }

      .cls-41 {
        fill: #809ece;
      }

      .cls-42 {
        fill: #efbd9c;
      }

      .cls-43 {
        fill: #6282af;
      }
    </style>
  </defs>
  <title>explainer_spilsiden</title>
  <g id="Lag_2" data-name="Lag 2">
    <g id="Lag_1-2" data-name="Lag 1">
      <g>
        <g id="cannon_gathered">
          <g>
            <rect class="cls-1" x="42.68" y="191.2" width="49.82" height="25.27" rx="3.89" transform="translate(-1.84 0.62) rotate(-0.52)"/>
            <rect class="cls-2" x="42.68" y="199.34" width="49.82" height="8.99" transform="translate(-1.84 0.62) rotate(-0.52)"/>
            <rect class="cls-3" x="42.68" y="200.43" width="49.82" height="6.8" transform="translate(-1.84 0.62) rotate(-0.52)"/>
            <rect class="cls-4" x="47.38" y="176.86" width="40.34" height="47.39" transform="translate(-1.81 0.62) rotate(-0.52)"/>
            <rect class="cls-5" x="57.83" y="176.86" width="19.44" height="47.39" transform="translate(-1.81 0.62) rotate(-0.52)"/>
            <line class="cls-6" x1="52.4" y1="176.99" x2="52.95" y2="224.38"/>
            <line class="cls-6" x1="82.96" y1="224.11" x2="82.53" y2="176.84"/>
            <line class="cls-6" x1="47.56" y1="219.69" x2="52.9" y2="219.64"/>
            <line class="cls-6" x1="82.97" y1="211.84" x2="87.83" y2="211.79"/>
            <line class="cls-6" x1="77.21" y1="193.17" x2="82.55" y2="193.13"/>
            <line class="cls-6" x1="82.67" y1="178.79" x2="87.53" y2="178.74"/>
            <line class="cls-6" x1="47.28" y1="189.31" x2="52.63" y2="189.27"/>
            <line class="cls-6" x1="52.74" y1="201.66" x2="57.84" y2="201.61"/>
            <line class="cls-7" x1="64.73" y1="224.52" x2="64.31" y2="177.13"/>
            <line class="cls-7" x1="71.29" y1="224.15" x2="70.86" y2="176.77"/>
            <line class="cls-7" x1="71.03" y1="208.78" x2="77.23" y2="208.73"/>
            <line class="cls-7" x1="57.81" y1="198.45" x2="64.5" y2="198.39"/>
            <line class="cls-7" x1="64.42" y1="190.13" x2="70.98" y2="190.07"/>
            <line class="cls-7" x1="64.82" y1="220.75" x2="71.26" y2="220.69"/>
          </g>
          <g id="cannonball">
            <circle class="cls-8" cx="68.02" cy="199.94" r="9.47"/>
            <circle class="cls-9" cx="71.72" cy="197.41" r="3.54"/>
          </g>
          <g id="cannon">
            <path class="cls-10" d="M53.66,187.65A16.28,16.28,0,0,0,81.1,205.18l1-1.89,22.49-44.77.6-1.09,4.38-4.11c2-3.17-1-8.72-6.78-12.41s-12.08-4.1-14.11-.94L87,145.58l-.81,1.1L54.93,185.92Z"/>
            <path class="cls-11" d="M105.24,157.45c2.82-4.3-15.48-16.28-18.3-12l-.78,1.23c3-4.66,21.41,7.11,18.43,11.77Z"/>
            <ellipse class="cls-12" cx="62.49" cy="203.96" rx="7.29" ry="8.56" transform="translate(-143.03 146.83) rotate(-57.43)"/>
            <ellipse class="cls-13" cx="61.82" cy="205" rx="2.67" ry="3.14" transform="translate(-144.22 146.75) rotate(-57.43)"/>
            <g id="light">
              <path class="cls-14" d="M61.23,195.66c.66,1.3,1.3,2.94.73,3.78s-1.51.32-1.9,1c-.28.52-.23,1.63,1.41,4.29"/>
              <g>
                <path class="cls-15" d="M59.17,193a3.35,3.35,0,0,0,.33,3.09,2.79,2.79,0,0,0,1,.79,2.24,2.24,0,0,0,3.21-.63,1.27,1.27,0,0,0,.18-.27c.21-.44.93-3.7.93-3.7s-.13.15-.29.29c.27-1.45.49-2.76.49-2.76a5.23,5.23,0,0,1-1.18.92c.31-1,.68-1.78,1-1.89.08-.32-2.66,1.3-4.4,2.89a1,1,0,0,1,.12-.78C60.26,191,59.49,192,59.17,193Z"/>
                <polygon class="cls-16" points="63.98 196.06 63.98 196.06 63.98 196.06 63.98 196.06"/>
                <polygon class="cls-16" points="59.89 193.45 59.89 193.45 59.89 193.44 59.89 193.45"/>
                <path class="cls-17" d="M59.56,193.93a2.28,2.28,0,0,0,.22,2.09,1.92,1.92,0,0,0,.68.54,1.51,1.51,0,0,0,2.17-.43,1.27,1.27,0,0,0,.13-.19c.14-.29.63-2.5.63-2.5a1.26,1.26,0,0,1-.2.19c.18-1,.33-1.87.33-1.87a3.54,3.54,0,0,1-.79.63c.21-.68.46-1.22.68-1.29.06-.22-1.8.89-3,2a.64.64,0,0,1,.08-.52C60.3,192.55,59.78,193.28,59.56,193.93Z"/>
                <path class="cls-18" d="M60.2,194.65a1.31,1.31,0,0,0,.12,1.19,1,1,0,0,0,.38.3.87.87,0,0,0,1.23-.25.41.41,0,0,0,.07-.11c.08-.17.36-1.42.36-1.42l-.11.11c.11-.56.19-1.06.19-1.06a1.79,1.79,0,0,1-.45.35c.12-.38.27-.69.39-.73a5.53,5.53,0,0,0-1.69,1.12.35.35,0,0,1,.05-.29C60.62,193.86,60.32,194.28,60.2,194.65Z"/>
              </g>
            </g>
          </g>
        </g>
        <g>
          <g>
            <path class="cls-19" d="M145.74,38.35V36.2h1.91v2.19l.14.28"/>
            <path class="cls-20" d="M131.4,53.76l-17-.39s-4.84,9.53,1.49,14.23l17.2,3S123.73,65.45,131.4,53.76Z"/>
            <path class="cls-19" d="M121.54,38.92c-.25.28-.56-.25-.78.11-.21.17-.38.1-.56-.07a25.47,25.47,0,0,0-.21-3.15h1.66"/>
            <path class="cls-19" d="M179.26,50.26c0,.25,0,.39,0,.67-.38.21-4.59,3.36-5,3.57-.24-.18-.1-.64-.38-.78C173.82,53.68,178.59,50.65,179.26,50.26Z"/>
            <g>
              <path class="cls-19" d="M165.59,60.22c-1,.71-2.08,1.45-3.11,2.15h0a.8.8,0,0,0,.07-.88,2,2,0,0,1-.25.14v0a4,4,0,0,0,.68-.36c1-.63,2.36-1.73,3-2.12C166.4,59.51,165.94,60,165.59,60.22Z"/>
              <path class="cls-19" d="M162.52,62.37c-.25-.24-.11-.53-.18-.74.11-.07.21-.1.25-.14A.89.89,0,0,1,162.52,62.37Z"/>
            </g>
            <path class="cls-19" d="M162.52,62.37a3.87,3.87,0,0,1-1.66,1.1c-.25-.85.91-1.56,1.48-1.84C162.38,61.84,162.27,62.13,162.52,62.37Z"/>
            <path class="cls-19" d="M150.65,73.39c2.08.32,6.74,1,7.27,1.06a0,0,0,0,1,0,0h0c0,.11-.11.39-.14.46l0,0c-.28-.07-2.29-.49-2.75-.53-.07,0-6.5-1-6.78-1.06-.46-.1-.68,0-.64.53,0,1.56,0,3.78,0,5.37,0,0,0,0,0,0-.6,0-1.2-.25-1.8-.25,0,0,0,0,0,0V73.61c0-.25.11-.57-.35-.64-1.17-.14-3.74-.63-3.89-.63h0c-1.13-.15-3.56-.53-3.67-.53-.32,0-2.29-.25-2.22-.64,0,0,0,0,0,0,1.91.29,3.82.53,5.72.82,2.86.42,5.76.84,8.62,1.3A2.65,2.65,0,0,0,150.65,73.39Z"/>
            <path class="cls-19" d="M170.25,69.19c0,.81,0,1.66,0,2.51-.25.25-.5.46-.78.42V69.47C169.69,69.12,170,69.19,170.25,69.19Z"/>
            <path class="cls-19" d="M115.71,67.71c-.14,0-.14-.25,0-.25,1.49.25.75.25,2.23.5s10.91,1.73,11.94,1.9c.07,0,3.25.67,3.32.67s.14.07.14.15-3.25-.39-3.32-.39c-1.06-.14-7.31-1.2-7.38-1.2-.53-.15-.64.07-.64.56,0,1.1.07,2.44.07,3.53a2.09,2.09,0,0,1-1.31,0c0-1.09,0-2.72,0-3.81,0-.43-.11-.64-.56-.67A44.6,44.6,0,0,1,115.71,67.71Z"/>
            <path class="cls-19" d="M120.76,77.88c0-1.52,0-3,0-4.56.42-.45.78.11,1.2,0v4.52Z"/>
            <path class="cls-21" d="M180.6,68.59V70a.08.08,0,0,0,0,.11v6.71h0a4.23,4.23,0,0,1-1.45,1.27,34.19,34.19,0,0,1-3.63,1.69,41.44,41.44,0,0,1-7.74,2.12,83.84,83.84,0,0,1-8.34,1.1c-2.72.25-5.44.42-8.16.46-3.74.07-7.48.1-11.23-.07-1.31-.07-2.65-.14-4-.18-.78,0-1.59,0-2.37-.14-1.66-.18-3.36-.32-5-.5-1.3-.14-2.65-.31-4-.46-1.49-.17-3-.49-4.49-.6a.21.21,0,0,0-.25-.1l-1.2-.14a1.34,1.34,0,0,0-.74-.25,59.06,59.06,0,0,1-6.53-1.45c-.18,0-.39,0-.57-.07-1.17-.21-2.22-.74-3.39-.85-1.91-.7-3.89-1.27-5.76-2.08a1.28,1.28,0,0,0-.35-.14c-.28-.14-.5-.32-.39-.64s.39-.39.71-.32l.31.11c1.24.25,2.51.49,3.75.71,2.79.46,5.62.81,8.44,1.09l7.49.74c2.4.22,4.8.39,7.24.53,4,.22,7.95.43,11.94.53s8.3.14,12.43-.1c1.77-.11,3.5-.21,5.27-.43a2.23,2.23,0,0,0,1.73-1.2,7.43,7.43,0,0,1,2.65-2.72,21.27,21.27,0,0,1,3.71-1.52c4.48-1.66,9-3.28,13.45-4.94C180.57,68.13,180.6,68.31,180.6,68.59ZM151.74,81.91c2.58,0,5.12-.6,7.67-.81.32,0,.28.7.25.91-.11.64.21.75.74.71,1.62-.21,3.25-.32,4.84-.6a56.83,56.83,0,0,0,8-1.8,22.6,22.6,0,0,0,6.26-2.9c.31-.21.67-.42.67-.88V69.05c0-.32-.11-.35-.39-.25L174,70.92c-2.94,1.1-5.87,2.23-8.83,3.25A7.16,7.16,0,0,0,159.94,80a5.44,5.44,0,0,1-.78.17,74.64,74.64,0,0,1-8.94.64c-4.06.07-8.16.14-12.22-.07-2.08-.11-4.13-.11-6.21-.18-.78,0-1.59-.07-2.37-.14-2.37-.14-4.73-.32-7.1-.5a28.11,28.11,0,0,0-2.9-.24,7.28,7.28,0,0,0,1.73.35c3.18.5,6.36,1,9.58,1.24,3.46.32,6.92.6,10.38.63"/>
            <path class="cls-22" d="M153.3,30a6.62,6.62,0,0,1-3.36.85,4.63,4.63,0,0,1-2.86-1.35v-.1a2.65,2.65,0,0,0,.92-1.77,9.55,9.55,0,0,0-.78-5.69l.21,0a1.24,1.24,0,0,0,.57.49c1.59,1.06,2.47.64,3.85.22A25.88,25.88,0,0,0,155,21.22a7.36,7.36,0,0,1,4.1-1.06,4.19,4.19,0,0,1,2.4,1.17.68.68,0,0,1,.24.49v7.49c-.42-.14-.63-.56-1-.67A3.08,3.08,0,0,0,159,28a1.89,1.89,0,0,0-.67,0,8.88,8.88,0,0,0-3.85,1.37"/>
            <path class="cls-20" d="M178.06,51.57l1.13-.68c-.07.53-.18,1.06-.25,1.59a.85.85,0,0,0-.07.57c0,.21-.11.42-.14.63a43.54,43.54,0,0,0-.39,8.23c0,.22,0,.43.07.64l-.1.07.1,0,.14.7a12.23,12.23,0,0,0,.6,3c.11.35,0,.42-.31.53-1.31.35-2.62.78-3.93,1.13l-.31.14a42,42,0,0,0-4.21,1.31c-.28,0-.56,0-.77.18l-6.5,1.9c-.11,0-.21,0-.25.11l-.67.18-.92.28a.58.58,0,0,1-.71-.36s0-.1,0-.17a17.24,17.24,0,0,1-.5-2.69,10.76,10.76,0,0,1,.85-5.44c.53-.38,1.38-.53,1.13-1.48,0-.21.07-.35.32-.39.07.25-.07.53.21.78,1-.71,2-1.45,3.11-2.16.35-.24.28-.56.25-.88a.47.47,0,0,1,.32-.42c.24.17,0,.49.24.74.89-.64,1.77-1.27,2.69-1.84.49-.32.84-.63.74-1.27a.19.19,0,0,1,.18-.25h0a.34.34,0,0,1,.07.18c0,.57.14.6.57.25.77-.6,1.55-1.13,2.36-1.66a1.05,1.05,0,0,0,.6-1.24c.07-.18.18-.35.43-.28,0,.21-.11.49.1.6s.39-.07.57-.21c.78-.53,1.31-1.06,2.12-1.59l1.13-.74"/>
            <path class="cls-23" d="M178.76,80.18a31.55,31.55,0,0,1-1.8,6c-.17.46-.39.88-.56,1.34a5.25,5.25,0,0,1-2.76,3.07c-.39.21-.53.39-.35.85.71,1.87,1.31,3.81,2,5.79h-2.4c.07-.46-.63-.74-.42-1.09s.77-.32,1.2-.46c.14,0,.28,0,.25-.21s-.22-.18-.36-.14c-.46.1-.88.24-1.34.35s-.71-.28-.81-.6.32-.25.53-.32.63-.18,1-.25c.11,0,.21-.1.21-.21s-.17-.18-.28-.18a1,1,0,0,0-.56.15,5.66,5.66,0,0,1-1.1.24.62.62,0,0,1-.71-.56c-.07-.43.32-.32.53-.36l.89-.24c.14,0,.35,0,.31-.21s-.24-.18-.42-.15-.6.15-.88.25c-.6.21-1.13.21-1.49-.42a.5.5,0,0,0-.63-.21c-1.2.35-2.37.7-3.6,1s-2.79.53-4.17.89c-1.77.42-3.57.67-5.37,1-2.51.42-5,.67-7.56.95-2.37.25-4.7.64-7.07.68-.21,0-.45-.11-.56.21H132.6c-.07-.28-.28-.21-.5-.21s-.67,0-1,0a49,49,0,0,1-6.42-1.59.74.74,0,0,1-.57-.5c1.1.11,2.16.43,3.21.64a34.12,34.12,0,0,0,5.3.53c1.84.1,3.71,0,5.58,0h.53c2-.24,4-.17,6-.53.81-.14,1.62-.07,2.44-.14,1.62-.17,3.25-.39,4.87-.63,2-.29,4-.57,6-.89,1.52-.24,3-.6,4.52-.84a28.3,28.3,0,0,0,3.82-.89c1.44-.46,2.89-.85,4.31-1.38a16.67,16.67,0,0,0,4.45-2.64,1.82,1.82,0,0,0,.42-.53c.35-.71.67-1.45.95-2.19a19,19,0,0,0,1.06-3.11,5.07,5.07,0,0,1,.53-2c.11-.18,0-.28-.21-.32C178.34,79.4,178.52,79.93,178.76,80.18Z"/>
            <path class="cls-24" d="M140.48,97.2c.07-.32.35-.21.56-.21a67.15,67.15,0,0,0,7.06-.67c2.51-.28,5.06-.57,7.56-.95,1.81-.29,3.61-.53,5.37-1,1.38-.35,2.79-.56,4.17-.88,1.2-.28,2.4-.64,3.6-1a.54.54,0,0,1,.64.21,1.15,1.15,0,0,0,1.48.43,7.4,7.4,0,0,1,.89-.25c.17,0,.38-.11.42.14s-.18.18-.32.21-.56.18-.88.25-.6-.07-.53.35.28.64.71.57a10.7,10.7,0,0,0,1.09-.25,3,3,0,0,1,.57-.14c.14,0,.28,0,.28.18s-.11.17-.21.21c-.32.1-.64.17-1,.24s-.6,0-.53.32.32.71.82.6.88-.24,1.34-.35c.14,0,.32-.07.35.14s-.14.18-.25.21c-.42.14-1,.11-1.2.46s.5.64.43,1.1l-5.41,0H143.62l-.85,0c0-.07-.07-.07-.14,0h-1.45c0-.07-.07-.07-.14,0Z"/>
            <path class="cls-25" d="M102.72,72.76c.35-1.52,2.71-1.63,3.32-1.52.24,0,9.25,1.17,10.7,1.27.14,0,8.79,1.06,9.22,1l.46,0a2.62,2.62,0,0,1,2.82,2.54,12.17,12.17,0,0,0,.28,1.56c.08.32,0,.74.5.81l.21.07c.53,0,16.74.32,17.34.32a6.35,6.35,0,0,0,1.63,0h2.51c.46,0,7.42-.64,8.09-1.31,0,0,2.89-3,3.25-3.18,1.76-.88,3.63-1.41,5.47-2.12.39-.14,2.26-.81,2.4-.84l4.1-1.56.21,0,5.44-2c.11,0,.28-.11.36,0a.27.27,0,0,1-.08.36,0,0,0,0,0,0,0c-.28.11-.25.36-.32.6,0-.31,0-.46-.46-.31-4.48,1.66-9,3.28-13.46,4.94A17.14,17.14,0,0,0,163,75a7.43,7.43,0,0,0-2.65,2.72,2.17,2.17,0,0,1-1.73,1.2c-1.77.18-3.5.32-5.27.42-4.13.25-8.3.22-12.43.11s-8-.32-11.94-.53c-2.4-.14-4.84-.28-7.24-.53s-5-.46-7.49-.74c-2.83-.32-5.62-.64-8.44-1.1-1.27-.21-2.51-.46-3.75-.7m5.8.35,8.37-1.2v1.8c0,.25.07.39.35.42.78.11,1.52.18,2.3.22.24,0,.42,0,.42-.36V73.54c0-.22,0-.39-.32-.39-.77-.07-1.52-.18-2.29-.25-.36,0-.46.07-.46.42,0,.57,0,1.1,0,1.66Zm10.45,1h0v1.59c0,.22,0,.46.32.46l1.91.11c.17,0,.28,0,.24-.25-.17-.85-.28-1.73-.49-2.58a1.91,1.91,0,0,0-1.48-1.37c-.32-.11-.5,0-.5.38,8.41-.63,8.37-.1,8.37.46Zm1.38-1.8v1.8c0,.25.07.39.35.43.78.1,1.52.17,2.3.21.25,0,.42,0,.42-.35V74c0-.21,0-.39-.31-.39-.78-.07-1.52-.18-2.3-.25-.35,0-.46.07-.46.43Zm3.43.39v1.8c0,.25.07.39.35.43.78.1,1.52.17,2.3.21.24,0,.42,0,.42-.35v-3.5c0-.21,0-.39-.32-.39-.78-.07-1.52-.18-2.29-.25-.36,0-.46.07-.46.43C123.13,74.67,123.1,75.23,123.1,75.76Zm-10.46-1.2v1.8c0,.25.07.39.35.43.78.1,1.52.17,2.3.21.25,0,.42,0,.42-.36V73.15c0-.21,0-.39-.31-.39-.78-.07-1.52-.18-2.3-.25-.35,0-.46.07-.46.43C112.68,73.47,112.64,74,112.64,74.56Zm-3.57-.39V76c0,.25.07.39.36.43.77.1,1.52.17,2.29.21.25,0,.43,0,.43-.35v-3.5c0-.21,0-.39-.32-.39-.78-.07-1.52-.18-2.3-.25-.35,0-.46.07-.46.43C109.11,73.08,109.07,73.64,109.07,74.17Zm-3.42-.39v1.8c0,.25.07.39.35.43.78.1,1.52.18,2.3.21.24,0,.42,0,.42-.35v-3.5c0-.21,0-.39-.32-.39-.78-.07-1.52-.17-2.29-.25-.36,0-.46.08-.46.43Zm-.39-1.73c0-.35-.18-.46-.5-.35A1.9,1.9,0,0,0,103.24,73c-.24.81-.38,1.63-.56,2.44,0,.21.07.25.25.25.63,0,1.27,0,1.9-.08.32,0,.32-.21.32-.45,0-.5,0-1,0-1.52h0c0-.53,0-1,.07-1.56Z"/>
            <path class="cls-24" d="M124.19,97.13a10.82,10.82,0,0,1-7-2.86A6.35,6.35,0,0,1,115.75,92a55.12,55.12,0,0,0-5-9.71c.11-.15.22-.11.39,0,.81.42,1.13,1.31,1.84,1.8s.88,1.34,1.62,1.8c.22.18.25.46.39.64.32.35.36,1.06,1,1.09l.14.15a.92.92,0,0,0,.14.63c.6.81,1.2,1.59,1.8,2.4a12.61,12.61,0,0,0,3.32,2.94,6.74,6.74,0,0,0,2.69,1.16c.07.32.31.42.56.5A52.47,52.47,0,0,0,131.15,97a4.68,4.68,0,0,0,1,0c.18,0,.42-.08.49.21"/>
            <path class="cls-24" d="M178.76,80.18c-.24-.25-.42-.78-.81-.14a1.07,1.07,0,0,0-.32.1,31,31,0,0,1-5,1.49c-2.47.49-4.91,1-7.41,1.23-2.23.21-4.49.53-6.72.64-1.16,0-2.29.21-3.46.21a19.77,19.77,0,0,0,2.05.07c.21,0,.43,0,.46.28s-.1.21-.25.21c0-.28-.24-.24-.46-.24a12,12,0,0,0-1.2,0,4.37,4.37,0,0,0-1.8.14c-.17-.53-.6-.39-1-.39a28.6,28.6,0,0,0-3.92.14,19,19,0,0,0-3.21-.14.48.48,0,0,0-.5.25,23.2,23.2,0,0,0-3.14-.25c-.71-.07-1.52-.28-2,.49.21-.38,0-.38-.32-.38h-3.15c.75-.32,1.52,0,2.27-.22-2.41,0-4.77-.28-7.14-.42-1.17-.07-2.3-.25-3.46-.32-1.84-.14-3.64-.46-5.44-.74a9.62,9.62,0,0,1-2.47-.53c1.52.11,3,.42,4.48.6,1.31.18,2.65.32,4,.46,1.66.18,3.35.35,5,.49.78.08,1.59.08,2.37.15,1.31.07,2.65.14,4,.17,3.74.18,7.49.14,11.23.07,2.72-.07,5.44-.21,8.16-.46a81,81,0,0,0,8.34-1.09,43,43,0,0,0,7.73-2.12,31.15,31.15,0,0,0,3.6-1.7C179.05,78.87,179,79.54,178.76,80.18Z"/>
            <path class="cls-23" d="M114.65,85.86c-.74-.42-1-1.34-1.62-1.8s-1.06-1.41-1.84-1.8c-.17-.07-.28-.11-.39,0a24.59,24.59,0,0,0-3.18-3.57,24.85,24.85,0,0,1,3.4.85,3.43,3.43,0,0,0,.56.07c-.63.17-.53.46-.14.84a4.32,4.32,0,0,1,.35.46c1,1.2,1.59,2.69,2.48,4C114.44,85.12,114.83,85.4,114.65,85.86Z"/>
            <path class="cls-25" d="M180.6,72.55V71.49A2.52,2.52,0,0,1,180.6,72.55Z"/>
            <path class="cls-25" d="M180.6,76.5v-.67"/>
            <path class="cls-25" d="M180.6,70.15a.08.08,0,0,1,0-.11s0,.07,0,.11Z"/>
            <line class="cls-26" x1="180.64" y1="76.93" x2="180.6" y2="76.93"/>
            <path class="cls-23" d="M141,97.2c0-.07.08-.07.15,0Z"/>
            <path class="cls-23" d="M142.59,97.2c0-.07.08-.07.15,0l-.07,0Z"/>
            <path class="cls-20" d="M140.55,38.25c-.78-.07-1,.1-1.17.63s-1.09,2.87-1.31,3.43c0,0,0,.07,0,.14s-.14,1.84-.18,2.62c0,.14.07.53.11.67s.07.24.1.53c0,.07.92,2.08,1.06,2.47s.43.35.57.56c.39.08,4.13.64,4.24.68.31-.25,1.06.28,1.37.31l4.56.64,3.85.64a.26.26,0,0,0,.32-.18,15.34,15.34,0,0,1-1-4.06c-.07,0-.17-.07-.17-.14s.07-.11.17-.15V45.45c-.07,0-.17,0-.17-.14s.1-.07.17-.14c0-.25,0-.53.08-.78A23.2,23.2,0,0,1,154.25,40l.78-1.58-7.28,0h-1.87a8.08,8.08,0,0,1-1,0"/>
            <path class="cls-19" d="M169.3,56.9a.6.6,0,0,0,.32-.53c0-1.13.1-2.37,0-3.46a14.26,14.26,0,0,1,0-1.73c0-.32,0-.39-.39-.39,0,0-.11-.11-.11-.14s.07-.14.18-.14h1.52c.1,0,.14,0,.14.14a.13.13,0,0,1-.14.14h-.14c-.29,0-.15.25-.15.78,0,.24,0,1,0,1.3a11.54,11.54,0,0,0-.1,1.17v1.52c0,.39.1.46.46.24.92-.67,1.87-1.3,2.82-2a1.13,1.13,0,0,1-.6,1.23,22.76,22.76,0,0,0-2.36,1.66c-.43.32-.6.32-.57-.24a.31.31,0,0,0-.07-.18.24.24,0,0,0-.25.21v0c.11.63-.24,1-.74,1.27-.92.56-1.8,1.23-2.68,1.83-.21-.24,0-.56-.25-.74a16.31,16.31,0,0,0,2.61-1.69"/>
            <path class="cls-19" d="M147.08,20.34v.39c0,.39-.14.85.39,1.06h0v.1s0,0,0,.07l-.21,0a.11.11,0,0,1-.1,0,.3.3,0,0,0,0,.18V32.21h-.85V21.12c0-.18.11-.43-.24-.43a6.81,6.81,0,0,0,.6-2.29A10.2,10.2,0,0,1,147.08,20.34Z"/>
            <path class="cls-21" d="M146.23,32.21h.85l2.76,0v.39l-6,0a.5.5,0,0,0-.43.14l-.35.1c0-.49.18-.7.71-.67C144.61,32.24,145.42,32.21,146.23,32.21Z"/>
            <path class="cls-27" d="M156.16,65.48c-.21-.1-.18-.21,0-.32Z"/>
            <path class="cls-27" d="M156.16,66.82c-.21-.1-.21-.21,0-.31Z"/>
            <path class="cls-28" d="M115.71,87.59l.67.78c.61.81,1.21,1.59,1.81,2.4a12.45,12.45,0,0,0,3.32,2.94,6.7,6.7,0,0,0,2.68,1.16,31.08,31.08,0,0,1,3.22.64,33.87,33.87,0,0,0,5.29.53c1.84.1,3.71,0,5.59,0h.52c2-.25,4-.17,6-.53.81-.14,1.62-.07,2.44-.14,1.62-.18,3.25-.39,4.87-.63,2-.29,4-.57,6-.89,1.52-.25,3-.6,4.52-.85a26.84,26.84,0,0,0,3.82-.88c1.45-.46,2.89-.85,4.31-1.38a16.45,16.45,0,0,0,4.45-2.65,1.48,1.48,0,0,0,.42-.53,22.6,22.6,0,0,0,.95-2.19,18.58,18.58,0,0,0,1.06-3.1,5.07,5.07,0,0,1,.53-2c.11-.18,0-.28-.21-.32a1.52,1.52,0,0,0-.32.11,31,31,0,0,1-5,1.48c-2.47.49-4.91,1-7.41,1.24-2.23.21-4.49.53-6.72.63-.6,0-1.2.07-1.83.14-1.59,0-3.6.14-3.82.14-1,0-1.9,0-2.86,0-2.08-.11-7-.11-7.95-.18a3.27,3.27,0,0,0-1.27.14c-2.5,0-6.81-.38-9-.53-1.17-.07-2.3-.24-3.46-.31-1.84-.14-3.64-.46-5.44-.75a9.61,9.61,0,0,1-2.47-.52c-.07-.11-.18-.15-.25-.11a4.34,4.34,0,0,0-1.2-.14,1.34,1.34,0,0,0-.74-.25,57.78,57.78,0,0,1-6.57-1.45c-.64.18-.53.46-.14.85a4.67,4.67,0,0,1,.35.46c1,1.16,3,5.33,3.88,6.6"/>
            <path class="cls-29" d="M159.94,80a7.15,7.15,0,0,1,5.23-5.86c3-1,5.89-2.16,8.83-3.25l5.79-2.12c.28-.11.39-.07.39.24V76.5c0,.46-.36.67-.67.89a22.29,22.29,0,0,1-6.26,2.89,59.92,59.92,0,0,1-8,1.8c-1.59.29-3.22.39-4.84.6-.53.08-.85,0-.74-.7a.47.47,0,0,0-.08-.43.16.16,0,0,1,0-.24A3.11,3.11,0,0,0,159.94,80Zm17.41-3.81s.07,0,.07,0l.11-.07h0c.56-.07.95-.53,1.41-.74a1.32,1.32,0,0,0,.71-1.66c-.07-.14.32-.67-.18-.39s-1.2.78-1.8,1.16h0l-2.11.85a.39.39,0,0,0-.22.25,4.57,4.57,0,0,0,0,1.38.15.15,0,0,0,.21.1h0a8.28,8.28,0,0,0,1.55-.7s.08-.07.08-.11a1.39,1.39,0,0,0,.17,0ZM169,74.63h0c1-.07,1-.07.91-.95h0c0-.81,0-.85-.77-.53a1,1,0,0,0-.25.14h0c-1.13.32-2.19.81-3.32,1.16-.31.11-.24.32-.24.53s.17.29.38.29a10.15,10.15,0,0,0,1.59-.29h0a6,6,0,0,0,1.41-.24h0a.36.36,0,0,0,.25-.11Zm-2.65,1h0c-1.2,0-1.31.1-1.06,1.06h0l0,0s0,.07,0,.11c-.36,1,.35.49.7.49.14,0,.29,0,.39-.1h0l1.59-.25c.46-.11,1-.18,1.41-.28.22,0,.57,0,.53-.36s.29-1-.17-1.3a.2.2,0,0,0-.14,0l-2.37.46-.67.07C166.4,75.55,166.33,75.58,166.3,75.66Zm-4.56,4.94c-1.55,0-1.66.07-1.66,1.45,0,.25.18.28.35.25a4.67,4.67,0,0,0,.81-.15h0a6.59,6.59,0,0,0,1.45-.17l1.55-.18c.18,0,.43,0,.43-.32s.14-.88-.11-1.27c0,0-.18,0-.28.07h-.07a4.17,4.17,0,0,0-1.13.11ZM172.62,72h0a14.48,14.48,0,0,0-2.12.67c-.11,0-.25.07-.25.21,0,.46-.14,1,.07,1.38a.22.22,0,0,0,.21.1,23.41,23.41,0,0,0,3-.81c1.49-.49,1.49-.49,1.41-2v-.07c0-.29-.07-.43-.38-.29-.57.25-1.17.46-1.73.71a0,0,0,0,0,0,0Zm-8.87,6.25h0a23.22,23.22,0,0,0-2.75.25c-.21,0-.32.1-.32.38a3.23,3.23,0,0,1-.28,1c-.18.39,0,.5.28.46l1.62-.21a3.11,3.11,0,0,0,1.31-.18s0,0,.07,0c1-.14,1.06-.14,1-1h0c0-.84,0-.84-.67-.74a.21.21,0,0,0-.25.11Zm14.45-1.73v-.14l-2.72,1.23c-.07,0-.14.07-.14.11a2.63,2.63,0,0,0,.07,1.06c.11.25.39.07.64-.11a0,0,0,0,0,0,0,23.1,23.1,0,0,0,2.86-1.24,1.51,1.51,0,0,0,.81-1.73.15.15,0,0,0-.21-.14l-.1,0c-.29.25-.53.57-.82.82a.11.11,0,0,1-.07,0C178.41,76.36,178.24,76.36,178.2,76.47Zm-16.57,1.45h0a10.53,10.53,0,0,0,2.72-.32c.14,0,.32,0,.32-.25a3.64,3.64,0,0,0-.11-1.41c-.07-.21-.56.14-.92.1a.91.91,0,0,0-.32,0c-1.3-.11-1.69.81-2.26,1.66a.18.18,0,0,0,0,.25.13.13,0,0,0,.1,0C161.42,78,161.53,77.92,161.63,77.92Zm12.33.24s0,0-.07,0c-1.13.21-2.22.71-3.39.88-.21,0-.35.21-.25.5a1,1,0,0,1,0,.49c-.07.46,0,.64.36.53s1-.25,1.48-.39h0a15.34,15.34,0,0,0,2.44-.77c.1,0,.24-.08.24-.15.11-.46.25-1,0-1.3s-.57,0-.85.17Zm-2.65.25h0c.88-.21,1.73-.46,2.58-.74,1-.35,1-.32,1-1.34,0-.57,0-.85-.67-.53-.35.14-.74.28-1.09.39-.74.21-1.48.42-2.23.56-.56.11-.7.39-.7.92.07,1.09,0,1.09,1.09.74Zm4.17-5.19s-.07,0-.11.07c-.24.28.07.74,0,1.06-.1.6.11.46.53.25A20.54,20.54,0,0,0,179,73a1.54,1.54,0,0,0,.74-1.69c0-.29-.1-.36-.35-.18-.78.49-1.59,1-2.37,1.41,0,0,0,0-.07,0a7.29,7.29,0,0,0-1.48.6Zm-8.62,4.45h-.07a8.7,8.7,0,0,0-1.34.14.32.32,0,0,0-.35.32,5.42,5.42,0,0,0,0,1.34.25.25,0,0,0,.18.14,17.63,17.63,0,0,0,3.35-.56,1.44,1.44,0,0,0,1.13-1.24c0-.67-.14-.74-.53-.67Zm3.39-2.23v.07c0,1.24,0,1,.92.78s1.77-.49,2.65-.78c1.09-.31,1.2-.53,1.09-1.69,0-.35-.14-.35-.42-.25A29.21,29.21,0,0,1,171,74.63c-.53.11-.88.28-.71.81Zm5.05-3.81v0c0,.25.39.43.39.53-.07.53-.21.39.25.15s.74-.08,1.09-.25a13.63,13.63,0,0,0,2.19-1.45,1.1,1.1,0,0,0,.46-1.24c-.14-.28-.46.22-.7.29-.92.31-1.84.88-2.79,1.2-.64.21-1.1.07-.89.74ZM169.83,80v-.11c.17-.67-.11-.74-.71-.6a18.1,18.1,0,0,1-3.11.56c-.81.07-.91.46-.88,1.13s.25.64.92.43a13.8,13.8,0,0,1,2.75-.53c.71,0,1.2-.18,1-.88Zm-6.25-4.81c-.07.07-.11.18,0,.25a.14.14,0,0,0,.18.07,4.48,4.48,0,0,1,.7-.07c.32,0,.29-.28.29-.5s0-.28-.22-.21-.63.32-.91.46Z"/>
            <path class="cls-25" d="M159.94,80c-.11.53.1,1.1-.39,1.48-2.54.22-5.23.43-7.81.43H141.11c-3.46,0-6.92-.32-10.38-.64-3.22-.28-6.4-.74-9.58-1.23.36-.25.78,0,1.17-.11,2.37.18,23.81.95,27.9.88a68.89,68.89,0,0,0,8.94-.63C159.41,80.14,159.66,80.07,159.94,80Z"/>
            <path class="cls-29" d="M122.32,79.89c-.39.07-.81-.14-1.17.11a7.28,7.28,0,0,1-1.73-.35A28.11,28.11,0,0,1,122.32,79.89Z"/>
            <path class="cls-24" d="M120.06,81.48c-.43.29-.81.11-1.2-.14Z"/>
            <path class="cls-30" d="M178.38,62.55a.08.08,0,0,1,0,.11l-.11,0Z"/>
            <path class="cls-31" d="M116.24,46.27l-.07.14,0,0a.2.2,0,0,1,.1-.24h0Z"/>
            <path class="cls-20" d="M153.05,53.54h-9.43c-.67,0-5.05,0-6.57,0h-1.52a19.49,19.49,0,0,0-1.59,3.36l-.11.21a.9.9,0,0,1-.17.53c-.11.35-.18.71-.28,1.06a4.51,4.51,0,0,1-.22.95L133,61.24l-.07.67a14.42,14.42,0,0,0,.5,4.77l.14.64.07.25c.28.67.6,1.3.88,2l.21.32,0,0,.21.32.25.38.39.57c1.9.28,3.85.53,5.75.81,2.86.43,5.76.85,8.62,1.31l.71.1c2.22.36,4.41.71,6.64,1a2,2,0,0,0,.6,0l-.11-.39c-.07-.07-.14-.18-.1-.25a9,9,0,0,1-.67-1.9,7.4,7.4,0,0,1-.43-1.91c0-.6-.32-1.13-.25-1.66s-.21-1-.14-1.49c-.21-.1-.21-.21,0-.31v-1c-.21-.1-.17-.21,0-.32.11-1.06.22-2.11.32-3.14A40.51,40.51,0,0,1,158.24,56c.36-.75.74-1.49,1.1-2.23"/>
            <path class="cls-24" d="M149.87,32.77c-.18.18-.07.46-.18.64-.1-.42-.35-.53-.77-.53-1.8,0-3.61,0-5.41,0l0-.14c.1-.14.24-.14.42-.14l6,0Z"/>
            <path class="cls-28" d="M143.51,32.91c1.8,0,3.61,0,5.41,0,.46,0,.7.11.77.53-.21.92-.45,1.88-.67,2.8a.42.42,0,0,1-.53.38,7.85,7.85,0,0,0-.84,0h-1.91c-1.31,0-1.31,0-1.63-1.3C143.9,34.5,143.69,33.73,143.51,32.91Z"/>
            <path class="cls-28" d="M131.68,94.06c11.69.1,23.31-.53,34.86-3C164.49,92.68,136.41,95.12,131.68,94.06Z"/>
            <path class="cls-28" d="M162.45,84.49c0-.18-.22-.32-.18-.57h3.67l-.35.6-.14.14c-.78.39-1.63.07-2.44.18-.1,0-.21-.18-.32-.28Z"/>
            <path class="cls-28" d="M165.45,84.66l.14-.14c.14.07.25.18.21.35-.18,1.21,0,2.44-.1,3.64h-2.94c-.21,0-.46,0-.46-.31,0-1.17,0-2.34,0-3.5,0-.07.07-.14.14-.21l.21.07c0,.14-.14.21-.17.35a23,23,0,0,0,0,3.11c0,.25.21.25.39.25h2.37c.35,0,.38-.18.38-.46,0-.57,0-1.1,0-1.66S165.77,85.12,165.45,84.66Z"/>
            <path class="cls-23" d="M130.62,94h-2.15v-.21A9.38,9.38,0,0,0,130.62,94Z"/>
            <path class="cls-23" d="M127.72,93.92H127v-.07h.74Z"/>
            <path class="cls-23" d="M126.24,93.74l.11,0a.34.34,0,0,1,0,.1.39.39,0,0,0-.11,0S126.24,93.78,126.24,93.74Z"/>
            <path class="cls-24" d="M145.21,84l.1.14Z"/>
            <path class="cls-30" d="M170.25,75.48c-.17-.53.18-.74.74-.85a29.91,29.91,0,0,0,3.54-1.06c.24-.1.38-.1.42.25.11,1.16,0,1.38-1.09,1.69-.89.25-1.77.57-2.65.78S170.25,76.72,170.25,75.48Z"/>
            <path class="cls-22" d="M175.16,71,179,69.51c.24-.11.63-.39.74-.11a2.24,2.24,0,0,1-.07,1.35,14.21,14.21,0,0,1-2.62,1.3l-1.48.71a.14.14,0,0,1-.18-.07v0A11.44,11.44,0,0,1,175.16,71Z"/>
            <path class="cls-30" d="M169.79,80c.18.64-.14.85-.7.92-1.13.21-2.23.42-3.36.67-.46.11-.6,0-.63-.53,0-.71.07-1.06.88-1.13a23.31,23.31,0,0,0,3.11-.57C169.72,79.22,170,79.29,169.79,80Z"/>
            <path class="cls-30" d="M166.83,77.67l2.5-.53c.32-.07.53,0,.53.39,0,1.23.07,1.23-1.16,1.52a17.37,17.37,0,0,1-3.5.56C165.59,78.83,166.44,78.45,166.83,77.67Z"/>
            <path class="cls-30" d="M172.76,71.84c.6-.25,1.2-.46,1.77-.71.31-.14.38,0,.38.29v.07c.08,1.52.08,1.52-1.41,2a23.83,23.83,0,0,1-3.11.85l1-1A8,8,0,0,0,172.62,72h0Z"/>
            <path class="cls-32" d="M173.15,76.15a5.64,5.64,0,0,0,1.09-.39c.64-.32.67,0,.67.53,0,1.06,0,1-1,1.34a16.88,16.88,0,0,1-2.58.75,6.91,6.91,0,0,1,1.38-1.52C172.87,76.68,173.25,76.57,173.15,76.15Z"/>
            <path class="cls-32" d="M162.3,80.07l-1.62.21c-.28,0-.42-.07-.32-.39a6.4,6.4,0,0,0,.32-1.2.24.24,0,0,1,.32-.24,22.66,22.66,0,0,1,2.75-.25c0,.32-.32.46-.46.67C163,79.26,162.45,79.51,162.3,80.07Z"/>
            <path class="cls-32" d="M172.12,80.18c-.49.14-1,.24-1.48.39-.28.07-.39,0-.39-.32V79.4a.3.3,0,0,1,.25-.35h0c1.17-.18,2.27-.67,3.4-.89,0,.14-.07.22-.18.32A10.89,10.89,0,0,0,172.12,80.18Z"/>
            <path class="cls-32" d="M163.36,76.08a.91.91,0,0,1,.32,0c.32,0,.85-.28.92-.1a4.7,4.7,0,0,1,.11,1.41c0,.21-.18.21-.32.25a12.62,12.62,0,0,1-2.72.32C162.13,77.21,162.91,76.79,163.36,76.08Z"/>
            <path class="cls-30" d="M173.15,76.15c.1.39-.25.53-.46.74-.46.53-1.06.88-1.38,1.52-1.06.35-1,.35-1.09-.74,0-.53.1-.81.7-.92C171.67,76.61,172.41,76.36,173.15,76.15Z"/>
            <path class="cls-32" d="M167.21,75a10.76,10.76,0,0,1-1.62.29c-.21,0-.39,0-.39-.29s0-.42.25-.53c1.13-.35,2.19-.88,3.32-1.16Z"/>
            <path class="cls-30" d="M172.12,80.18a11.58,11.58,0,0,1,1.66-1.7c.11-.1.22-.18.18-.32.28-.17.71-.49.88-.24s.07.88,0,1.3c0,.07-.18.11-.25.14A12.08,12.08,0,0,1,172.12,80.18Z"/>
            <path d="M179.68,75.3c-.35.25-1.23.81-1.62,1-.88.39-1.7.81-2.58,1.23-.07,0-.14.07-.14.11a3.16,3.16,0,0,0,0,1.27c.07.14.53,0,1-.25a22.12,22.12,0,0,0,2.61-1.34A1.56,1.56,0,0,0,179.68,75.3Z"/>
            <path class="cls-32" d="M167.89,77l-1.59.25c0-.29.21-.43.38-.57.32-.35.68-.67,1-1,.18-.18.14-.25-.11-.29l2-.39a16.79,16.79,0,0,1-1.77,1.81C167.67,76.93,167.71,77,167.89,77Z"/>
            <path class="cls-32" d="M163,80.46a3.22,3.22,0,0,1,1.3-.14c-.42.67-1.09,1.06-1.55,1.69a6.61,6.61,0,0,1-1.45.18A8.45,8.45,0,0,1,163,80.46Z"/>
            <path class="cls-30" d="M167.6,75.37c.21,0,.25.11.11.29-.35.31-.67.67-1,1-.17.18-.38.32-.38.57h0c-.15,0-.29,0-.39.1-.32,0-1,.42-.71-.49v-.14h0a1.66,1.66,0,0,0,1.1-1.06h0c.14,0,.28,0,.38-.11Z"/>
            <path class="cls-30" d="M162.3,80.07c.15-.56.68-.78,1-1.2.18-.21.46-.35.46-.67h0l.25-.07c.71-.14.71-.14.67.74a2.19,2.19,0,0,0-1,1A4.08,4.08,0,0,1,162.3,80.07Z"/>
            <path class="cls-32" d="M172.62,72a7.88,7.88,0,0,1-1.27,1.37l-1,1c-.31-.49-.1-1-.14-1.52,0-.1.11-.17.25-.21A21.57,21.57,0,0,1,172.62,72Z"/>
            <path class="cls-30" d="M167.21,75l1.59-1.69c.11,0,.18-.11.29-.14.74-.32.77-.28.77.53a1.44,1.44,0,0,0-.91.95h0a.18.18,0,0,0-.25.11A7.33,7.33,0,0,1,167.21,75Z"/>
            <path class="cls-30" d="M163,80.46a10.46,10.46,0,0,0-1.7,1.69l-.85.15c-.17,0-.35,0-.35-.25a11.39,11.39,0,0,0,1.45-1.41Z"/>
            <path class="cls-30" d="M167.89,77c-.18,0-.22-.07,0-.21A16.85,16.85,0,0,0,169.62,75c.56.36.14.89.24,1.35s-.31.31-.53.35A12.16,12.16,0,0,1,167.89,77Z"/>
            <path class="cls-30" d="M162.73,82c.46-.64,1.16-1,1.55-1.7.11,0,.29-.1.32-.07.25.39.11.85.11,1.27s-.25.29-.43.32C163.75,81.87,163.22,81.91,162.73,82Z"/>
            <path class="cls-32" d="M166.83,77.67c-.36.78-1.21,1.16-1.59,1.94a4.07,4.07,0,0,1-.11-1.48c0-.21.14-.32.35-.32A8.46,8.46,0,0,1,166.83,77.67Z"/>
            <path d="M179,75.41c.63-.32.77-.78.81-1.52a2.77,2.77,0,0,0,0-.5c0-.14,0-.31-.35-.14-.6.32-3.5,1.84-4.17,2.12a3,3,0,0,0,.14,1.7,10.38,10.38,0,0,0,1.84-.78"/>
            <path class="cls-30" d="M163.36,76.08c-.45.71-1.23,1.13-1.73,1.84-.21,0-.39.17-.7,0C161.6,77.07,162,75.94,163.36,76.08Z"/>
            <path class="cls-32" d="M161.53,80.6A8.78,8.78,0,0,1,160.08,82C160.08,80.74,160.19,80.64,161.53,80.6Z"/>
            <path class="cls-32" d="M166.3,75.66a1.79,1.79,0,0,1-1.06,1.06C165,75.76,165.1,75.69,166.3,75.66Z"/>
            <path d="M175.27,73.29c-.14,0,0,.67,0,1,0,.6.21.6.63.42A28.83,28.83,0,0,0,179.05,73a1.56,1.56,0,0,0,.74-1.69c0-.29-.11-.36-.35-.18"/>
            <path class="cls-33" d="M163.12,75.66a3.25,3.25,0,0,1,1.34-.85c.18-.11.21.07.21.21s.07.46-.28.49S163.61,75.58,163.12,75.66Z"/>
            <path class="cls-32" d="M163.65,79.86a2.26,2.26,0,0,1,1-1C164.71,79.72,164.71,79.72,163.65,79.86Z"/>
            <path class="cls-32" d="M169,74.63a1.5,1.5,0,0,1,.91-.95C169.86,74.56,169.86,74.56,169,74.63Z"/>
            <path class="cls-32" d="M166.68,75.55a.33.33,0,0,1-.38.11C166.37,75.51,166.51,75.55,166.68,75.55Z"/>
            <path class="cls-32" d="M165.91,77.39c.1-.14.24-.11.39-.11C166.19,77.42,166.05,77.39,165.91,77.39Z"/>
            <path class="cls-32" d="M164,78.09l-.25.07a.21.21,0,0,1,.25-.07Z"/>
            <path class="cls-32" d="M168.66,74.7c.07-.07.18-.14.25-.1S168.77,74.74,168.66,74.7Z"/>
            <path class="cls-32" d="M172.76,71.84l-.14.11Z"/>
            <path class="cls-32" d="M177.39,76.19l.14-.11Z"/>
            <path class="cls-32" d="M165.2,76.72v.14s0-.07,0-.11A0,0,0,0,0,165.2,76.72Z"/>
            <path class="cls-31" d="M116.63,69.3l.07,0Z"/>
            <path class="cls-20" d="M114.37,49.55a23,23,0,0,0,3.15.53c.42.07.84-.14,1.23,0,1.56.1,3.11.42,4.63.67.46.07,1,.21,1.45.25a4.57,4.57,0,0,1,.77.14h.25c.25,0,.25.1.5.14l0,0,0,0a10.12,10.12,0,0,0,3.1.35c-3-4.87.75-13.28.75-13.28l-3.85.07a34.22,34.22,0,0,1-4.74-.11l-2.75,0a36.73,36.73,0,0,0-3.92-.11C115,38.25,109,45.91,114.37,49.55Zm11.45,1.59a1.23,1.23,0,0,1,.6,0A1.69,1.69,0,0,0,125.82,51.14Z"/>
            <path class="cls-33" d="M148,85.19l-.14-.1Z"/>
            <path class="cls-33" d="M131,85.19l-.11-.1Z"/>
            <path class="cls-28" d="M163.36,87.06l-.38.57a9.22,9.22,0,0,1-.11-2.19.34.34,0,0,1,.32-.35h.21c.6.07,1.45-.29,1.7.14.38.67.07,1.55.17,2.4-.32-.07-.25-.35-.42-.42l.1-.57a.83.83,0,0,0-.46-.85c-.24-.14-.53-.24-.7.11a.23.23,0,0,0-.25.14C163.05,86.29,163.29,86.68,163.36,87.06Z"/>
            <path class="cls-28" d="M163.75,85.86c.21-.35.46-.24.71-.1a.86.86,0,0,1,.46.85,2.91,2.91,0,0,1-.11.56c-.49.07-1,.35-1.48-.14,0-.35-.32-.78.1-1.1l.08.08a1.71,1.71,0,0,0,0,.45c0,.43.21.68.64.68a.61.61,0,0,0,.56-.78c-.07-.53-.49-.53-.92-.5Z"/>
            <path class="cls-21" d="M163.47,86a.26.26,0,0,1,.25-.14l0,0-.24.18Z"/>
            <path class="cls-27" d="M154.71,24.3a.37.37,0,0,0-.07.28s.14.1.39-.07A.24.24,0,0,0,154.71,24.3Z"/>
            <path class="cls-31" d="M155.35,23.1a2.53,2.53,0,0,1,.17,1.16,2,2,0,0,0,.07.46c.18.46,0,.71-.46.74-.1,0-.21,0-.17.18s-.14.25-.32.21a3.63,3.63,0,0,0-.57,0c-.21,0-.42,0-.38-.29,0-.14-.11-.1-.18-.1-.46-.07-.64-.39-.42-.78.07-.14.14-.25.07-.39a5.14,5.14,0,0,1,.07-.78c.14-.49.35-.91.88-1A1.1,1.1,0,0,1,155.35,23.1Zm-1.17.67c0-.18-.07-.29-.25-.29s-.53.39-.53.64.14.18.25.18A.53.53,0,0,0,154.18,23.77Zm1.1.31a.84.84,0,0,0-.18-.38c-.14-.15-.28-.29-.5-.15s-.1.46.07.6a.74.74,0,0,0,.43.18c.14,0,.21-.07.18-.25Z"/>
            <path class="cls-31" d="M156.3,27.93s-.11.08-.11.15,0,.21-.14.21a.25.25,0,0,1-.24-.21c-.18-.68-.78-.82-1.24-1.17-.07-.07-.14,0-.25,0a5.43,5.43,0,0,0-1,.74.21.21,0,0,0-.11.18c0,.21-.07.42-.28.35s-.25-.28-.25-.46.07-.39.35-.32c0,0,.11,0,.11,0a5.85,5.85,0,0,1,.92-.74c-.25-.07-.42-.14-.64-.18s-.39-.14-.53.11a.13.13,0,0,1-.21,0h0c-.07,0-.1-.1-.07-.21a3.65,3.65,0,0,1,.18-.56.21.21,0,0,1,.21-.18c.07,0,.18.07.18.14v0c0,.14.1.1.17.14.39.07.74.35,1.1.35s.7-.28,1.13-.32c.07,0,.17,0,.17-.14s0-.14.11-.18h0a.16.16,0,0,1,.21.15l.21.63a.13.13,0,0,1-.07.18.14.14,0,0,1-.17,0c-.18-.32-.46-.17-.71-.1a3.63,3.63,0,0,0-.46.14,7.36,7.36,0,0,1,1,.77s0,0,.07,0c.35-.07.38.18.42.42Z"/>
            <path class="cls-34" d="M154.11,24.54a.79.79,0,0,0-.14.25.52.52,0,0,0,.39-.14Z"/>
            <g>
              <path class="cls-31" d="M148.81,58a7.68,7.68,0,0,1,.11,2.83A2.55,2.55,0,0,0,149,62c.28,1.13-.18,1.73-1.31,1.66-.28,0-.46,0-.49.32,0,.6-.39.56-.82.46a6.59,6.59,0,0,0-1.37-.25c-.53,0-1,0-.85-.78.07-.31-.25-.28-.43-.31a1.26,1.26,0,0,1-.81-2c.18-.32.39-.57.28-.92a11.2,11.2,0,0,1,.43-1.84c.46-1.13,1.09-2.05,2.44-2.15A2.53,2.53,0,0,1,148.81,58Zm-3,1.2c0-.39,0-.71-.46-.74s-1.41.74-1.45,1.34c0,.42.25.46.57.46a1.09,1.09,0,0,0,1.34-1.06Zm2.51,1.13a1.48,1.48,0,0,0-.36-1c-.24-.35-.6-.74-1.09-.46s-.35,1.06,0,1.45a1.74,1.74,0,0,0,1,.53C148.14,60.93,148.32,60.75,148.32,60.36Z"/>
              <path class="cls-31" d="M149.91,70.57c-.11.11-.29.18-.32.32s-.11.56-.46.53a.71.71,0,0,1-.6-.64c-.21-1.87-1.87-2.58-3-3.74-.22-.22-.43-.14-.64-.07a15.58,15.58,0,0,0-3.14,1.62c-.18.11-.36.21-.39.46-.07.57-.39,1.1-.92.92s-.57-.92-.46-1.41.35-1,1.1-.71a.29.29,0,0,0,.35-.07,22.06,22.06,0,0,1,2.86-1.66c-.64-.28-1.13-.57-1.66-.78s-1-.6-1.52.11a.4.4,0,0,1-.56,0h0a.43.43,0,0,1-.11-.56c.21-.5.42-1,.67-1.49a.72.72,0,0,1,.64-.38c.31,0,.42.31.35.6s.21.38.42.45c1.06.39,1.91,1.28,2.94,1.49s2.11-.5,3.25-.46c.24,0,.49,0,.49-.32a.38.38,0,0,1,.39-.42.53.53,0,0,1,.56.46,16.7,16.7,0,0,1,.32,1.83.42.42,0,0,1-.25.46.36.36,0,0,1-.46-.17c-.38-.92-1.16-.64-1.87-.6a13.27,13.27,0,0,0-1.37.21,19.63,19.63,0,0,1,2.33,2.54.18.18,0,0,0,.17.11c1-.07,1,.67,1,1.3C149.94,70.46,149.91,70.5,149.91,70.57Z"/>
              <path class="cls-34" d="M146,60.54a1.2,1.2,0,0,0-.56.63,1.62,1.62,0,0,0,1.16-.07A1.27,1.27,0,0,0,146,60.54Z"/>
            </g>
            <path class="cls-19" d="M150.33,50.79c1.31.21,2.23.32,3.57.53.14,0,.14.32-.28.25l-3-.39-2.26-.29c-.07,0-.43-.1-.39.68,0,.31.18,1.8.81,1.69h.6c.35,0,4,0,4.06-.07l5.76.18c.25.14,0,.39-.28.39-2.12,0-9.54-.25-11.66-.25h-2.47c-10.1.25-10.1.21-10.1-.14l9.78-.14c.28,0,1.73.21,1.66-.39s0-1.35-.07-1.84c0-.25.18-.49-.28-.53s-4.66-1-5.9-1.06a.25.25,0,0,1-.25-.25h0c.32-.24,5.69.89,6,.92C147.26,50.33,148.78,50.58,150.33,50.79Z"/>
            <g>
              <g>
                <circle class="cls-35" cx="115.68" cy="79.96" r="0.46"/>
                <circle class="cls-28" cx="115.68" cy="79.96" r="0.25"/>
              </g>
              <g>
                <path class="cls-35" d="M115.54,80.32l-.07,3.35s.07.71-.46.64a1.29,1.29,0,0,1-.92-1.2l.42.1-.42-1-.64.81h.29a1.81,1.81,0,0,0,.63,1.34,7.34,7.34,0,0,1,1.45.81,2,2,0,0,1,1.2-.74,1.34,1.34,0,0,0,.71-1.38h.35l-.64-.81-.35.81h.28s.29,1.17-.88,1.2a.52.52,0,0,1-.53-.56l-.1-3.36h-.32Z"/>
                <line class="cls-36" x1="114.97" y1="80.99" x2="116.38" y2="80.99"/>
              </g>
            </g>
            <path class="cls-19" d="M121.54,53.4c-.21,0-.21-.21-.21-.35V51.14c0-.39.14-.49.49-.42.82.1,1.63.21,2.41.35l.88.14c1,.14,2,.32,3,.46.25,0,1.41.18,1.41,0a.28.28,0,0,0-.24-.29h0a28.63,28.63,0,0,1-3.92-.53l-.74,0-.92-.14c-.46-.07-.92-.11-1.34-.21-1.52-.25-6.25-1-7.81-1.06-.14,0-.28,0-.1.21l5.47.74c.25,0,.25.21.25.39V53c0,.39-.18.46-.46.42h-3.43s-2-.25-1.87,0a19,19,0,0,0,2.9.25c4,0,10.24.14,14.2.14,0-.49-.39-.28-.57-.28-1.2,0-4.7-.14-5.9-.14Z"/>
          </g>
          <g>
            <line class="cls-37" x1="104.28" y1="140.8" x2="105.03" y2="139.5"/>
            <line class="cls-38" x1="106.49" y1="136.96" x2="126.24" y2="102.77"/>
            <line class="cls-37" x1="126.97" y1="101.5" x2="127.72" y2="100.2"/>
          </g>
          <path id="shine3" class="cls-39" d="M80.5,143.54l.11.72A5.51,5.51,0,0,0,91,145.85l.27-.54a1,1,0,0,1,1.85.58l-.15,1a5.5,5.5,0,0,0,9.42,4.65l.48-.5a1,1,0,0,1,1.59,1.12l-.59,1.2a5.51,5.51,0,0,0,7.53,7.31l.83-.45a1,1,0,0,1,1.17,1.55l-1.11,1.15a5.51,5.51,0,0,0,4.87,9.27l1.26-.21a1,1,0,0,1,.62,1.84l-1.49.78a5.51,5.51,0,0,0,1.68,10.32l1.54.25a1,1,0,0,1,0,1.94l-1.54.25a5.5,5.5,0,0,0-1.68,10.31l1.49.78a1,1,0,0,1-.62,1.85l-1.26-.22a5.51,5.51,0,0,0-4.87,9.27l1.11,1.15a1,1,0,0,1-1.17,1.55l-.83-.44a5.51,5.51,0,0,0-7.53,7.3l.59,1.2a1,1,0,0,1-1.59,1.12l-.48-.5A5.51,5.51,0,0,0,93,225.39l.15,1a1,1,0,0,1-1.85.58l-.27-.54a5.51,5.51,0,0,0-10.4,1.6l-.11.71a1,1,0,0,1-1.94,0l-.11-.71a5.51,5.51,0,0,0-10.4-1.6l-.27.54a1,1,0,0,1-1.85-.58l.15-1a5.51,5.51,0,0,0-9.43-4.66l-.47.5a1,1,0,0,1-1.59-1.12l.59-1.2a5.51,5.51,0,0,0-7.53-7.3l-.84.44a1,1,0,0,1-1.17-1.55l1.12-1.15a5.51,5.51,0,0,0-4.87-9.27l-1.26.22a1,1,0,0,1-.62-1.85l1.49-.78a5.5,5.5,0,0,0-1.69-10.31l-1.53-.25a1,1,0,0,1,0-1.94l1.53-.25A5.51,5.51,0,0,0,41.5,174.6L40,173.82a1,1,0,0,1,.62-1.84l1.26.21a5.51,5.51,0,0,0,4.87-9.27l-1.12-1.15a1,1,0,0,1,1.17-1.55l.84.45a5.51,5.51,0,0,0,7.53-7.31l-.59-1.2A1,1,0,0,1,56.18,151l.47.5a5.51,5.51,0,0,0,9.43-4.65l-.15-1a1,1,0,0,1,1.85-.58l.27.54a5.51,5.51,0,0,0,10.4-1.59l.11-.72A1,1,0,0,1,80.5,143.54Z"/>
          <path class="cls-40" d="M198.12,233.08c-1.26,1.5-4.56,5.06-8.65,9.4-9.31,9.86-22.73,23.73-25.59,26.48l-2.61-1.75-6.47-4.33a8.14,8.14,0,0,1-6,0l0,.06-48.32-13.78-4-1.14a8.61,8.61,0,0,1-6.62-8,8.26,8.26,0,0,1,.15-1.84,7.57,7.57,0,0,1,2.69-4.46,8,8,0,0,1,6.95-1.52L120,237.11l.13,0L104.3,221.23,73,189.82a8.28,8.28,0,0,1-1.38-10.15,2.39,2.39,0,0,1,.13-.21,7.29,7.29,0,0,1,1-1.2c.16-.16.32-.3.48-.44a7.92,7.92,0,0,1,7.16-1.52,8.65,8.65,0,0,1,3.91,2.28L104.57,199l-.09-.21c-1.11-2.59-.31-6,2.18-8.5a8.49,8.49,0,0,1,6.7-2.6,5.78,5.78,0,0,1,3,1.12,3.91,3.91,0,0,1,.59.5l2.93,2.94,0,0,.18-.18-.49-.5a5.73,5.73,0,0,1-1.64-3.75,7.55,7.55,0,0,1,.42-3,9.27,9.27,0,0,1,2.22-3.51,8.6,8.6,0,0,1,6.2-2.63,5.86,5.86,0,0,1,4.08,1.66l5.85,5.87a4.2,4.2,0,0,1-.58-.71h0a6.39,6.39,0,0,1-.83-5.37,9,9,0,0,1,2.42-4.18,9.25,9.25,0,0,1,3.06-2.05,6.54,6.54,0,0,1,7.22,1.08l40.08,43.93a8.44,8.44,0,0,1,2.37,7.31c0,.09,0,.17-.05.26l1.36,1.18,1.74,1.52.16.14,0,0Z"/>
          <polygon class="cls-41" points="216.15 242.56 205.07 255.67 178.7 286.86 158.85 270.07 161.27 267.21 185.21 238.88 186.58 237.26 186.59 237.26 193.23 229.4 193.51 229.06 196.29 225.78 196.45 225.92 216.15 242.56"/>
          <rect class="cls-26" width="254" height="305"/>
          <path class="cls-42" d="M193.7,229.23l-3.56,4.17-3.89-4.15c-5.9-13.56-19.37-32.56-45.46-55.47a6.54,6.54,0,0,1,7.22,1.08l40.08,43.93a8.44,8.44,0,0,1,2.37,7.31c0,.09,0,.17-.05.26l1.36,1.18,1.74,1.52.16.14Z"/>
          <path class="cls-42" d="M139.88,189.12,126.8,178.57a5.86,5.86,0,0,1,4.08,1.66l5.85,5.87a4.2,4.2,0,0,1-.58-.71Z"/>
          <path class="cls-42" d="M123.88,196.12l-10.52-8.48a5.78,5.78,0,0,1,3,1.12,3.91,3.91,0,0,1,.59.5l2.93,2.94,0,0Z"/>
          <polygon class="cls-43" points="216.22 242.48 216.15 242.56 205.07 255.67 189.47 242.48 185.21 238.88 186.58 237.26 193.23 229.4 193.51 229.06 196.29 225.78 196.36 225.7 196.52 225.83 216.22 242.48"/>
        </g>
      </g>
    </g>
  </g>
</svg>
