<svg xmlns="http://www.w3.org/2000/svg" width="168.4" height="309.14" viewBox="0 0 168.4 309.14">
  <defs>
    <style>
      .cls-1 {
        fill: #96604b;
      }

      .cls-2 {
        fill: #020202;
      }

      .cls-3 {
        fill: #854623;
      }

      .cls-4 {
        fill: #050505;
      }

      .cls-5 {
        fill: #74371a;
      }

      .cls-6 {
        fill: #622e14;
      }

      .cls-7 {
        fill: #d49727;
      }

      .cls-18, .cls-24, .cls-25, .cls-32, .cls-37, .cls-38, .cls-39, .cls-8 {
        fill: none;
      }

      .cls-9 {
        fill: #1b1b15;
      }

      .cls-10 {
        fill: #803a1a;
      }

      .cls-11 {
        fill: #b5811c;
      }

      .cls-12 {
        fill: #23231d;
      }

      .cls-13 {
        fill: #f9f9f8;
      }

      .cls-14 {
        fill: #484138;
      }

      .cls-15 {
        fill: #292927;
      }

      .cls-16 {
        fill: #070700;
      }

      .cls-17 {
        fill: #33332d;
      }

      .cls-18 {
        stroke: #33332d;
        stroke-width: 1.27px;
      }

      .cls-18, .cls-24, .cls-25, .cls-26, .cls-27, .cls-32, .cls-37, .cls-38, .cls-39 {
        stroke-miterlimit: 10;
      }

      .cls-19 {
        fill: #87807a;
      }

      .cls-20 {
        fill: #9b9795;
      }

      .cls-21 {
        fill: #bcbbbb;
      }

      .cls-22 {
        fill: #c99561;
      }

      .cls-23 {
        fill: #a57850;
      }

      .cls-24 {
        stroke: #b58457;
      }

      .cls-25 {
        stroke: #896245;
      }

      .cls-26 {
        fill: #161616;
      }

      .cls-26, .cls-27, .cls-37, .cls-38 {
        stroke: #000;
      }

      .cls-27 {
        fill: #262626;
      }

      .cls-28 {
        fill: #171a1b;
      }

      .cls-29 {
        fill: #212020;
      }

      .cls-30 {
        fill: #272828;
      }

      .cls-31 {
        fill: #444;
      }

      .cls-32 {
        stroke: #f4eed7;
        stroke-linecap: round;
        stroke-width: 4px;
      }

      .cls-33 {
        fill: #f7d854;
      }

      .cls-34 {
        fill: #f4eed7;
      }

      .cls-35 {
        fill: #f9a24b;
      }

      .cls-36 {
        fill: #ef6a30;
      }

      .cls-38 {
        stroke-dasharray: 3.05 3.05;
      }

      .cls-39 {
        stroke: #ffd845;
        isolation: isolate;
      }

      .cls-40 {
        fill: #ffe2cf;
      }

      .cls-41 {
        fill: #fff;
      }
    </style>
  </defs>
  <title>game-explainer</title>
  <g id="Lag_2" data-name="Lag 2">
    <g id="Lag_1-2" data-name="Lag 1">
      <g>
        <path class="cls-1" d="M67.69,20V17.8H69.6V20l.14.29"/>
        <path class="cls-2" d="M53.35,35.36,36.4,35s-4.84,9.54,1.48,14.23l17.2,3S45.69,47.05,53.35,35.36Z"/>
        <path class="cls-1" d="M43.5,20.52c-.25.29-.57-.24-.78.11-.21.18-.39.1-.57-.07a25.6,25.6,0,0,0-.21-3.15H43.6"/>
        <path class="cls-1" d="M101.21,31.86c0,.25,0,.39,0,.67-.39.21-4.59,3.36-5,3.57-.25-.18-.11-.64-.39-.78C95.77,35.29,100.54,32.25,101.21,31.86Z"/>
        <g>
          <path class="cls-1" d="M87.54,41.82,84.44,44h0a.82.82,0,0,0,.07-.89s-.14.07-.25.15v0a4.23,4.23,0,0,0,.67-.35c.95-.64,2.37-1.73,3-2.12C88.36,41.12,87.9,41.61,87.54,41.82Z"/>
          <path class="cls-1" d="M84.47,44c-.25-.25-.1-.53-.18-.74.11-.08.22-.11.25-.15A.88.88,0,0,1,84.47,44Z"/>
        </g>
        <path class="cls-1" d="M84.47,44a3.7,3.7,0,0,1-1.66,1.09c-.25-.85.92-1.55,1.48-1.83C84.33,43.45,84.22,43.73,84.47,44Z"/>
        <path class="cls-1" d="M72.6,55c2.09.32,6.75,1,7.28,1.06a0,0,0,0,1,0,0h0a3.63,3.63,0,0,1-.14.46l0,0c-.28-.07-2.3-.5-2.76-.53-.07,0-6.5-1-6.78-1.06-.46-.11-.67,0-.63.53,0,1.55,0,3.78,0,5.37,0,0,0,0,0,0-.61,0-1.21-.25-1.81-.25,0,0,0,0,0,0V55.21c0-.25.1-.57-.35-.64-1.17-.14-3.75-.63-3.89-.63h0c-1.13-.14-3.57-.53-3.67-.53-.32,0-2.3-.25-2.23-.64,0,0,0,0,0,0,1.9.28,3.81.53,5.72.81,2.86.42,5.76.85,8.62,1.31A3.11,3.11,0,0,0,72.6,55Z"/>
        <path class="cls-1" d="M92.21,50.79c0,.82,0,1.66,0,2.51a1,1,0,0,1-.77.43V51.08C91.64,50.72,91.92,50.79,92.21,50.79Z"/>
        <path class="cls-1" d="M37.67,49.31c-.14,0-.14-.25,0-.25,1.48.25.74.25,2.22.5s10.92,1.73,11.94,1.91c.07,0,3.25.67,3.32.67s.14.07.14.14-3.24-.39-3.32-.39c-1.06-.14-7.31-1.2-7.38-1.2-.53-.14-.63.07-.63.56,0,1.1.07,2.44.07,3.54a2.09,2.09,0,0,1-1.31,0c0-1.1,0-2.72,0-3.82,0-.42-.11-.64-.57-.67A41.72,41.72,0,0,1,37.67,49.31Z"/>
        <path class="cls-1" d="M42.72,59.48c0-1.52,0-3,0-4.55.42-.46.77.1,1.2,0v4.52Z"/>
        <path class="cls-3" d="M102.56,50.19v1.45a.07.07,0,0,0,0,.11v6.71h0a4.23,4.23,0,0,1-1.45,1.27,34.41,34.41,0,0,1-3.64,1.7,42.22,42.22,0,0,1-7.74,2.12,83.23,83.23,0,0,1-8.33,1.09c-2.72.25-5.44.42-8.16.46-3.75.07-7.49.11-11.23-.07-1.31-.07-2.65-.14-4-.18a23.54,23.54,0,0,1-2.37-.14c-1.66-.18-3.35-.32-5-.49-1.31-.14-2.65-.32-4-.46-1.48-.18-3-.5-4.48-.6-.08-.11-.18-.14-.25-.11l-1.2-.14a1.34,1.34,0,0,0-.74-.25,59.74,59.74,0,0,1-6.54-1.45c-.18,0-.39,0-.56-.07-1.17-.21-2.23-.74-3.4-.84-1.9-.71-3.88-1.28-5.75-2.09a1.78,1.78,0,0,0-.36-.14c-.28-.14-.49-.32-.38-.64s.38-.38.7-.31l.32.1c1.24.25,2.51.5,3.74.71,2.79.46,5.62.81,8.45,1.09l7.48.75c2.41.21,4.81.38,7.25.53,4,.21,7.94.42,11.93.53,4.14.1,8.31.14,12.44-.11,1.76-.11,3.5-.21,5.26-.42a2.24,2.24,0,0,0,1.73-1.2A7.51,7.51,0,0,1,85,56.38a20.83,20.83,0,0,1,3.71-1.52l13.46-5C102.52,49.73,102.56,49.91,102.56,50.19ZM73.7,63.51c2.58,0,5.12-.6,7.66-.81.32,0,.29.7.25.92-.11.63.21.74.74.7,1.63-.21,3.25-.32,4.84-.6a56.65,56.65,0,0,0,8-1.8,22.39,22.39,0,0,0,6.25-2.9c.32-.21.67-.42.67-.88V50.65c0-.32-.1-.35-.39-.24L96,52.52c-2.93,1.1-5.86,2.23-8.83,3.25a7.16,7.16,0,0,0-5.23,5.87,5.31,5.31,0,0,1-.77.17,74.64,74.64,0,0,1-8.94.64c-4.06.07-8.16.14-12.22-.07-2.09-.11-4.14-.11-6.22-.18-.78,0-1.59-.07-2.37-.14-2.36-.14-4.73-.32-7.1-.49a25.61,25.61,0,0,0-2.89-.25,7.18,7.18,0,0,0,1.73.35c3.18.5,6.36,1,9.57,1.24,3.46.32,6.92.6,10.39.64"/>
        <path class="cls-4" d="M75.25,11.55a6.58,6.58,0,0,1-3.35.85A4.67,4.67,0,0,1,69,11.06V11A2.6,2.6,0,0,0,70,9.18a9.59,9.59,0,0,0-.77-5.68l.21,0A1.36,1.36,0,0,0,70,4c1.59,1.06,2.48.63,3.85.21A25.83,25.83,0,0,0,77,2.83a7.22,7.22,0,0,1,4.1-1.06,4.15,4.15,0,0,1,2.4,1.16.69.69,0,0,1,.25.5v7.48c-.42-.14-.64-.56-1-.67A3.21,3.21,0,0,0,81,9.61a1.89,1.89,0,0,0-.67,0A8.76,8.76,0,0,0,76.45,11"/>
        <path class="cls-2" d="M100,33.17l1.13-.67c-.07.53-.17,1.06-.24,1.59a.72.72,0,0,0-.07.56c0,.21-.11.43-.15.64a42.69,42.69,0,0,0-.38,8.23c0,.21,0,.42.07.63l-.11.07.11,0,.14.71a11.79,11.79,0,0,0,.6,3c.1.36,0,.43-.32.53-1.31.36-2.61.78-3.92,1.13l-.32.14c-1.41.43-2.86.75-4.2,1.31a1,1,0,0,0-.78.18l-6.5,1.91c-.1,0-.21,0-.25.1l-.67.18-.91.28a.56.56,0,0,1-.71-.35.26.26,0,0,1,0-.18A17.32,17.32,0,0,1,82,50.48,10.53,10.53,0,0,1,82.85,45c.53-.39,1.37-.53,1.13-1.49,0-.21.07-.35.31-.39.08.25-.07.53.22.78,1-.7,2-1.45,3.11-2.15.35-.25.28-.57.24-.89a.51.51,0,0,1,.32-.42c.25.18,0,.49.25.74.88-.63,1.76-1.27,2.68-1.84.5-.31.85-.63.74-1.27a.19.19,0,0,1,.18-.24h0c0,.07.07.1.07.17,0,.57.14.6.56.25.78-.6,1.56-1.13,2.37-1.66a1.06,1.06,0,0,0,.6-1.24c.07-.17.18-.35.42-.28,0,.21-.1.5.11.6s.39-.07.56-.21c.78-.53,1.31-1.06,2.12-1.59l1.13-.74"/>
        <path class="cls-5" d="M100.72,61.78a32.06,32.06,0,0,1-1.8,6c-.18.46-.39.88-.57,1.34a5.24,5.24,0,0,1-2.75,3.07c-.39.22-.53.39-.36.85.71,1.87,1.31,3.82,2,5.8h-2.4c.07-.46-.64-.75-.43-1.1s.78-.32,1.2-.46c.14,0,.29,0,.25-.21s-.21-.18-.35-.14c-.46.1-.89.24-1.34.35s-.71-.28-.82-.6.32-.25.53-.32.64-.17,1-.24c.1,0,.21-.11.21-.22s-.18-.17-.28-.17a1,1,0,0,0-.57.14,6.41,6.41,0,0,1-1.09.25c-.43.07-.64-.25-.71-.57s.32-.32.53-.35l.88-.25c.14,0,.36,0,.32-.21s-.25-.18-.42-.14-.6.14-.89.24c-.6.22-1.13.22-1.48-.42a.53.53,0,0,0-.64-.21c-1.2.35-2.36.7-3.6,1s-2.79.53-4.17.88c-1.76.42-3.57.67-5.37,1-2.5.43-5,.67-7.56,1-2.36.24-4.69.63-7.06.67-.21,0-.46-.11-.57.21H54.55c-.07-.28-.28-.21-.49-.21s-.67,0-1,0A49.09,49.09,0,0,1,46.64,77a.71.71,0,0,1-.56-.5c1.09.11,2.15.43,3.21.64a34,34,0,0,0,5.3.53c1.84.11,3.71,0,5.58,0h.53c2-.25,4-.18,6-.53.82-.15,1.63-.08,2.44-.15,1.63-.17,3.25-.38,4.88-.63,2-.28,4-.57,6-.88,1.51-.25,3-.61,4.52-.85a26.72,26.72,0,0,0,3.81-.89c1.45-.45,2.9-.84,4.31-1.37a17,17,0,0,0,4.45-2.65,1.6,1.6,0,0,0,.43-.53c.35-.71.67-1.45.95-2.19A19,19,0,0,0,99.52,64a4.75,4.75,0,0,1,.53-2c.1-.18,0-.28-.21-.32C100.3,61,100.47,61.53,100.72,61.78Z"/>
        <path class="cls-6" d="M62.43,78.81c.07-.32.35-.22.57-.22a67.66,67.66,0,0,0,7.06-.67c2.51-.28,5-.56,7.56-1,1.8-.28,3.6-.53,5.37-1,1.38-.35,2.79-.56,4.17-.88,1.2-.28,2.4-.63,3.6-1a.53.53,0,0,1,.63.21,1.16,1.16,0,0,0,1.49.43,7.26,7.26,0,0,1,.88-.25c.18,0,.39-.1.43.14s-.18.18-.32.21c-.29.07-.57.18-.89.25s-.6-.07-.53.35.29.64.71.57.74-.14,1.1-.25a3.53,3.53,0,0,1,.56-.14c.14,0,.28,0,.28.18s-.1.17-.21.21a8.32,8.32,0,0,1-1,.25c-.21.07-.6,0-.53.32s.32.7.81.6.88-.25,1.34-.36c.14,0,.32-.07.36.14s-.15.18-.25.22c-.43.14-1,.1-1.2.45s.49.64.42,1.1c-1.8,0-3.6,0-5.4,0H65.57c-.28,0-.56,0-.84,0,0-.07-.07-.07-.15,0H63.14c0-.07-.07-.07-.14,0Z"/>
        <path class="cls-7" d="M24.67,54.36c.35-1.52,2.72-1.62,3.32-1.52.25,0,9.25,1.17,10.7,1.27.14,0,8.8,1.06,9.22,1l.46,0a2.63,2.63,0,0,1,2.83,2.55,12,12,0,0,0,.28,1.55c.07.32,0,.74.49.81l.22.07c.53,0,16.74.32,17.34.32a6.27,6.27,0,0,0,1.62,0h2.51c.46,0,7.42-.63,8.09-1.3,0,0,2.9-3,3.25-3.18a56.88,56.88,0,0,1,5.48-2.12c.38-.14,2.26-.82,2.4-.85L97,51.47l.21,0,5.44-2c.1,0,.28-.1.35,0a.26.26,0,0,1-.07.35,0,0,0,0,0,0,0c-.28.1-.24.35-.31.6,0-.32,0-.46-.46-.32-4.49,1.66-9,3.28-13.46,4.94a17.22,17.22,0,0,0-3.71,1.52,7.59,7.59,0,0,0-2.65,2.72,2.17,2.17,0,0,1-1.73,1.2c-1.77.18-3.5.32-5.26.43-4.14.24-8.3.21-12.44.1s-7.94-.32-11.94-.53c-2.4-.14-4.83-.28-7.24-.53s-5-.46-7.48-.74c-2.83-.32-5.62-.63-8.45-1.09-1.27-.22-2.5-.46-3.74-.71m5.79.35,8.37-1.2v1.8c0,.25.07.39.36.43.77.1,1.52.17,2.29.21.25,0,.43,0,.43-.35v-3.5c0-.21,0-.39-.32-.39-.78-.07-1.52-.18-2.3-.25-.35,0-.46.07-.46.43,0,.56,0,1.09,0,1.66Zm10.46,1h0v1.59c0,.21,0,.46.32.46l1.9.1c.18,0,.29,0,.25-.25-.18-.84-.28-1.73-.49-2.57a1.92,1.92,0,0,0-1.49-1.38c-.32-.11-.49,0-.49.39,8.4-.64,8.37-.11,8.37.46ZM41.62,57v1.8c0,.24.08.39.36.42a22.4,22.4,0,0,0,2.29.21c.25,0,.43,0,.43-.35v-3.5c0-.21,0-.39-.32-.39-.78-.07-1.52-.17-2.3-.24-.35,0-.46.07-.46.42Zm3.43.38v1.81c0,.24.07.38.35.42a22.33,22.33,0,0,0,2.3.21c.25,0,.42,0,.42-.35V56c0-.21,0-.39-.31-.39-.78-.07-1.52-.17-2.3-.24-.35,0-.46.07-.46.42C45.09,56.27,45.05,56.83,45.05,57.36ZM34.6,56.16V58c0,.25.07.39.35.43.78.1,1.52.18,2.29.21.25,0,.43,0,.43-.35v-3.5c0-.21,0-.39-.32-.39-.78-.07-1.52-.17-2.3-.25-.35,0-.45.08-.45.43C34.63,55.07,34.6,55.63,34.6,56.16ZM31,55.77v1.81c0,.24.07.38.35.42a22.33,22.33,0,0,0,2.3.21c.24,0,.42,0,.42-.35v-3.5c0-.21,0-.39-.32-.39-.77-.07-1.52-.17-2.29-.24-.36,0-.46.07-.46.42C31.06,54.68,31,55.24,31,55.77Zm-3.43-.38v1.8c0,.24.07.39.35.42a22.33,22.33,0,0,0,2.3.21c.25,0,.42,0,.42-.35V54c0-.21,0-.39-.31-.39-.78-.07-1.52-.17-2.3-.24-.35,0-.46.07-.46.42Zm-.39-1.73c0-.36-.17-.46-.49-.36a1.91,1.91,0,0,0-1.52,1.27c-.25.82-.39,1.63-.57,2.44,0,.21.08.25.25.25.64,0,1.27,0,1.91-.07.32,0,.32-.21.32-.46,0-.5,0-1,0-1.52h0c0-.53,0-1,.07-1.55Z"/>
        <path class="cls-6" d="M46.15,78.73a10.87,10.87,0,0,1-7-2.86,6.4,6.4,0,0,1-1.45-2.26,55.78,55.78,0,0,0-4.94-9.71c.1-.14.21-.11.39,0,.81.43,1.13,1.31,1.83,1.81s.89,1.34,1.63,1.8c.21.17.25.46.39.63.32.36.35,1.06,1,1.1l.14.14a1,1,0,0,0,.14.63c.61.82,1.21,1.59,1.81,2.41a12.44,12.44,0,0,0,3.32,2.93,6.7,6.7,0,0,0,2.68,1.16.68.68,0,0,0,.57.5,52.31,52.31,0,0,0,6.42,1.59,4.68,4.68,0,0,0,1,0c.18,0,.43-.07.5.21"/>
        <path class="cls-6" d="M100.72,61.78c-.25-.25-.42-.78-.81-.14a1,1,0,0,0-.32.1,31.61,31.61,0,0,1-5,1.49,74.53,74.53,0,0,1-7.42,1.23c-2.22.22-4.48.53-6.71.64-1.17,0-2.3.21-3.46.21a19.67,19.67,0,0,0,2,.07c.21,0,.42,0,.46.29s-.11.21-.25.21c0-.29-.25-.25-.46-.25-.39,0-.78,0-1.2,0a4.53,4.53,0,0,0-1.8.14c-.18-.53-.6-.39-1-.39a30.16,30.16,0,0,0-3.92.14,20.21,20.21,0,0,0-3.22-.14.47.47,0,0,0-.49.25,23.48,23.48,0,0,0-3.15-.25c-.7-.07-1.51-.28-2,.5.21-.39,0-.39-.32-.39H58.58c.74-.32,1.52,0,2.26-.21-2.4,0-4.77-.29-7.13-.43-1.17-.07-2.3-.24-3.47-.32-1.83-.14-3.63-.45-5.44-.74a9.39,9.39,0,0,1-2.47-.53c1.52.11,3,.43,4.49.6,1.3.18,2.65.32,4,.46,1.66.18,3.36.36,5,.5.78.07,1.59.07,2.37.14,1.3.07,2.65.14,4,.18,3.75.17,7.49.14,11.23.07q4.08-.1,8.16-.46a83.46,83.46,0,0,0,8.34-1.1,42.3,42.3,0,0,0,7.74-2.12,34.66,34.66,0,0,0,3.6-1.69C101,60.47,100.93,61.14,100.72,61.78Z"/>
        <path class="cls-5" d="M36.61,67.47c-.74-.43-1-1.35-1.63-1.8s-1.06-1.42-1.83-1.81c-.18-.07-.29-.1-.39,0a25.75,25.75,0,0,0-3.18-3.57,26.67,26.67,0,0,1,3.39.85,3.7,3.7,0,0,0,.57.07c-.64.18-.53.46-.15.85a3.61,3.61,0,0,1,.36.46c1,1.2,1.59,2.68,2.47,4C36.4,66.72,36.79,67,36.61,67.47Z"/>
        <path class="cls-7" d="M102.56,54.15V53.09A2.91,2.91,0,0,1,102.56,54.15Z"/>
        <path class="cls-7" d="M102.56,58.11v-.68"/>
        <path class="cls-7" d="M102.56,51.75a.07.07,0,0,1,0-.11s0,.07,0,.11Z"/>
        <line class="cls-8" x1="102.59" y1="58.53" x2="102.56" y2="58.53"/>
        <path class="cls-5" d="M63,78.81c0-.08.07-.08.14,0Z"/>
        <path class="cls-5" d="M64.55,78.81c0-.08.07-.08.14,0l-.07,0Z"/>
        <path class="cls-2" d="M62.5,19.85c-.78-.07-1,.11-1.17.64s-1.09,2.86-1.3,3.42c0,0,0,.07,0,.14s-.14,1.84-.17,2.62c0,.14.07.53.1.67s.07.25.11.53c0,.07.92,2.08,1.06,2.47s.42.36.56.57c.39.07,4.14.63,4.24.67.32-.25,1.06.28,1.38.32l4.56.63,3.85.64A.25.25,0,0,0,76,33a14.85,14.85,0,0,1-1-4.06c-.07,0-.18-.07-.18-.14s.07-.11.18-.14V27.06c-.07,0-.18,0-.18-.14s.11-.07.18-.15c0-.24,0-.53.07-.77a23.58,23.58,0,0,1,1.17-4.38L77,20l-7.27,0H67.83a7.92,7.92,0,0,1-1,0"/>
        <path class="cls-1" d="M91.25,38.5a.57.57,0,0,0,.32-.53c0-1.13.11-2.36,0-3.46a14.26,14.26,0,0,1,0-1.73c0-.32,0-.39-.39-.39,0,0-.1-.1-.1-.14s.07-.14.17-.14h1.52c.11,0,.14,0,.14.14s0,.14-.14.14h-.14c-.28,0-.14.25-.14.78,0,.25,0,1,0,1.31s-.07.77-.11,1.16v1.52c0,.39.11.46.46.25.92-.67,1.88-1.31,2.83-2a1.15,1.15,0,0,1-.6,1.24,20.18,20.18,0,0,0-2.37,1.66c-.42.31-.6.31-.56-.25,0-.07,0-.11-.07-.18a.24.24,0,0,0-.25.21v0c.1.63-.25,1-.74,1.27-.92.57-1.8,1.24-2.69,1.84-.21-.25,0-.57-.25-.74a17.18,17.18,0,0,0,2.62-1.7"/>
        <path class="cls-1" d="M69,1.94v.39c0,.39-.15.85.38,1.06h0V3.5s0,0,0,.07l-.21,0a.15.15,0,0,1-.11,0,.34.34,0,0,0,0,.17V13.81h-.85V2.72c0-.18.1-.42-.25-.42a6.49,6.49,0,0,0,.6-2.3A10.3,10.3,0,0,1,69,1.94Z"/>
        <path class="cls-3" d="M68.19,13.81H69l2.75,0v.39l-6,0a.48.48,0,0,0-.42.14l-.36.11c0-.5.18-.71.71-.67C66.56,13.85,67.38,13.81,68.19,13.81Z"/>
        <path class="cls-9" d="M78.11,47.09c-.21-.11-.17-.22,0-.32Z"/>
        <path class="cls-9" d="M78.11,48.43c-.21-.11-.21-.21,0-.32Z"/>
        <path class="cls-10" d="M37.67,69.2l.67.77c.6.82,1.2,1.59,1.8,2.41a12.75,12.75,0,0,0,3.32,2.93,6.74,6.74,0,0,0,2.69,1.16c1.09.11,2.15.43,3.21.64a34,34,0,0,0,5.3.53c1.84.11,3.71,0,5.58,0h.53c2-.24,4-.17,6-.53.82-.14,1.63-.07,2.44-.14,1.63-.17,3.25-.38,4.88-.63,2-.28,4-.57,6-.89,1.51-.24,3-.6,4.52-.84a26.72,26.72,0,0,0,3.81-.89c1.45-.46,2.9-.84,4.31-1.37a17,17,0,0,0,4.45-2.65,1.6,1.6,0,0,0,.43-.53c.35-.71.67-1.45,1-2.19a19,19,0,0,0,1.06-3.11,4.91,4.91,0,0,1,.53-2c.11-.18,0-.28-.21-.32a1.35,1.35,0,0,0-.32.11,31.57,31.57,0,0,1-5,1.48,74.56,74.56,0,0,1-7.42,1.24c-2.22.21-4.48.53-6.71.63-.6,0-1.2.08-1.84.15-1.59,0-3.6.14-3.81.14-1,0-1.91,0-2.86,0-2.09-.1-7-.1-8-.17a3.07,3.07,0,0,0-1.27.14c-2.51,0-6.82-.39-9-.53-1.17-.07-2.3-.25-3.47-.32-1.83-.14-3.63-.46-5.44-.74a9.8,9.8,0,0,1-2.47-.53.21.21,0,0,0-.25-.11,4.65,4.65,0,0,0-1.2-.14,1.34,1.34,0,0,0-.74-.25,56.6,56.6,0,0,1-6.57-1.45c-.63.18-.53.46-.14.85a3.5,3.5,0,0,1,.35.46c1,1.17,3,5.34,3.89,6.61"/>
        <path class="cls-11" d="M81.89,61.6a7.16,7.16,0,0,1,5.23-5.86c3-1,5.9-2.16,8.83-3.25,1.94-.71,3.89-1.41,5.79-2.12.29-.11.39-.07.39.25v7.49c0,.46-.35.67-.67.88a22.67,22.67,0,0,1-6.25,2.9,63.35,63.35,0,0,1-8,1.8c-1.59.28-3.21.39-4.84.6-.53.07-.85,0-.74-.71a.42.42,0,0,0-.07-.42.18.18,0,0,1,0-.25A3.06,3.06,0,0,0,81.89,61.6Zm17.42-3.81s.07,0,.07,0l.1-.07h0c.57-.07,1-.53,1.42-.74a1.3,1.3,0,0,0,.7-1.66c-.07-.14.32-.67-.17-.39a20.64,20.64,0,0,0-1.81,1.17h0l-2.12.84a.37.37,0,0,0-.21.25,4.56,4.56,0,0,0,0,1.38.17.17,0,0,0,.22.11h0a9,9,0,0,0,1.55-.71s.07-.07.07-.11.14,0,.18,0ZM90.9,56.23h0c.95-.07.95-.07.92-.95h0c0-.81,0-.85-.78-.53-.1,0-.18.11-.25.14h0c-1.13.32-2.19.81-3.32,1.17-.32.1-.25.32-.25.53s.18.28.39.28a11.73,11.73,0,0,0,1.59-.28h0a6.59,6.59,0,0,0,1.42-.25h0a.33.33,0,0,0,.25-.11Zm-2.65,1h0c-1.2,0-1.31.1-1.06,1.06h0l0,0s0,.07,0,.11c-.35.95.35.49.71.49.14,0,.28,0,.39-.1h0l1.59-.25c.45-.11,1-.18,1.41-.28.21,0,.56,0,.53-.36s.28-1-.18-1.3c0,0-.1,0-.14,0l-2.37.46-.67.07A.22.22,0,0,0,88.25,57.26ZM83.69,62.2c-1.55,0-1.66.07-1.66,1.45,0,.25.18.28.36.25a6.5,6.5,0,0,0,.81-.14h0a7.09,7.09,0,0,0,1.44-.18c.53-.07,1-.1,1.56-.18.17,0,.42,0,.42-.31,0-.43.14-.89-.1-1.28,0,0-.18,0-.29.08H86.2a3.84,3.84,0,0,0-1.13.1Zm10.88-8.65h0a15.8,15.8,0,0,0-2.12.67c-.1,0-.24.07-.24.21,0,.46-.14,1,.07,1.38a.21.21,0,0,0,.21.11,23.47,23.47,0,0,0,3-.82c1.48-.49,1.48-.49,1.41-2V53c0-.28-.07-.42-.39-.28-.56.24-1.16.46-1.73.7,0,0,0,0,0,0ZM85.71,59.8h0a25.72,25.72,0,0,0-2.76.25c-.21,0-.32.1-.32.39a3.12,3.12,0,0,1-.28,1c-.17.38,0,.49.28.46l1.63-.22a3.31,3.31,0,0,0,1.31-.17s0,0,.07,0c1-.14,1.06-.14,1-1h0c0-.85,0-.85-.68-.74-.07,0-.17,0-.24.1Zm14.44-1.73v-.14c-.91.42-1.8.81-2.72,1.24-.07,0-.14.07-.14.1a2.62,2.62,0,0,0,.07,1.06c.11.25.39.07.64-.1a0,0,0,0,0,0,0A21.68,21.68,0,0,0,100.9,59a1.52,1.52,0,0,0,.81-1.73.16.16,0,0,0-.21-.14s-.07,0-.11,0c-.28.24-.53.56-.81.81a.13.13,0,0,1-.07,0C100.37,58,100.19,58,100.15,58.07ZM83.59,59.52h0a10.07,10.07,0,0,0,2.72-.32c.14,0,.32,0,.32-.25a3.85,3.85,0,0,0-.1-1.41c-.08-.21-.57.14-.92.11a1.16,1.16,0,0,0-.32,0c-1.31-.1-1.7.81-2.26,1.66a.17.17,0,0,0,0,.25.15.15,0,0,0,.11,0C83.38,59.59,83.48,59.52,83.59,59.52Zm12.33.25s0,0-.07,0c-1.13.21-2.23.71-3.4.88a.33.33,0,0,0-.24.5,1.34,1.34,0,0,1,0,.49c-.07.46,0,.64.35.53s1-.24,1.48-.39h0A15,15,0,0,0,96.48,61c.11,0,.25-.07.25-.14.1-.46.25-1,0-1.31s-.56,0-.84.18ZM93.27,60h0c.88-.21,1.73-.46,2.58-.74,1-.35,1-.32,1-1.34,0-.57,0-.85-.67-.53-.35.14-.74.28-1.1.39-.74.21-1.48.42-2.22.56-.57.11-.71.39-.71.92.07,1.1,0,1.1,1.1.74Zm4.16-5.19s-.07,0-.1.07c-.25.28.07.74,0,1.06-.11.6.1.46.53.25A21.52,21.52,0,0,0,101,54.64a1.56,1.56,0,0,0,.74-1.69c0-.28-.11-.35-.35-.18-.78.5-1.59,1-2.37,1.42,0,0,0,0-.07,0a8.29,8.29,0,0,0-1.49.6Zm-8.61,4.45h-.07a8.83,8.83,0,0,0-1.35.14.33.33,0,0,0-.35.32,5.41,5.41,0,0,0,0,1.34.22.22,0,0,0,.17.14,17,17,0,0,0,3.36-.56,1.44,1.44,0,0,0,1.13-1.24c0-.67-.14-.74-.53-.67Zm3.39-2.22v.07c0,1.23,0,1,.92.77s1.76-.49,2.64-.77c1.1-.32,1.21-.53,1.1-1.7,0-.35-.14-.35-.42-.25a29.91,29.91,0,0,1-3.54,1.06c-.53.11-.88.29-.7.82Zm5.05-3.82v0c0,.24.39.42.39.53-.07.53-.22.39.24.14s.75-.07,1.1-.25a12.41,12.41,0,0,0,2.19-1.45,1.09,1.09,0,0,0,.46-1.23c-.14-.29-.46.21-.71.28-.92.32-1.83.88-2.79,1.2-.63.21-1.09.07-.88.74Zm-5.48,8.41v-.11c.18-.67-.1-.74-.7-.6A18.3,18.3,0,0,1,88,61.5c-.81.07-.92.46-.88,1.13s.24.63.91.42a14,14,0,0,1,2.76-.53c.71,0,1.2-.18,1-.88Zm-6.25-4.81c-.07.08-.1.18,0,.25a.12.12,0,0,0,.17.07,6.53,6.53,0,0,1,.71-.07c.32,0,.28-.28.28-.49s0-.29-.21-.21-.64.31-.92.45Z"/>
        <path class="cls-7" d="M81.89,61.6c-.1.53.11,1.1-.39,1.49-2.54.21-5.22.42-7.8.42H63.07c-3.47,0-6.93-.32-10.39-.64-3.21-.28-6.39-.74-9.57-1.23.35-.25.78,0,1.16-.11,2.37.18,23.81,1,27.91.89a70.72,70.72,0,0,0,8.94-.64C81.36,61.74,81.61,61.67,81.89,61.6Z"/>
        <path class="cls-11" d="M44.27,61.5c-.38.07-.81-.14-1.16.1a7.18,7.18,0,0,1-1.73-.35A25.61,25.61,0,0,1,44.27,61.5Z"/>
        <path class="cls-6" d="M42,63.09c-.42.28-.81.1-1.2-.14Z"/>
        <path class="cls-12" d="M100.33,44.15a.07.07,0,0,1,0,.11l-.1,0Z"/>
        <path class="cls-13" d="M38.2,27.87l-.07.14,0,0a.22.22,0,0,1,.11-.25h0Z"/>
        <path class="cls-2" d="M75,35.15H65.57c-.67,0-5,0-6.57,0H57.48A19,19,0,0,0,55.9,38.5l-.11.21a1,1,0,0,1-.18.53c-.1.36-.17.71-.28,1.06a5.5,5.5,0,0,1-.21,1l-.21,1.59-.07.67a14.47,14.47,0,0,0,.49,4.77l.14.63.07.25c.28.67.6,1.31.89,2l.21.32,0,0,.21.32.25.39.39.56c1.91.28,3.85.53,5.76.81,2.86.43,5.76.85,8.62,1.31l.7.11c2.23.35,4.42.7,6.64,1a1.51,1.51,0,0,0,.6,0c0-.14-.07-.25-.1-.39s-.14-.17-.11-.24A9.64,9.64,0,0,1,79,53.48a7.28,7.28,0,0,1-.42-1.91c0-.6-.32-1.13-.25-1.66s-.21-1-.14-1.48c-.21-.11-.21-.21,0-.32v-1c-.21-.11-.18-.22,0-.32.1-1.06.21-2.12.32-3.15a39.68,39.68,0,0,1,1.73-6.07c.35-.74.74-1.49,1.09-2.23"/>
        <path class="cls-6" d="M71.83,14.38c-.18.17-.07.46-.18.63-.11-.42-.35-.53-.78-.53-1.8,0-3.6,0-5.4,0l0-.14c.11-.14.25-.14.43-.14l6,0Z"/>
        <path class="cls-10" d="M65.47,14.52c1.8,0,3.6,0,5.4,0,.46,0,.71.1.78.53-.21.92-.46,1.87-.67,2.79a.43.43,0,0,1-.53.39,6,6,0,0,0-.85,0H67.69c-1.3,0-1.3,0-1.62-1.31C65.86,16.11,65.64,15.33,65.47,14.52Z"/>
        <path class="cls-10" d="M53.63,75.66c11.7.11,23.32-.53,34.87-3C86.45,74.28,58.37,76.72,53.63,75.66Z"/>
        <path class="cls-10" d="M84.4,66.09c0-.18-.21-.32-.18-.57H87.9l-.36.6-.14.15c-.77.38-1.62.07-2.43.17-.11,0-.22-.17-.32-.28Z"/>
        <path class="cls-10" d="M87.4,66.27l.14-.15a.32.32,0,0,1,.22.36c-.18,1.2,0,2.43-.11,3.64H84.72c-.21,0-.46,0-.46-.32,0-1.17,0-2.33,0-3.5,0-.07.08-.14.15-.21l.21.07c0,.14-.14.21-.18.35a23,23,0,0,0,0,3.11c0,.25.21.25.38.25h2.37c.35,0,.39-.18.39-.46,0-.57,0-1.1,0-1.66S87.72,66.72,87.4,66.27Z"/>
        <path class="cls-5" d="M52.57,75.59H50.42v-.21A8.9,8.9,0,0,0,52.57,75.59Z"/>
        <path class="cls-5" d="M49.68,75.52h-.74v-.07h.74Z"/>
        <path class="cls-5" d="M48.19,75.34l.11,0a.41.41,0,0,1,0,.1l-.11,0S48.19,75.38,48.19,75.34Z"/>
        <path class="cls-6" d="M67.16,65.63l.11.14Z"/>
        <path class="cls-12" d="M92.21,57.08c-.18-.53.17-.74.74-.85a29.21,29.21,0,0,0,3.53-1.06c.25-.1.39-.1.43.25.1,1.17,0,1.38-1.1,1.7-.88.24-1.77.56-2.65.77S92.21,58.32,92.21,57.08Z"/>
        <path class="cls-4" d="M97.12,52.63l3.81-1.52c.25-.1.64-.39.74-.1a2.21,2.21,0,0,1-.07,1.34A14.16,14.16,0,0,1,99,53.66c-.32.14-1.06.49-1.48.7a.13.13,0,0,1-.18-.07v0A10.39,10.39,0,0,1,97.12,52.63Z"/>
        <path class="cls-12" d="M91.75,61.6c.17.64-.14.85-.71.92-1.13.21-2.22.43-3.35.67-.46.11-.6,0-.64-.53,0-.7.07-1.06.88-1.13A23,23,0,0,0,91,61C91.68,60.83,92,60.9,91.75,61.6Z"/>
        <path class="cls-12" d="M88.78,59.27l2.51-.53c.32-.07.53,0,.53.39,0,1.24.07,1.24-1.17,1.52a16.5,16.5,0,0,1-3.49.56C87.54,60.44,88.39,60.05,88.78,59.27Z"/>
        <path class="cls-12" d="M94.72,53.44c.6-.24,1.2-.46,1.76-.7.32-.14.39,0,.39.28v.07c.07,1.52.07,1.52-1.41,2a22.73,22.73,0,0,1-3.11.85l1-1a7.23,7.23,0,0,0,1.27-1.38h0Z"/>
        <path class="cls-14" d="M95.1,57.75a5.13,5.13,0,0,0,1.1-.39c.63-.31.67,0,.67.53,0,1.06,0,1-1,1.35a18,18,0,0,1-2.58.74,6.87,6.87,0,0,1,1.37-1.52C94.82,58.28,95.21,58.18,95.1,57.75Z"/>
        <path class="cls-14" d="M84.26,61.67l-1.63.22c-.28,0-.42-.08-.31-.39a6.82,6.82,0,0,0,.31-1.2.25.25,0,0,1,.32-.25,24.82,24.82,0,0,1,2.76-.25c0,.32-.32.46-.46.67C84.93,60.86,84.4,61.11,84.26,61.67Z"/>
        <path class="cls-14" d="M94.08,61.78c-.5.14-1,.25-1.48.39-.29.07-.39,0-.39-.32V61a.29.29,0,0,1,.24-.35h0c1.17-.18,2.26-.67,3.39-.88,0,.14-.07.21-.18.31A10.82,10.82,0,0,0,94.08,61.78Z"/>
        <path class="cls-14" d="M85.32,57.68a1.16,1.16,0,0,1,.32,0c.31,0,.84-.29.92-.11a4.7,4.7,0,0,1,.1,1.41c0,.22-.18.22-.32.25a12,12,0,0,1-2.72.32C84.08,58.81,84.86,58.39,85.32,57.68Z"/>
        <path class="cls-12" d="M95.1,57.75c.11.39-.24.53-.46.74-.45.53-1.06.89-1.37,1.52-1.06.36-1,.36-1.1-.74,0-.53.11-.81.71-.92S94.36,58,95.1,57.75Z"/>
        <path class="cls-14" d="M89.17,56.59a12,12,0,0,1-1.63.28c-.21,0-.38,0-.38-.28s0-.43.24-.53c1.13-.36,2.19-.89,3.32-1.17Z"/>
        <path class="cls-12" d="M94.08,61.78a10.65,10.65,0,0,1,1.66-1.7c.11-.1.21-.17.18-.31.28-.18.7-.5.88-.25s.07.88,0,1.31c0,.07-.17.1-.24.14A12.25,12.25,0,0,1,94.08,61.78Z"/>
        <path d="M101.64,56.91c-.35.24-1.24.81-1.63,1-.88.39-1.69.81-2.58,1.24-.07,0-.14.07-.14.1,0,.43-.14.92,0,1.27.07.14.53,0,1-.24A24,24,0,0,0,100.9,59,1.56,1.56,0,0,0,101.64,56.91Z"/>
        <path class="cls-14" d="M89.84,58.6l-1.59.25c0-.28.21-.43.39-.57.32-.35.67-.67,1-1,.18-.18.15-.25-.1-.28l2-.39a16.58,16.58,0,0,1-1.76,1.8C89.63,58.53,89.66,58.57,89.84,58.6Z"/>
        <path class="cls-14" d="M84.93,62.06a3.43,3.43,0,0,1,1.31-.14c-.43.67-1.1,1.06-1.56,1.7a6.44,6.44,0,0,1-1.44.17A8.67,8.67,0,0,1,84.93,62.06Z"/>
        <path class="cls-12" d="M89.56,57c.21,0,.25.1.1.28-.35.32-.67.67-1,1-.18.18-.39.32-.39.57h0c-.14,0-.28,0-.39.1-.32,0-1,.43-.7-.49v-.14h0a1.65,1.65,0,0,0,1.09-1.06h0c.14,0,.28,0,.39-.11Z"/>
        <path class="cls-12" d="M84.26,61.67c.14-.56.67-.77,1-1.2.18-.21.46-.35.46-.67h0l.24-.07c.71-.14.71-.14.68.74a2.19,2.19,0,0,0-1,1A4.25,4.25,0,0,1,84.26,61.67Z"/>
        <path class="cls-14" d="M94.57,53.55a7.54,7.54,0,0,1-1.27,1.38l-1,1c-.32-.5-.11-1-.14-1.52,0-.11.1-.18.24-.21A21.61,21.61,0,0,1,94.57,53.55Z"/>
        <path class="cls-12" d="M89.17,56.59l1.59-1.7c.1,0,.18-.1.28-.14.74-.32.78-.28.78.53a1.45,1.45,0,0,0-.92.95h0a.19.19,0,0,0-.25.11A8.18,8.18,0,0,1,89.17,56.59Z"/>
        <path class="cls-12" d="M84.93,62.06a10.86,10.86,0,0,0-1.69,1.7c-.29,0-.57.1-.85.14s-.36,0-.36-.25a10.77,10.77,0,0,0,1.45-1.41Z"/>
        <path class="cls-12" d="M89.84,58.6c-.18,0-.21-.07,0-.21a17.63,17.63,0,0,0,1.76-1.8c.57.35.14.88.25,1.34s-.32.32-.53.35A12.31,12.31,0,0,1,89.84,58.6Z"/>
        <path class="cls-12" d="M84.68,63.58c.46-.63,1.17-1,1.56-1.69.1,0,.28-.11.32-.08.24.39.1.85.1,1.28,0,.28-.25.28-.42.31C85.71,63.48,85.18,63.51,84.68,63.58Z"/>
        <path class="cls-14" d="M88.78,59.27c-.35.78-1.2,1.17-1.59,1.94a4,4,0,0,1-.1-1.48c0-.21.14-.32.35-.32A8.21,8.21,0,0,1,88.78,59.27Z"/>
        <path d="M100.93,57c.64-.32.78-.78.81-1.52a2,2,0,0,0,0-.49c0-.14,0-.32-.35-.14-.6.31-3.5,1.83-4.17,2.12a3.1,3.1,0,0,0,.14,1.69,10.07,10.07,0,0,0,1.84-.78"/>
        <path class="cls-12" d="M85.32,57.68c-.46.71-1.24,1.13-1.73,1.84-.21,0-.39.18-.71,0C83.55,58.67,83.94,57.54,85.32,57.68Z"/>
        <path class="cls-14" d="M83.48,62.2A8.86,8.86,0,0,1,82,63.62C82,62.34,82.14,62.24,83.48,62.2Z"/>
        <path class="cls-14" d="M88.25,57.26a1.77,1.77,0,0,1-1.06,1.06C86.94,57.36,87.05,57.29,88.25,57.26Z"/>
        <path d="M97.22,54.89c-.14,0,0,.67,0,1,0,.6.21.6.64.42A27.82,27.82,0,0,0,101,54.64a1.54,1.54,0,0,0,.74-1.69c0-.28-.1-.35-.35-.18"/>
        <path class="cls-15" d="M85.07,57.26a3.25,3.25,0,0,1,1.34-.85c.18-.11.22.07.22.21s.07.46-.29.5S85.57,57.19,85.07,57.26Z"/>
        <path class="cls-14" d="M85.6,61.46a2.17,2.17,0,0,1,1-1C86.66,61.32,86.66,61.32,85.6,61.46Z"/>
        <path class="cls-14" d="M90.9,56.23a1.52,1.52,0,0,1,.92-.95C91.82,56.16,91.82,56.16,90.9,56.23Z"/>
        <path class="cls-14" d="M88.64,57.15a.35.35,0,0,1-.39.11C88.32,57.12,88.46,57.15,88.64,57.15Z"/>
        <path class="cls-14" d="M87.86,59c.11-.14.25-.11.39-.11C88.14,59,88,59,87.86,59Z"/>
        <path class="cls-14" d="M86,59.7l-.24.07A.19.19,0,0,1,86,59.7Z"/>
        <path class="cls-14" d="M90.62,56.3c.07-.07.17-.14.24-.1S90.72,56.34,90.62,56.3Z"/>
        <path class="cls-14" d="M94.72,53.44l-.15.11Z"/>
        <path class="cls-14" d="M99.34,57.79l.14-.11Z"/>
        <path class="cls-14" d="M87.16,58.32v.14s0-.07,0-.11S87.16,58.35,87.16,58.32Z"/>
        <path class="cls-13" d="M38.59,50.9l.07,0Z"/>
        <path class="cls-2" d="M36.33,31.15a22.88,22.88,0,0,0,3.14.53c.42.08.85-.14,1.24,0,1.55.11,3.1.42,4.62.67.46.07,1,.21,1.45.25a4.51,4.51,0,0,1,.78.14h.25c.24,0,.24.11.49.14l0,0,0,0a10.22,10.22,0,0,0,3.11.35c-3-4.87.74-13.28.74-13.28l-3.85.07a35.72,35.72,0,0,1-4.73-.1l-2.76,0a36.58,36.58,0,0,0-3.92-.1C37,19.85,31,27.52,36.33,31.15Zm11.44,1.59a1.23,1.23,0,0,1,.6,0A1.69,1.69,0,0,0,47.77,32.74Z"/>
        <path class="cls-15" d="M70,66.8l-.14-.11Z"/>
        <path class="cls-15" d="M53,66.8l-.1-.11Z"/>
        <path class="cls-10" d="M85.32,68.67l-.39.56A9.19,9.19,0,0,1,84.82,67a.36.36,0,0,1,.32-.35h.21c.6.07,1.45-.28,1.7.14.39.67.07,1.55.18,2.4-.32-.07-.25-.35-.43-.42,0-.18.07-.39.11-.57a.83.83,0,0,0-.46-.84c-.25-.15-.53-.25-.71.1a.23.23,0,0,0-.24.14C85,67.89,85.25,68.28,85.32,68.67Z"/>
        <path class="cls-10" d="M85.71,67.47c.21-.36.46-.25.7-.11a.86.86,0,0,1,.46.85,3.66,3.66,0,0,1-.1.56c-.5.07-1,.36-1.49-.14,0-.35-.31-.77.11-1.09l.07.07a2.37,2.37,0,0,0,0,.46.59.59,0,0,0,.63.67.62.62,0,0,0,.57-.78c-.07-.53-.5-.53-.92-.49Z"/>
        <path class="cls-3" d="M85.43,67.57a.27.27,0,0,1,.24-.14l0,0-.25.17Z"/>
        <path class="cls-9" d="M76.67,5.9a.35.35,0,0,0-.08.28s.15.11.39-.07A.24.24,0,0,0,76.67,5.9Z"/>
        <path class="cls-13" d="M77.3,4.7a2.69,2.69,0,0,1,.18,1.16,1.59,1.59,0,0,0,.07.46c.17.46,0,.71-.46.74-.11,0-.21,0-.18.18s-.14.25-.32.21a3.44,3.44,0,0,0-.56,0c-.21,0-.42,0-.39-.28,0-.15-.11-.11-.18-.11C75,7,74.83,6.64,75,6.25c.07-.14.14-.25.07-.39a6.68,6.68,0,0,1,.07-.77c.14-.5.35-.92.88-1A1.1,1.1,0,0,1,77.3,4.7Zm-1.16.67c0-.18-.08-.28-.25-.28s-.53.39-.53.63.14.18.25.18A.53.53,0,0,0,76.14,5.37Zm1.09.32a.78.78,0,0,0-.18-.39c-.14-.14-.28-.28-.49-.14s-.11.46.07.6a.8.8,0,0,0,.42.17c.14,0,.22-.07.18-.24Z"/>
        <path class="cls-13" d="M78.25,9.54s-.1.07-.1.14,0,.21-.14.21a.26.26,0,0,1-.25-.21C77.58,9,77,8.87,76.52,8.51c-.07-.07-.14,0-.24,0a5.51,5.51,0,0,0-1,.74.2.2,0,0,0-.1.18c0,.21-.07.43-.29.35s-.24-.28-.24-.45.07-.39.35-.32c0,0,.11,0,.11,0A6.27,6.27,0,0,1,76,8.23c-.24-.07-.42-.14-.63-.18s-.39-.14-.53.11a.13.13,0,0,1-.21,0h0A.15.15,0,0,1,74.55,8a3,3,0,0,1,.17-.56.23.23,0,0,1,.21-.18c.07,0,.18.07.18.14v0c0,.14.11.1.18.14.39.07.74.35,1.09.35s.71-.28,1.13-.32c.07,0,.18,0,.18-.14s0-.14.11-.17h0a.15.15,0,0,1,.21.14l.21.63a.14.14,0,0,1-.07.18.15.15,0,0,1-.18,0c-.17-.31-.46-.17-.7-.1a3.63,3.63,0,0,0-.46.14,6.7,6.7,0,0,1,1,.78s0,0,.07,0c.35-.07.39.18.42.43Z"/>
        <path class="cls-16" d="M76.06,6.15a1,1,0,0,0-.14.24.51.51,0,0,0,.39-.14Z"/>
        <g>
          <path class="cls-13" d="M70.77,39.63a7.68,7.68,0,0,1,.1,2.83,2.68,2.68,0,0,0,.07,1.16c.29,1.13-.17,1.73-1.3,1.66-.29,0-.46,0-.5.32,0,.6-.39.57-.81.46A6.68,6.68,0,0,0,67,45.81c-.53,0-1,0-.85-.77.07-.32-.24-.29-.42-.32a1.25,1.25,0,0,1-.81-2c.17-.32.39-.57.28-.92a11.67,11.67,0,0,1,.42-1.84A2.87,2.87,0,0,1,68,37.76,2.56,2.56,0,0,1,70.77,39.63Zm-3,1.2c0-.39,0-.7-.46-.74s-1.41.74-1.44,1.34c0,.43.24.46.56.46a1.09,1.09,0,0,0,1.34-1.06ZM70.27,42a1.48,1.48,0,0,0-.35-1c-.25-.35-.6-.74-1.1-.45-.35.21-.35,1,0,1.44a1.68,1.68,0,0,0,.95.53C70.1,42.53,70.27,42.35,70.27,42Z"/>
          <path class="cls-13" d="M71.86,52.17c-.1.11-.28.18-.32.32s-.1.56-.46.53a.73.73,0,0,1-.6-.64c-.21-1.87-1.87-2.57-3-3.74-.21-.21-.42-.14-.63-.07a15.39,15.39,0,0,0-3.15,1.62.7.7,0,0,0-.39.46c-.07.57-.39,1.1-.92.92s-.56-.92-.45-1.41.35-1,1.09-.71a.27.27,0,0,0,.35-.07,24,24,0,0,1,2.86-1.66c-.63-.28-1.13-.56-1.66-.78s-1-.6-1.51.11a.4.4,0,0,1-.57,0h0a.45.45,0,0,1-.11-.57c.22-.49.43-1,.68-1.48a.68.68,0,0,1,.63-.39.43.43,0,0,1,.35.6c-.07.39.22.39.43.46,1.06.39,1.91,1.27,2.93,1.48s2.12-.49,3.25-.46c.25,0,.49,0,.49-.32a.38.38,0,0,1,.39-.42.55.55,0,0,1,.57.46,16.87,16.87,0,0,1,.32,1.84.44.44,0,0,1-.25.46.35.35,0,0,1-.46-.18c-.39-.92-1.17-.64-1.87-.6a13.41,13.41,0,0,0-1.38.21,20.3,20.3,0,0,1,2.33,2.54.21.21,0,0,0,.18.11c1-.07,1,.67,1,1.31C71.9,52.07,71.86,52.1,71.86,52.17Z"/>
          <path class="cls-16" d="M68,42.14a1.28,1.28,0,0,0-.57.64,1.71,1.71,0,0,0,1.17-.07A1.33,1.33,0,0,0,68,42.14Z"/>
        </g>
        <path class="cls-1" d="M72.29,32.39c1.3.21,2.22.32,3.56.53.14,0,.14.32-.28.25l-3-.39-2.26-.28c-.07,0-.42-.11-.39.67,0,.32.18,1.8.82,1.69h.6c.35,0,3.95,0,4.06-.07l5.76.18c.24.14,0,.39-.29.39-2.12,0-9.53-.25-11.65-.25H66.77c-10.1.25-10.1.21-10.1-.14l9.79-.14c.28,0,1.73.21,1.66-.39s0-1.34-.07-1.84c0-.24.17-.49-.29-.53s-4.66-1-5.9-1.06a.23.23,0,0,1-.24-.24h0c.32-.25,5.68.88,6,.91C69.21,31.93,70.73,32.18,72.29,32.39Z"/>
        <g>
          <g>
            <circle class="cls-17" cx="37.63" cy="61.57" r="0.46"/>
            <circle class="cls-10" cx="37.63" cy="61.57" r="0.25"/>
          </g>
          <g>
            <path class="cls-17" d="M37.49,61.92l-.07,3.36s.07.7-.46.63a1.29,1.29,0,0,1-.92-1.2l.43.11-.43-1-.63.81h.28A1.79,1.79,0,0,0,36.33,66a6.72,6.72,0,0,1,1.44.82A2,2,0,0,1,39,66.05a1.31,1.31,0,0,0,.7-1.37H40l-.64-.82-.35.82h.28s.28,1.16-.88,1.2a.51.51,0,0,1-.53-.57L37.81,62h-.32Z"/>
            <line class="cls-18" x1="36.93" y1="62.59" x2="38.34" y2="62.59"/>
          </g>
        </g>
        <path class="cls-1" d="M43.5,35c-.21,0-.21-.21-.21-.35V32.74c0-.38.14-.49.49-.42.81.11,1.62.21,2.4.35l.88.14c1,.15,2,.32,3,.46.24,0,1.41.18,1.41,0a.27.27,0,0,0-.25-.28h0a30,30,0,0,1-3.92-.53l-.75,0-.91-.14c-.46-.07-.92-.11-1.35-.21-1.51-.25-6.25-1-7.8-1.06-.14,0-.28,0-.11.21l5.48.74c.24,0,.24.21.24.39v2.19c0,.39-.17.46-.46.42H38.2s-2-.24-1.87,0a17.67,17.67,0,0,0,2.89.25c4,0,10.25.14,14.2.14,0-.49-.39-.28-.56-.28-1.2,0-4.7-.14-5.9-.14Z"/>
      </g>
      <g id="cannon_gathered">
        <g>
          <rect class="cls-19" x="16.73" y="203.54" width="49.82" height="25.27" rx="3.89" transform="translate(-1.95 0.38) rotate(-0.52)"/>
          <rect class="cls-20" x="16.73" y="211.68" width="49.82" height="8.99" transform="translate(-1.95 0.38) rotate(-0.52)"/>
          <rect class="cls-21" x="16.73" y="212.77" width="49.82" height="6.8" transform="translate(-1.95 0.38) rotate(-0.52)"/>
          <rect class="cls-22" x="21.43" y="189.2" width="40.34" height="47.39" transform="translate(-1.92 0.38) rotate(-0.52)"/>
          <rect class="cls-23" x="31.88" y="189.2" width="19.44" height="47.39" transform="translate(-1.92 0.38) rotate(-0.52)"/>
          <line class="cls-24" x1="26.45" y1="189.33" x2="27" y2="236.72"/>
          <line class="cls-24" x1="57.01" y1="236.45" x2="56.58" y2="189.18"/>
          <line class="cls-24" x1="21.61" y1="232.03" x2="26.95" y2="231.98"/>
          <line class="cls-24" x1="57.02" y1="224.17" x2="61.88" y2="224.13"/>
          <line class="cls-24" x1="51.26" y1="205.51" x2="56.6" y2="205.47"/>
          <line class="cls-24" x1="56.72" y1="191.13" x2="61.58" y2="191.08"/>
          <line class="cls-24" x1="21.33" y1="201.65" x2="26.68" y2="201.6"/>
          <line class="cls-24" x1="26.79" y1="214" x2="31.89" y2="213.95"/>
          <line class="cls-25" x1="38.78" y1="236.85" x2="38.36" y2="189.47"/>
          <line class="cls-25" x1="45.34" y1="236.49" x2="44.91" y2="189.11"/>
          <line class="cls-25" x1="45.08" y1="221.12" x2="51.28" y2="221.07"/>
          <line class="cls-25" x1="31.86" y1="210.79" x2="38.55" y2="210.73"/>
          <line class="cls-25" x1="38.47" y1="202.47" x2="45.03" y2="202.41"/>
          <line class="cls-25" x1="38.87" y1="233.09" x2="45.31" y2="233.03"/>
        </g>
        <g id="cannonball">
          <circle class="cls-26" cx="42.07" cy="212.27" r="9.47"/>
          <circle class="cls-27" cx="45.77" cy="209.75" r="3.54"/>
        </g>
        <g id="cannon">
          <path class="cls-28" d="M25.47,203.09a16.28,16.28,0,0,0,32.06,5.7l.24-2.13,3.67-50,.14-1.24L64.05,150c.66-3.7-4.27-7.67-11-8.87s-12.73.83-13.39,4.53l.5,5.86-.32,1.32L26,201Z"/>
          <path class="cls-29" d="M61.6,155.46c.95-5.05-20.54-9.12-21.49-4.07l-.26,1.43c1-5.44,22.5-1.61,21.53,3.84Z"/>
          <ellipse class="cls-30" cx="39.87" cy="214.78" rx="7.29" ry="8.56" transform="translate(-178.58 216.39) rotate(-79.91)"/>
          <ellipse class="cls-31" cx="39.65" cy="216" rx="2.67" ry="3.14" transform="translate(-179.96 217.18) rotate(-79.91)"/>
          <g id="light">
            <path class="cls-32" d="M35.53,207.59c1.1.95,2.33,2.23,2.12,3.22-.17.84-1.27.88-1.36,1.68-.06.59.41,1.6,3,3.43"/>
            <g>
              <path class="cls-33" d="M32.61,205.91a3.32,3.32,0,0,0,1.49,2.74,2.88,2.88,0,0,0,1.22.34,2.25,2.25,0,0,0,2.73-1.81,1.65,1.65,0,0,0,.06-.32c0-.48-.55-3.77-.55-3.77a1.62,1.62,0,0,1-.17.37c-.3-1.43-.6-2.73-.6-2.73a5.49,5.49,0,0,1-.73,1.3c-.1-1-.06-1.91.21-2.13-.05-.33-2,2.22-3,4.35a1,1,0,0,1-.2-.76A3.81,3.81,0,0,0,32.61,205.91Z"/>
              <polygon class="cls-34" points="38.23 206.91 38.23 206.91 38.23 206.91 38.23 206.91"/>
              <polygon class="cls-34" points="33.45 206.06 33.45 206.06 33.45 206.06 33.45 206.06"/>
              <path class="cls-35" d="M33.33,206.63a2.25,2.25,0,0,0,1,1.86,1.94,1.94,0,0,0,.83.23A1.53,1.53,0,0,0,37,207.49a.78.78,0,0,0,0-.22c0-.32-.37-2.56-.37-2.56a1.22,1.22,0,0,1-.11.26c-.21-1-.41-1.86-.41-1.86a4,4,0,0,1-.49.89c-.07-.71,0-1.3.14-1.45,0-.22-1.33,1.5-2,2.95a.7.7,0,0,1-.13-.52A2.6,2.6,0,0,0,33.33,206.63Z"/>
              <path class="cls-36" d="M34.19,207.05a1.31,1.31,0,0,0,.57,1.06,1,1,0,0,0,.46.13.86.86,0,0,0,1-.7.5.5,0,0,0,0-.13c0-.18-.21-1.45-.21-1.45a.42.42,0,0,1-.06.14l-.23-1a2.11,2.11,0,0,1-.28.5c0-.4,0-.74.08-.82a5,5,0,0,0-1.13,1.68.38.38,0,0,1-.07-.3A1.55,1.55,0,0,0,34.19,207.05Z"/>
            </g>
          </g>
        </g>
      </g>
      <g>
        <line class="cls-37" x1="52.55" y1="140.84" x2="52.82" y2="139.36"/>
        <line class="cls-38" x1="53.37" y1="136.36" x2="63" y2="83.82"/>
        <line class="cls-37" x1="63.28" y1="82.31" x2="63.55" y2="80.84"/>
      </g>
      <path id="shine3" class="cls-39" d="M43.55,154.88l.11.71a5.51,5.51,0,0,0,10.4,1.6l.27-.54a1,1,0,0,1,1.85.58l-.15,1a5.5,5.5,0,0,0,9.42,4.65l.48-.5a1,1,0,0,1,1.59,1.12l-.59,1.2A5.51,5.51,0,0,0,74.46,172l.83-.45a1,1,0,0,1,1.17,1.55l-1.11,1.15a5.51,5.51,0,0,0,4.87,9.27l1.26-.21a1,1,0,0,1,.62,1.84l-1.49.78a5.51,5.51,0,0,0,1.68,10.32l1.54.25a1,1,0,0,1,0,1.94l-1.54.24A5.51,5.51,0,0,0,80.61,209l1.49.78a1,1,0,0,1-.62,1.84l-1.26-.21a5.51,5.51,0,0,0-4.87,9.27l1.11,1.15a1,1,0,0,1-1.17,1.55l-.83-.44a5.51,5.51,0,0,0-7.53,7.3l.59,1.2a1,1,0,0,1-1.59,1.12l-.48-.5A5.51,5.51,0,0,0,56,236.73l.15,1a1,1,0,0,1-1.85.58l-.27-.54a5.51,5.51,0,0,0-10.4,1.6l-.11.71a1,1,0,0,1-1.94,0l-.11-.71a5.51,5.51,0,0,0-10.4-1.6l-.27.54a1,1,0,0,1-1.85-.58l.15-1a5.51,5.51,0,0,0-9.43-4.66l-.47.5a1,1,0,0,1-1.59-1.12l.59-1.2A5.51,5.51,0,0,0,10.7,223l-.84.44a1,1,0,0,1-1.17-1.55l1.12-1.15a5.51,5.51,0,0,0-4.87-9.27l-1.26.21a1,1,0,0,1-.62-1.84L4.55,209a5.51,5.51,0,0,0-1.69-10.32l-1.53-.24a1,1,0,0,1,0-1.94l1.53-.25a5.51,5.51,0,0,0,1.69-10.32l-1.49-.78a1,1,0,0,1,.62-1.84l1.26.21a5.51,5.51,0,0,0,4.87-9.27l-1.12-1.15a1,1,0,0,1,1.17-1.55l.84.45a5.51,5.51,0,0,0,7.53-7.31l-.59-1.2a1,1,0,0,1,1.59-1.12l.47.5a5.51,5.51,0,0,0,9.43-4.65l-.15-1a1,1,0,0,1,1.85-.58l.27.54a5.51,5.51,0,0,0,10.4-1.6l.11-.71A1,1,0,0,1,43.55,154.88Z"/>
      <g>
        <path class="cls-40" d="M150.49,255.52a12,12,0,0,1-3,16.71l-22.13,15.45a12,12,0,0,1-16.71-3l-.07-.1a8.11,8.11,0,0,1-5.95-1l0,.05L53.59,260a8.53,8.53,0,0,1-4.71-10.78A7.82,7.82,0,0,1,59.4,245l19.46,8.35L40.4,198.68a8,8,0,1,1,13-9.15L70,213.07c-.77-2.79.59-6.16,3.54-8.23,3.6-2.53,8.2-2.18,10.29.78L86.2,209l.28-.19-.4-.57c-2.09-3-.87-7.42,2.73-10s8.2-2.17,10.29.8l4.77,6.78c-2.09-3-.87-7.42,2.73-9.95s8.21-2.19,10.29.79l32,50.12a8.42,8.42,0,0,1,1,7.85Z"/>
        <rect class="cls-41" x="108.18" y="268.88" width="58" height="26" transform="translate(-136.65 129.28) rotate(-34.92)"/>
      </g>
    </g>
  </g>
</svg>
