<svg xmlns="http://www.w3.org/2000/svg" width="167.86" height="146.36" viewBox="0 0 167.86 146.36">
  <defs>
    <style>
      .cls-1 {
        fill: none;
        stroke: #ffd845;
        stroke-miterlimit: 10;
        isolation: isolate;
      }

      .cls-2 {
        fill: #ffd5b6;
      }

      .cls-3 {
        fill: #809ece;
      }

      .cls-4 {
        fill: #efbd9c;
      }

      .cls-5 {
        fill: #6282af;
      }
    </style>
  </defs>
  <title>haand</title>
  <g id="Lag_2" data-name="Lag 2">
    <g id="Lag_1-2" data-name="Lag 1">
      <path id="shine3" class="cls-1" d="M36.59,73.74l.09.6a4.62,4.62,0,0,0,8.72,1.34l.22-.46a.83.83,0,0,1,1.56.49l-.13.83A4.62,4.62,0,0,0,55,80.45l.4-.42a.83.83,0,0,1,1.34.93l-.5,1A4.62,4.62,0,0,0,62.5,88.1l.7-.38a.82.82,0,0,1,1,1.3l-.93,1a4.62,4.62,0,0,0,4.08,7.77l1-.18a.82.82,0,0,1,.52,1.54l-1.24.66a4.62,4.62,0,0,0,1.41,8.65l1.29.2a.83.83,0,0,1,0,1.63l-1.29.21a4.62,4.62,0,0,0-1.41,8.65l1.24.65a.83.83,0,0,1-.52,1.55l-1-.18a4.62,4.62,0,0,0-4.08,7.77l.93,1a.82.82,0,0,1-1,1.3l-.7-.37a4.61,4.61,0,0,0-6.31,6.12l.5,1a.83.83,0,0,1-1.34.94l-.4-.42a4.62,4.62,0,0,0-7.9,3.9l.13.84a.83.83,0,0,1-1.56.48l-.22-.45a4.62,4.62,0,0,0-8.72,1.34l-.09.6a.82.82,0,0,1-1.63,0l-.09-.6a4.62,4.62,0,0,0-8.72-1.34l-.22.45a.83.83,0,0,1-1.56-.48l.13-.84a4.62,4.62,0,0,0-7.9-3.9l-.4.42a.83.83,0,0,1-1.34-.94l.5-1a4.61,4.61,0,0,0-6.31-6.12l-.7.37a.82.82,0,0,1-1-1.3l.93-1a4.62,4.62,0,0,0-4.08-7.77l-1,.18a.83.83,0,0,1-.52-1.55l1.24-.65a4.62,4.62,0,0,0-1.41-8.65l-1.29-.21a.83.83,0,0,1,0-1.63l1.29-.2a4.62,4.62,0,0,0,1.41-8.65l-1.24-.66a.82.82,0,0,1,.52-1.54l1,.18A4.62,4.62,0,0,0,8.3,90l-.93-1a.82.82,0,0,1,1-1.3l.7.38A4.62,4.62,0,0,0,15.36,82l-.5-1A.83.83,0,0,1,16.2,80l.4.42a4.62,4.62,0,0,0,7.9-3.91l-.13-.83a.83.83,0,0,1,1.56-.49l.22.46a4.62,4.62,0,0,0,8.72-1.34l.09-.6A.82.82,0,0,1,36.59,73.74Z"/>
      <g>
        <path class="cls-2" d="M123.9,13.82c1,1.7,3.21,6,5.9,11.33C135.9,37.26,144.37,54.6,146,58.23l-2.54,1.86-6.27,4.61a8.15,8.15,0,0,1-2.05,5.68l.05.05-29.4,40.74-2.44,3.39a8.6,8.6,0,0,1-9.76,3.5,8.12,8.12,0,0,1-1.68-.76,7.58,7.58,0,0,1-3.28-4,8,8,0,0,1,.93-7l11.57-17.59.07-.11L80.83,98l-40.2,18.78a8.28,8.28,0,0,1-10-2.16,1.46,1.46,0,0,1-.16-.19,8.28,8.28,0,0,1-.8-1.32l-.25-.6a7.94,7.94,0,0,1,1-7.25,8.57,8.57,0,0,1,3.48-2.9L60,90.17l-.23,0c-2.81.16-5.76-1.76-7.25-5a8.49,8.49,0,0,1-.16-7.18,5.73,5.73,0,0,1,2.07-2.42,3.93,3.93,0,0,1,.67-.39l3.76-1.75,0-.07-.11-.23-.64.29a5.69,5.69,0,0,1-4.08.27,7.6,7.6,0,0,1-2.69-1.42,9.21,9.21,0,0,1-2.54-3.28,8.6,8.6,0,0,1-.37-6.73,5.93,5.93,0,0,1,3-3.27l7.51-3.5a3.67,3.67,0,0,1-.86.3h0a6.38,6.38,0,0,1-5.34-1,9.47,9.47,0,0,1-4-7.27,6.54,6.54,0,0,1,3.47-6.42l55-22.74a8.43,8.43,0,0,1,7.68.26l.23.13,1.57-.87,2-1.12.19-.11h0Z"/>
        <polygon class="cls-3" points="138.95 0.09 147.51 14.97 167.86 50.38 145.32 63.34 143.45 60.09 124.96 27.93 123.9 26.09 123.91 26.09 118.78 17.17 118.55 16.79 116.41 13.06 116.6 12.96 138.95 0.09"/>
        <path class="cls-4" d="M118.78,16.67l2.71,4.76-5.23,2.25c-14.76.93-37.21,7.13-67.63,23.87a6.54,6.54,0,0,1,3.47-6.42l55-22.74a8.43,8.43,0,0,1,7.68.26l.23.13,1.57-.87,2-1.12.19-.11Z"/>
        <polygon class="cls-5" points="138.9 0 138.95 0.09 147.51 14.97 129.8 25.15 124.96 27.93 123.9 26.09 118.78 17.17 118.55 16.79 116.41 13.06 116.36 12.96 116.54 12.86 138.9 0"/>
      </g>
    </g>
  </g>
</svg>
