<svg xmlns="http://www.w3.org/2000/svg" width="998.27" height="982.85" viewBox="0 0 998.27 982.85"><defs><style>.cls-1{fill:#b87a01;}.cls-14,.cls-2,.cls-4,.cls-7,.cls-8{fill:none;}.cls-10,.cls-13,.cls-2,.cls-3,.cls-4,.cls-6,.cls-8{stroke:#630;}.cls-13,.cls-14,.cls-2,.cls-3,.cls-4{stroke-miterlimit:10;}.cls-2{stroke-width:0;}.cls-3{fill:#b96300;}.cls-10,.cls-13,.cls-14,.cls-3,.cls-4,.cls-6,.cls-8{stroke-width:3px;}.cls-5{fill:#ef9a03;}.cls-13,.cls-6{fill:#b05c13;}.cls-10,.cls-6,.cls-8{stroke-linecap:round;stroke-linejoin:round;}.cls-9{fill:#feaa01;}.cls-10{fill:#b65510;}.cls-11{fill:#743400;}.cls-12{fill:#874101;}.cls-14{stroke:#603e01;}.cls-15{fill:#ba6402;}.cls-16{fill:#e0a000;}.cls-17{fill:#fede03;}.cls-18{fill:#c6c6c6;}.cls-19{fill:#d8d8d8;}.cls-20{fill:#73ddc9;}.cls-21{fill:#68e0bb;}.cls-22{fill:#35d8bc;}.cls-23{fill:#23c9b8;}.cls-24{fill:#40ddc2;}.cls-25{fill:#a00;}.cls-26{fill:#8e0303;}.cls-27{fill:#b71a1a;}.cls-28{fill:#ce0d0d;}.cls-29{fill:#20d800;}.cls-30{fill:#3c0;}.cls-31{fill:#5ae227;}.cls-32{fill:#1fad02;}.cls-33{fill:#f47e2f;}.cls-34{fill:#ea7a2f;}.cls-35{fill:#dd752f;}.cls-36{fill:#ed6000;}.cls-37{fill:#dd5900;}.cls-38{fill:#cc5700;}.cls-39{fill:#ff7900;}.cls-40{fill:#ff6700;}.cls-41{fill:#ff862c;}</style></defs><title>Kiste u. outline</title><g id="Layer_2" data-name="Layer 2"><g id="Skattkiste"><polyline class="cls-1" points="997.56 421.93 459.5 618.85 404.27 982.85 926.47 749.85 997.71 422.1"/><g id="front_left"><polygon class="cls-2" points="453.92 910.4 680.7 811.53 718.27 554.35 499.96 636.96 453.92 910.4"/><polygon class="cls-3" points="449.27 932.35 699.27 821.35 740.27 546.35 498.27 638.35 449.27 932.35"/><polyline class="cls-4" points="679.42 812.69 679.51 812.05 679.54 811.81 679.55 811.81 686.22 763.99 695.59 696.85 705.65 624.85 715.28 555.85 715.33 555.46"/><polyline class="cls-4" points="698.72 821.6 698.71 821.6 679.42 812.69 678.76 812.38 678.49 812.26"/><polyline class="cls-4" points="679.55 811.81 679.54 811.81 678.49 812.26 454.25 908.5 453.17 908.96"/><polyline class="cls-4" points="462.6 852.36 463.78 851.9 686.22 763.99"/><polyline class="cls-4" points="473.82 785.05 475.12 784.53 695.59 696.85"/><polyline class="cls-4" points="485.96 712.22 487.39 711.65 705.65 624.85"/></g><g id="front-right"><polygon class="cls-3" points="743.77 802.85 779.77 530.85 968.77 454.85 911.77 729.85 743.77 802.85"/><line class="cls-4" x1="930.36" y1="535.19" x2="771.01" y2="597.04"/><polyline class="cls-4" points="761.57 668.32 914.89 608.79 914.9 608.79"/><line class="cls-4" x1="900.24" y1="678.54" x2="752.69" y2="735.48"/><polyline class="cls-4" points="746.64 781.2 891.66 717.5 892.07 717.42 900.24 678.54 914.89 608.79 914.9 608.79 930.36 535.19 945.25 464.31"/><path class="cls-4" d="M911.89,729.25l-20.74-11.52Z"/></g><g id="side"><polygon class="cls-5" points="174.27 499.69 460.19 615.04 405.13 982.07 208.7 874.69 174.27 499.69"/><polygon class="cls-6" points="380.99 940.86 426.15 636.29 199.35 541.18 230.46 856.88 380.99 940.86"/><polygon class="cls-7" points="461.77 615.31 461.73 615.59 406.77 982.85 209.77 876.83 172.85 497.94 172.85 497.94 172.84 497.9 172.86 497.92 173.02 497.42 173.22 497.35 461.77 615.31"/><polyline class="cls-8" points="230.32 855.49 254.27 846.07 254.79 845.86"/><polyline class="cls-8" points="384.67 916.02 254.79 845.86 254.22 845.55"/><polyline class="cls-8" points="224.08 551.55 230.29 612.14 230.29 612.15 239.29 699.92 247.42 779.25 254.22 845.55 254.27 846.07"/><line class="cls-8" x1="395.3" y1="844.38" x2="247.42" y2="779.25"/><line class="cls-8" x1="406.1" y1="771.51" x2="239.29" y2="699.92"/><polyline class="cls-8" points="230.29 612.14 230.29 612.15 418.04 690.95"/></g><g id="Top"><polygon class="cls-9" points="461.77 618.85 997.77 421.85 710.77 322.85 178.95 504.35 461.77 618.85"/><polygon class="cls-10" points="226.27 502.35 462.27 591.35 947.27 421.35 727.27 352.35 226.27 502.35"/><polygon class="cls-7" points="998.27 421.35 462.27 619.35 461.73 619.13 172.86 502.59 173.02 502.1 173.22 502.03 711.27 323.35 998.27 421.35"/></g></g><g id="Låg"><path class="cls-9" d="M171.57,501.79,58.39,154.23a.4.4,0,0,1,.27-.51L602.57.11A2.91,2.91,0,0,1,606.13,2l105,322a.39.39,0,0,1-.24.5L177.6,504.81A4.74,4.74,0,0,1,171.57,501.79Z"/><polygon class="cls-11" points="188.27 478.35 689.27 317.35 599.27 15.35 83.27 162.35 188.27 478.35"/><path class="cls-12" d="M574.08,22.52,390.79,74.74s-254,140.11-212,254.11,289.68,59.46,289.68,59.46l201.43-64.73Z"/><path class="cls-13" d="M584.7,19.5s-76.43,62.85.57,218.85c0,0,63.45,103,99.22,63l-85.22-286Z"/><polygon class="cls-14" points="188.27 478.35 689.27 317.35 599.27 15.35 83.27 162.35 188.27 478.35"/><path class="cls-5" d="M57.68,153.72c-8.36,5.41-103.11,71.45-30.41,243.63,0,0,41,116,146,107L58.51,154.08Z"/><path class="cls-5" d="M57.68,152.72c-8.36,5.41-103.11,71.45-30.41,243.63,0,0,41,116,146,107L58.51,153.08Z"/><path class="cls-15" d="M47.77,185.85l92,287s-84-17-113-130C26.77,342.85-1.23,267.85,47.77,185.85Z"/><path class="cls-13" d="M53.75,204.75,134.52,455.5S77.27,438.35,45.27,352.35,53.75,204.75,53.75,204.75Z"/><path class="cls-4" d="M47.77,184.85l92,287s-84-17-113-130C26.77,341.85-1.23,266.85,47.77,184.85Z"/><line class="cls-4" x1="553.53" y1="144.11" x2="119.15" y2="270.33"/><line class="cls-8" x1="553.88" y1="80.08" x2="99.77" y2="212.02"/><line class="cls-4" x1="570.35" y1="204.58" x2="139.34" y2="331.09"/><line class="cls-4" x1="599.44" y1="258.85" x2="158.35" y2="388.31"/><line class="cls-4" x1="641.59" y1="301.94" x2="175.14" y2="438.84"/></g><g id="Coins"><path class="cls-16" d="M527.27,579.35a10.56,10.56,0,0,1-5,4c-25.06,10.66-52,10-52,10-59.53,0-63.65-8.06-65-11-1.66-3.61-1.49-7.68-.42-11.66.28-1,.61-2,1-3a15.13,15.13,0,0,1,4.64-3.16l117.77,5.84h0C528.75,572.44,529.25,576.18,527.27,579.35Z"/><path class="cls-17" d="M528.27,570c0,.1,0,.2,0,.31C527.33,578.09,492,586,460.91,585c-24.51-.78-54.3-7.31-56.06-14.32a2.89,2.89,0,0,1-.08-.65,3.59,3.59,0,0,1,1.07-2.37,15.13,15.13,0,0,1,4.64-3.16c10.09-4.93,31.79-8.86,50.43-9.44C492.36,554.08,528.27,562.19,528.27,570Z"/><path class="cls-16" d="M572.27,561.35a10.56,10.56,0,0,1-5,4c-25.06,10.66-52,10-52,10-59.53,0-63.65-8.06-65-11-1.66-3.61-1.49-7.68-.42-11.66.28-1,.61-2,1-3a15.13,15.13,0,0,1,4.64-3.16l117.77,5.84h0C573.75,554.44,574.25,558.18,572.27,561.35Z"/><path class="cls-17" d="M573.27,552c0,.1,0,.2,0,.31C572.33,560.09,537,568,505.91,567c-24.51-.78-54.3-7.31-56.06-14.32a2.89,2.89,0,0,1-.08-.65,3.59,3.59,0,0,1,1.07-2.37,15.13,15.13,0,0,1,4.64-3.16c10.09-4.93,31.79-8.86,50.43-9.44C537.36,536.08,573.27,544.19,573.27,552Z"/><path class="cls-16" d="M447.27,550.35a10.56,10.56,0,0,1-5,4c-25.06,10.66-52,10-52,10-59.53,0-63.65-8.06-65-11-1.66-3.61-1.49-7.68-.42-11.66.28-1,.61-2,1-3a15.13,15.13,0,0,1,4.64-3.16l117.77,5.84h0C448.75,543.44,449.25,547.18,447.27,550.35Z"/><path class="cls-17" d="M448.27,541c0,.1,0,.2,0,.31C447.33,549.09,412,557,380.91,556c-24.51-.78-54.3-7.31-56.06-14.32a2.89,2.89,0,0,1-.08-.65,3.59,3.59,0,0,1,1.07-2.37,15.13,15.13,0,0,1,4.64-3.16c10.09-4.93,31.79-8.86,50.43-9.44C412.36,525.08,448.27,533.19,448.27,541Z"/><path class="cls-16" d="M407.27,526.35a10.56,10.56,0,0,1-5,4c-25.06,10.66-52,10-52,10-59.53,0-63.65-8.06-65-11-1.66-3.61-1.49-7.68-.42-11.66.28-1,.61-2,1-3a15.13,15.13,0,0,1,4.64-3.16l117.77,5.84h0C408.75,519.44,409.25,523.18,407.27,526.35Z"/><path class="cls-17" d="M408.27,517c0,.1,0,.2,0,.31C407.33,525.09,372,533,340.91,532c-24.51-.78-54.3-7.31-56.06-14.32a2.89,2.89,0,0,1-.08-.65,3.59,3.59,0,0,1,1.07-2.37,15.13,15.13,0,0,1,4.64-3.16c10.09-4.93,31.79-8.86,50.43-9.44C372.36,501.08,408.27,509.19,408.27,517Z"/><path class="cls-16" d="M349.27,497.35a10.56,10.56,0,0,1-5,4c-25.06,10.66-52,10-52,10-59.53,0-63.65-8.06-65-11-1.66-3.61-1.49-7.68-.42-11.66.28-1,.61-2,1-3a15.13,15.13,0,0,1,4.64-3.16l117.77,5.84h0C350.75,490.44,351.25,494.18,349.27,497.35Z"/><path class="cls-17" d="M350.27,488c0,.1,0,.2,0,.31C349.33,496.09,314,504,282.91,503c-24.51-.78-54.3-7.31-56.06-14.32a2.89,2.89,0,0,1-.08-.65,3.59,3.59,0,0,1,1.07-2.37,15.13,15.13,0,0,1,4.64-3.16c10.09-4.93,31.79-8.86,50.43-9.44C314.36,472.08,350.27,480.19,350.27,488Z"/><path class="cls-16" d="M359.27,473.35a10.56,10.56,0,0,1-5,4c-25.06,10.66-52,10-52,10-59.53,0-63.65-8.06-65-11-1.66-3.61-1.49-7.68-.42-11.66.28-1,.61-2,1-3a15.13,15.13,0,0,1,4.64-3.16l117.77,5.84h0C360.75,466.44,361.25,470.18,359.27,473.35Z"/><path class="cls-17" d="M360.27,464c0,.1,0,.2,0,.31C359.33,472.09,324,480,292.91,479c-24.51-.78-54.3-7.31-56.06-14.32a2.89,2.89,0,0,1-.08-.65,3.59,3.59,0,0,1,1.07-2.37,15.13,15.13,0,0,1,4.64-3.16c10.09-4.93,31.79-8.86,50.43-9.44C324.36,448.08,360.27,456.19,360.27,464Z"/><path class="cls-16" d="M378.27,435.35a10.56,10.56,0,0,1-5,4c-25.06,10.66-52,10-52,10-59.53,0-63.65-8.06-65-11-1.66-3.61-1.49-7.68-.42-11.66.28-1,.61-2,1-3a15.13,15.13,0,0,1,4.64-3.16l117.77,5.84h0C379.75,428.44,380.25,432.18,378.27,435.35Z"/><path class="cls-17" d="M379.27,426c0,.1,0,.2,0,.31C378.33,434.09,343,442,311.91,441c-24.51-.78-54.3-7.31-56.06-14.32a2.89,2.89,0,0,1-.08-.65,3.59,3.59,0,0,1,1.07-2.37,15.13,15.13,0,0,1,4.64-3.16c10.09-4.93,31.79-8.86,50.43-9.44C343.36,410.08,379.27,418.19,379.27,426Z"/><path class="cls-16" d="M424.27,410.35a10.56,10.56,0,0,1-5,4c-25.06,10.66-52,10-52,10-59.53,0-63.65-8.06-65-11-1.66-3.61-1.49-7.68-.42-11.66.28-1,.61-2,1-3a15.13,15.13,0,0,1,4.64-3.16l117.77,5.84h0C425.75,403.44,426.25,407.18,424.27,410.35Z"/><path class="cls-17" d="M425.27,401c0,.1,0,.2,0,.31C424.33,409.09,389,417,357.91,416c-24.51-.78-54.3-7.31-56.06-14.32a2.89,2.89,0,0,1-.08-.65,3.59,3.59,0,0,1,1.07-2.37,15.13,15.13,0,0,1,4.64-3.16c10.09-4.93,31.79-8.86,50.43-9.44C389.36,385.08,425.27,393.19,425.27,401Z"/><path class="cls-16" d="M453.27,389.35a10.56,10.56,0,0,1-5,4c-25.06,10.66-52,10-52,10-59.53,0-63.65-8.06-65-11-1.66-3.61-1.49-7.68-.42-11.66.28-1,.61-2,1-3a15.13,15.13,0,0,1,4.64-3.16l117.77,5.84h0C454.75,382.44,455.25,386.18,453.27,389.35Z"/><path class="cls-17" d="M454.27,380c0,.1,0,.2,0,.31C453.33,388.09,418,396,386.91,395c-24.51-.78-54.3-7.31-56.06-14.32a2.89,2.89,0,0,1-.08-.65,3.59,3.59,0,0,1,1.07-2.37,15.13,15.13,0,0,1,4.64-3.16c10.09-4.93,31.79-8.86,50.43-9.44C418.36,364.08,454.27,372.19,454.27,380Z"/><path class="cls-16" d="M498.27,377.35a10.56,10.56,0,0,1-5,4c-25.06,10.66-52,10-52,10-59.53,0-63.65-8.06-65-11-1.66-3.61-1.49-7.68-.42-11.66.28-1,.61-2,1-3a15.13,15.13,0,0,1,4.64-3.16l117.77,5.84h0C499.75,370.44,500.25,374.18,498.27,377.35Z"/><path class="cls-17" d="M499.27,368c0,.1,0,.2,0,.31C498.33,376.09,463,384,431.91,383c-24.51-.78-54.3-7.31-56.06-14.32a2.89,2.89,0,0,1-.08-.65,3.59,3.59,0,0,1,1.07-2.37,15.13,15.13,0,0,1,4.64-3.16c10.09-4.93,31.79-8.86,50.43-9.44C463.36,352.08,499.27,360.19,499.27,368Z"/><path class="cls-16" d="M391.27,525.35a10.56,10.56,0,0,1-5,4c-25.06,10.66-52,10-52,10-59.53,0-63.65-8.06-65-11-1.66-3.61-1.49-7.68-.42-11.66.28-1,.61-2,1-3a15.13,15.13,0,0,1,4.64-3.16l117.77,5.84h0C392.75,518.44,393.25,522.18,391.27,525.35Z"/><path class="cls-17" d="M392.27,516c0,.1,0,.2,0,.31C391.33,524.09,356,532,324.91,531c-24.51-.78-54.3-7.31-56.06-14.32a2.89,2.89,0,0,1-.08-.65,3.59,3.59,0,0,1,1.07-2.37,15.13,15.13,0,0,1,4.64-3.16c10.09-4.93,31.79-8.86,50.43-9.44C356.36,500.08,392.27,508.19,392.27,516Z"/><path class="cls-18" d="M456.27,493.35a10.56,10.56,0,0,1-5,4c-25.06,10.66-52,10-52,10-59.53,0-63.65-8.06-65-11-1.66-3.61-1.49-7.68-.42-11.66.28-1,.61-2,1-3a15.13,15.13,0,0,1,4.64-3.16l117.77,5.84h0C457.75,486.44,458.25,490.18,456.27,493.35Z"/><path class="cls-19" d="M457.27,484c0,.1,0,.2,0,.31C456.33,492.09,421,500,389.91,499c-24.51-.78-54.3-7.31-56.06-14.32a2.89,2.89,0,0,1-.08-.65,3.59,3.59,0,0,1,1.07-2.37,15.13,15.13,0,0,1,4.64-3.16c10.09-4.93,31.79-8.86,50.43-9.44C421.36,468.08,457.27,476.19,457.27,484Z"/><path class="cls-16" d="M431.27,474.35a10.56,10.56,0,0,1-5,4c-25.06,10.66-52,10-52,10-59.53,0-63.65-8.06-65-11-1.66-3.61-1.49-7.68-.42-11.66.28-1,.61-2,1-3a15.13,15.13,0,0,1,4.64-3.16l117.77,5.84h0C432.75,467.44,433.25,471.18,431.27,474.35Z"/><path class="cls-17" d="M432.27,465c0,.1,0,.2,0,.31C431.33,473.09,396,481,364.91,480c-24.51-.78-54.3-7.31-56.06-14.32a2.89,2.89,0,0,1-.08-.65,3.59,3.59,0,0,1,1.07-2.37,15.13,15.13,0,0,1,4.64-3.16c10.09-4.93,31.79-8.86,50.43-9.44C396.36,449.08,432.27,457.19,432.27,465Z"/><path class="cls-16" d="M473.27,446.35a10.56,10.56,0,0,1-5,4c-25.06,10.66-52,10-52,10-59.53,0-63.65-8.06-65-11-1.66-3.61-1.49-7.68-.42-11.66.28-1,.61-2,1-3a15.13,15.13,0,0,1,4.64-3.16l117.77,5.84h0C474.75,439.44,475.25,443.18,473.27,446.35Z"/><path class="cls-17" d="M474.27,437c0,.1,0,.2,0,.31C473.33,445.09,438,453,406.91,452c-24.51-.78-54.3-7.31-56.06-14.32a2.89,2.89,0,0,1-.08-.65,3.59,3.59,0,0,1,1.07-2.37,15.13,15.13,0,0,1,4.64-3.16c10.09-4.93,31.79-8.86,50.43-9.44C438.36,421.08,474.27,429.19,474.27,437Z"/><path class="cls-16" d="M547.27,472.35a10.56,10.56,0,0,1-5,4c-25.06,10.66-52,10-52,10-59.53,0-63.65-8.06-65-11-1.66-3.61-1.49-7.68-.42-11.66.28-1,.61-2,1-3a15.13,15.13,0,0,1,4.64-3.16l117.77,5.84h0C548.75,465.44,549.25,469.18,547.27,472.35Z"/><path class="cls-17" d="M548.27,463c0,.1,0,.2,0,.31C547.33,471.09,512,479,480.91,478c-24.51-.78-54.3-7.31-56.06-14.32a2.89,2.89,0,0,1-.08-.65,3.59,3.59,0,0,1,1.07-2.37,15.13,15.13,0,0,1,4.64-3.16c10.09-4.93,31.79-8.86,50.43-9.44C512.36,447.08,548.27,455.19,548.27,463Z"/><path class="cls-16" d="M583.27,434.35a10.56,10.56,0,0,1-5,4c-25.06,10.66-52,10-52,10-59.53,0-63.65-8.06-65-11-1.66-3.61-1.49-7.68-.42-11.66.28-1,.61-2,1-3a15.13,15.13,0,0,1,4.64-3.16l117.77,5.84h0C584.75,427.44,585.25,431.18,583.27,434.35Z"/><path class="cls-17" d="M584.27,425c0,.1,0,.2,0,.31C583.33,433.09,548,441,516.91,440c-24.51-.78-54.3-7.31-56.06-14.32a2.89,2.89,0,0,1-.08-.65,3.59,3.59,0,0,1,1.07-2.37,15.13,15.13,0,0,1,4.64-3.16c10.09-4.93,31.79-8.86,50.43-9.44C548.36,409.08,584.27,417.19,584.27,425Z"/><path class="cls-16" d="M647.27,415.35a10.56,10.56,0,0,1-5,4c-25.06,10.66-52,10-52,10-59.53,0-63.65-8.06-65-11-1.66-3.61-1.49-7.68-.42-11.66.28-1,.61-2,1-3a15.13,15.13,0,0,1,4.64-3.16l117.77,5.84h0C648.75,408.44,649.25,412.18,647.27,415.35Z"/><path class="cls-17" d="M648.27,406c0,.1,0,.2,0,.31C647.33,414.09,612,422,580.91,421c-24.51-.78-54.3-7.31-56.06-14.32a2.89,2.89,0,0,1-.08-.65,3.59,3.59,0,0,1,1.07-2.37,15.13,15.13,0,0,1,4.64-3.16c10.09-4.93,31.79-8.86,50.43-9.44C612.36,390.08,648.27,398.19,648.27,406Z"/><path class="cls-16" d="M709.27,396.35a10.56,10.56,0,0,1-5,4c-25.06,10.66-52,10-52,10-59.53,0-63.65-8.06-65-11-1.66-3.61-1.49-7.68-.42-11.66.28-1,.61-2,1-3a15.13,15.13,0,0,1,4.64-3.16l117.77,5.84h0C710.75,389.44,711.25,393.18,709.27,396.35Z"/><path class="cls-17" d="M710.27,387c0,.1,0,.2,0,.31C709.33,395.09,674,403,642.91,402c-24.51-.78-54.3-7.31-56.06-14.32a2.89,2.89,0,0,1-.08-.65,3.59,3.59,0,0,1,1.07-2.37,15.13,15.13,0,0,1,4.64-3.16c10.09-4.93,31.79-8.86,50.43-9.44C674.36,371.08,710.27,379.19,710.27,387Z"/><path class="cls-16" d="M750.27,377.35a10.56,10.56,0,0,1-5,4c-25.06,10.66-52,10-52,10-59.53,0-63.65-8.06-65-11-1.66-3.61-1.49-7.68-.42-11.66.28-1,.61-2,1-3a15.13,15.13,0,0,1,4.64-3.16l117.77,5.84h0C751.75,370.44,752.25,374.18,750.27,377.35Z"/><path class="cls-17" d="M751.27,368c0,.1,0,.2,0,.31C750.33,376.09,715,384,683.91,383c-24.51-.78-54.3-7.31-56.06-14.32a2.89,2.89,0,0,1-.08-.65,3.59,3.59,0,0,1,1.07-2.37,15.13,15.13,0,0,1,4.64-3.16c10.09-4.93,31.79-8.86,50.43-9.44C715.36,352.08,751.27,360.19,751.27,368Z"/><path class="cls-16" d="M838.27,415.35a10.56,10.56,0,0,1-5,4c-25.06,10.66-52,10-52,10-59.53,0-63.65-8.06-65-11-1.66-3.61-1.49-7.68-.42-11.66.28-1,.61-2,1-3a15.13,15.13,0,0,1,4.64-3.16l117.77,5.84h0C839.75,408.44,840.25,412.18,838.27,415.35Z"/><path class="cls-17" d="M839.27,406c0,.1,0,.2,0,.31C838.33,414.09,803,422,771.91,421c-24.51-.78-54.3-7.31-56.06-14.32a2.89,2.89,0,0,1-.08-.65,3.59,3.59,0,0,1,1.07-2.37,15.13,15.13,0,0,1,4.64-3.16c10.09-4.93,31.79-8.86,50.43-9.44C803.36,390.08,839.27,398.19,839.27,406Z"/><path class="cls-18" d="M731.27,460.35a10.56,10.56,0,0,1-5,4c-25.06,10.66-52,10-52,10-59.53,0-63.65-8.06-65-11-1.66-3.61-1.49-7.68-.42-11.66.28-1,.61-2,1-3a15.13,15.13,0,0,1,4.64-3.16l117.77,5.84h0C732.75,453.44,733.25,457.18,731.27,460.35Z"/><path class="cls-19" d="M732.27,451c0,.1,0,.2,0,.31C731.33,459.09,696,467,664.91,466c-24.51-.78-54.3-7.31-56.06-14.32a2.89,2.89,0,0,1-.08-.65,3.59,3.59,0,0,1,1.07-2.37,15.13,15.13,0,0,1,4.64-3.16c10.09-4.93,31.79-8.86,50.43-9.44C696.36,435.08,732.27,443.19,732.27,451Z"/><path class="cls-16" d="M663.27,509.35a10.56,10.56,0,0,1-5,4c-25.06,10.66-52,10-52,10-59.53,0-63.65-8.06-65-11-1.66-3.61-1.49-7.68-.42-11.66.28-1,.61-2,1-3a15.13,15.13,0,0,1,4.64-3.16l117.77,5.84h0C664.75,502.44,665.25,506.18,663.27,509.35Z"/><path class="cls-17" d="M664.27,500c0,.1,0,.2,0,.31C663.33,508.09,628,516,596.91,515c-24.51-.78-54.3-7.31-56.06-14.32a2.89,2.89,0,0,1-.08-.65,3.59,3.59,0,0,1,1.07-2.37,15.13,15.13,0,0,1,4.64-3.16c10.09-4.93,31.79-8.86,50.43-9.44C628.36,484.08,664.27,492.19,664.27,500Z"/><path class="cls-16" d="M555.27,505.35a10.56,10.56,0,0,1-5,4c-25.06,10.66-52,10-52,10-59.53,0-63.65-8.06-65-11-1.66-3.61-1.49-7.68-.42-11.66.28-1,.61-2,1-3a15.13,15.13,0,0,1,4.64-3.16l117.77,5.84h0C556.75,498.44,557.25,502.18,555.27,505.35Z"/><path class="cls-17" d="M556.27,496c0,.1,0,.2,0,.31C555.33,504.09,520,512,488.91,511c-24.51-.78-54.3-7.31-56.06-14.32a2.89,2.89,0,0,1-.08-.65,3.59,3.59,0,0,1,1.07-2.37,15.13,15.13,0,0,1,4.64-3.16c10.09-4.93,31.79-8.86,50.43-9.44C520.36,480.08,556.27,488.19,556.27,496Z"/><path class="cls-16" d="M640.27,479.35a10.56,10.56,0,0,1-5,4c-25.06,10.66-52,10-52,10-59.53,0-63.65-8.06-65-11-1.66-3.61-1.49-7.68-.42-11.66.28-1,.61-2,1-3a15.13,15.13,0,0,1,4.64-3.16l117.77,5.84h0C641.75,472.44,642.25,476.18,640.27,479.35Z"/><path class="cls-17" d="M641.27,470c0,.1,0,.2,0,.31C640.33,478.09,605,486,573.91,485c-24.51-.78-54.3-7.31-56.06-14.32a2.89,2.89,0,0,1-.08-.65,3.59,3.59,0,0,1,1.07-2.37,15.13,15.13,0,0,1,4.64-3.16c10.09-4.93,31.79-8.86,50.43-9.44C605.36,454.08,641.27,462.19,641.27,470Z"/><path class="cls-16" d="M597.27,450.35a10.56,10.56,0,0,1-5,4c-25.06,10.66-52,10-52,10-59.53,0-63.65-8.06-65-11-1.66-3.61-1.49-7.68-.42-11.66.28-1,.61-2,1-3a15.13,15.13,0,0,1,4.64-3.16l117.77,5.84h0C598.75,443.44,599.25,447.18,597.27,450.35Z"/><path class="cls-17" d="M598.27,441c0,.1,0,.2,0,.31C597.33,449.09,562,457,530.91,456c-24.51-.78-54.3-7.31-56.06-14.32a2.89,2.89,0,0,1-.08-.65,3.59,3.59,0,0,1,1.07-2.37,15.13,15.13,0,0,1,4.64-3.16c10.09-4.93,31.79-8.86,50.43-9.44C562.36,425.08,598.27,433.19,598.27,441Z"/><path class="cls-16" d="M679.27,446.35a10.56,10.56,0,0,1-5,4c-25.06,10.66-52,10-52,10-59.53,0-63.65-8.06-65-11-1.66-3.61-1.49-7.68-.42-11.66.28-1,.61-2,1-3a15.13,15.13,0,0,1,4.64-3.16l117.77,5.84h0C680.75,439.44,681.25,443.18,679.27,446.35Z"/><path class="cls-17" d="M680.27,437c0,.1,0,.2,0,.31C679.33,445.09,644,453,612.91,452c-24.51-.78-54.3-7.31-56.06-14.32a2.89,2.89,0,0,1-.08-.65,3.59,3.59,0,0,1,1.07-2.37,15.13,15.13,0,0,1,4.64-3.16c10.09-4.93,31.79-8.86,50.43-9.44C644.36,421.08,680.27,429.19,680.27,437Z"/><path class="cls-16" d="M609.27,540.35a10.56,10.56,0,0,1-5,4c-25.06,10.66-52,10-52,10-59.53,0-63.65-8.06-65-11-1.66-3.61-1.49-7.68-.42-11.66.28-1,.61-2,1-3a15.13,15.13,0,0,1,4.64-3.16l117.77,5.84h0C610.75,533.44,611.25,537.18,609.27,540.35Z"/><path class="cls-17" d="M610.27,531c0,.1,0,.2,0,.31C609.33,539.09,574,547,542.91,546c-24.51-.78-54.3-7.31-56.06-14.32a2.89,2.89,0,0,1-.08-.65,3.59,3.59,0,0,1,1.07-2.37,15.13,15.13,0,0,1,4.64-3.16c10.09-4.93,31.79-8.86,50.43-9.44C574.36,515.08,610.27,523.19,610.27,531Z"/><path class="cls-18" d="M676.27,524.35a10.56,10.56,0,0,1-5,4c-25.06,10.66-52,10-52,10-59.53,0-63.65-8.06-65-11-1.66-3.61-1.49-7.68-.42-11.66.28-1,.61-2,1-3a15.13,15.13,0,0,1,4.64-3.16l117.77,5.84h0C677.75,517.44,678.25,521.18,676.27,524.35Z"/><path class="cls-19" d="M677.27,515c0,.1,0,.2,0,.31C676.33,523.09,641,531,609.91,530c-24.51-.78-54.3-7.31-56.06-14.32a2.89,2.89,0,0,1-.08-.65,3.59,3.59,0,0,1,1.07-2.37,15.13,15.13,0,0,1,4.64-3.16c10.09-4.93,31.79-8.86,50.43-9.44C641.36,499.08,677.27,507.19,677.27,515Z"/><path class="cls-16" d="M731.27,504.35a10.56,10.56,0,0,1-5,4c-25.06,10.66-52,10-52,10-59.53,0-63.65-8.06-65-11-1.66-3.61-1.49-7.68-.42-11.66.28-1,.61-2,1-3a15.13,15.13,0,0,1,4.64-3.16l117.77,5.84h0C732.75,497.44,733.25,501.18,731.27,504.35Z"/><path class="cls-17" d="M732.27,495c0,.1,0,.2,0,.31C731.33,503.09,696,511,664.91,510c-24.51-.78-54.3-7.31-56.06-14.32a2.89,2.89,0,0,1-.08-.65,3.59,3.59,0,0,1,1.07-2.37,15.13,15.13,0,0,1,4.64-3.16c10.09-4.93,31.79-8.86,50.43-9.44C696.36,479.08,732.27,487.19,732.27,495Z"/><path class="cls-16" d="M725.27,475.35a10.56,10.56,0,0,1-5,4c-25.06,10.66-52,10-52,10-59.53,0-63.65-8.06-65-11-1.66-3.61-1.49-7.68-.42-11.66.28-1,.61-2,1-3a15.13,15.13,0,0,1,4.64-3.16l117.77,5.84h0C726.75,468.44,727.25,472.18,725.27,475.35Z"/><path class="cls-17" d="M726.27,466c0,.1,0,.2,0,.31C725.33,474.09,690,482,658.91,481c-24.51-.78-54.3-7.31-56.06-14.32a2.89,2.89,0,0,1-.08-.65,3.59,3.59,0,0,1,1.07-2.37,15.13,15.13,0,0,1,4.64-3.16c10.09-4.93,31.79-8.86,50.43-9.44C690.36,450.08,726.27,458.19,726.27,466Z"/><path class="cls-16" d="M822.27,480.35a10.56,10.56,0,0,1-5,4c-25.06,10.66-52,10-52,10-59.53,0-63.65-8.06-65-11-1.66-3.61-1.49-7.68-.42-11.66.28-1,.61-2,1-3a15.13,15.13,0,0,1,4.64-3.16l117.77,5.84h0C823.75,473.44,824.25,477.18,822.27,480.35Z"/><path class="cls-17" d="M823.27,471c0,.1,0,.2,0,.31C822.33,479.09,787,487,755.91,486c-24.51-.78-54.3-7.31-56.06-14.32a2.89,2.89,0,0,1-.08-.65,3.59,3.59,0,0,1,1.07-2.37,15.13,15.13,0,0,1,4.64-3.16c10.09-4.93,31.79-8.86,50.43-9.44C787.36,455.08,823.27,463.19,823.27,471Z"/><path class="cls-18" d="M863.27,450.35a10.56,10.56,0,0,1-5,4c-25.06,10.66-52,10-52,10-59.53,0-63.65-8.06-65-11-1.66-3.61-1.49-7.68-.42-11.66.28-1,.61-2,1-3a15.13,15.13,0,0,1,4.64-3.16l117.77,5.84h0C864.75,443.44,865.25,447.18,863.27,450.35Z"/><path class="cls-19" d="M864.27,441c0,.1,0,.2,0,.31C863.33,449.09,828,457,796.91,456c-24.51-.78-54.3-7.31-56.06-14.32a2.89,2.89,0,0,1-.08-.65,3.59,3.59,0,0,1,1.07-2.37,15.13,15.13,0,0,1,4.64-3.16c10.09-4.93,31.79-8.86,50.43-9.44C828.36,425.08,864.27,433.19,864.27,441Z"/><path class="cls-16" d="M807.27,441.35a10.56,10.56,0,0,1-5,4c-25.06,10.66-52,10-52,10-59.53,0-63.65-8.06-65-11-1.66-3.61-1.49-7.68-.42-11.66.28-1,.61-2,1-3a15.13,15.13,0,0,1,4.64-3.16l117.77,5.84h0C808.75,434.44,809.25,438.18,807.27,441.35Z"/><path class="cls-17" d="M808.27,432c0,.1,0,.2,0,.31C807.33,440.09,772,448,740.91,447c-24.51-.78-54.3-7.31-56.06-14.32a2.89,2.89,0,0,1-.08-.65,3.59,3.59,0,0,1,1.07-2.37,15.13,15.13,0,0,1,4.64-3.16c10.09-4.93,31.79-8.86,50.43-9.44C772.36,416.08,808.27,424.19,808.27,432Z"/><path class="cls-16" d="M750.27,427.35a10.56,10.56,0,0,1-5,4c-25.06,10.66-52,10-52,10-59.53,0-63.65-8.06-65-11-1.66-3.61-1.49-7.68-.42-11.66.28-1,.61-2,1-3a15.13,15.13,0,0,1,4.64-3.16l117.77,5.84h0C751.75,420.44,752.25,424.18,750.27,427.35Z"/><path class="cls-17" d="M751.27,418c0,.1,0,.2,0,.31C750.33,426.09,715,434,683.91,433c-24.51-.78-54.3-7.31-56.06-14.32a2.89,2.89,0,0,1-.08-.65,3.59,3.59,0,0,1,1.07-2.37,15.13,15.13,0,0,1,4.64-3.16c10.09-4.93,31.79-8.86,50.43-9.44C715.36,402.08,751.27,410.19,751.27,418Z"/><path class="cls-16" d="M807.27,405.35a10.56,10.56,0,0,1-5,4c-25.06,10.66-52,10-52,10-59.53,0-63.65-8.06-65-11-1.66-3.61-1.49-7.68-.42-11.66.28-1,.61-2,1-3a15.13,15.13,0,0,1,4.64-3.16l117.77,5.84h0C808.75,398.44,809.25,402.18,807.27,405.35Z"/><path class="cls-17" d="M808.27,396c0,.1,0,.2,0,.31C807.33,404.09,772,412,740.91,411c-24.51-.78-54.3-7.31-56.06-14.32a2.89,2.89,0,0,1-.08-.65,3.59,3.59,0,0,1,1.07-2.37,15.13,15.13,0,0,1,4.64-3.16c10.09-4.93,31.79-8.86,50.43-9.44C772.36,380.08,808.27,388.19,808.27,396Z"/><path class="cls-16" d="M863.27,396.35a10.56,10.56,0,0,1-5,4c-25.06,10.66-52,10-52,10-59.53,0-63.65-8.06-65-11-1.66-3.61-1.49-7.68-.42-11.66.28-1,.61-2,1-3a15.13,15.13,0,0,1,4.64-3.16l117.77,5.84h0C864.75,389.44,865.25,393.18,863.27,396.35Z"/><path class="cls-17" d="M864.27,387c0,.1,0,.2,0,.31C863.33,395.09,828,403,796.91,402c-24.51-.78-54.3-7.31-56.06-14.32a2.89,2.89,0,0,1-.08-.65,3.59,3.59,0,0,1,1.07-2.37,15.13,15.13,0,0,1,4.64-3.16c10.09-4.93,31.79-8.86,50.43-9.44C828.36,371.08,864.27,379.19,864.27,387Z"/><path class="cls-16" d="M911.27,419.35a10.56,10.56,0,0,1-5,4c-25.06,10.66-52,10-52,10-59.53,0-63.65-8.06-65-11-1.66-3.61-1.49-7.68-.42-11.66.28-1,.61-2,1-3a15.13,15.13,0,0,1,4.64-3.16l117.77,5.84h0C912.75,412.44,913.25,416.18,911.27,419.35Z"/><path class="cls-17" d="M912.27,410c0,.1,0,.2,0,.31C911.33,418.09,876,426,844.91,425c-24.51-.78-54.3-7.31-56.06-14.32a2.89,2.89,0,0,1-.08-.65,3.59,3.59,0,0,1,1.07-2.37,15.13,15.13,0,0,1,4.64-3.16c10.09-4.93,31.79-8.86,50.43-9.44C876.36,394.08,912.27,402.19,912.27,410Z"/><path class="cls-16" d="M931.27,438.35a10.56,10.56,0,0,1-5,4c-25.06,10.66-52,10-52,10-59.53,0-63.65-8.06-65-11-1.66-3.61-1.49-7.68-.42-11.66.28-1,.61-2,1-3a15.13,15.13,0,0,1,4.64-3.16l117.77,5.84h0C932.75,431.44,933.25,435.18,931.27,438.35Z"/><path class="cls-17" d="M932.27,429c0,.1,0,.2,0,.31C931.33,437.09,896,445,864.91,444c-24.51-.78-54.3-7.31-56.06-14.32a2.89,2.89,0,0,1-.08-.65,3.59,3.59,0,0,1,1.07-2.37,15.13,15.13,0,0,1,4.64-3.16c10.09-4.93,31.79-8.86,50.43-9.44C896.36,413.08,932.27,421.19,932.27,429Z"/><path class="cls-16" d="M479.27,511.35a10.56,10.56,0,0,1-5,4c-25.06,10.66-52,10-52,10-59.53,0-63.65-8.06-65-11-1.66-3.61-1.49-7.68-.42-11.66.28-1,.61-2,1-3a15.13,15.13,0,0,1,4.64-3.16l117.77,5.84h0C480.75,504.44,481.25,508.18,479.27,511.35Z"/><path class="cls-17" d="M480.27,502c0,.1,0,.2,0,.31C479.33,510.09,444,518,412.91,517c-24.51-.78-54.3-7.31-56.06-14.32a2.89,2.89,0,0,1-.08-.65,3.59,3.59,0,0,1,1.07-2.37,15.13,15.13,0,0,1,4.64-3.16c10.09-4.93,31.79-8.86,50.43-9.44C444.36,486.08,480.27,494.19,480.27,502Z"/><path class="cls-16" d="M521.27,530.35a10.56,10.56,0,0,1-5,4c-25.06,10.66-52,10-52,10-59.53,0-63.65-8.06-65-11-1.66-3.61-1.49-7.68-.42-11.66.28-1,.61-2,1-3a15.13,15.13,0,0,1,4.64-3.16l117.77,5.84h0C522.75,523.44,523.25,527.18,521.27,530.35Z"/><path class="cls-17" d="M522.27,521c0,.1,0,.2,0,.31C521.33,529.09,486,537,454.91,536c-24.51-.78-54.3-7.31-56.06-14.32a2.89,2.89,0,0,1-.08-.65,3.59,3.59,0,0,1,1.07-2.37,15.13,15.13,0,0,1,4.64-3.16c10.09-4.93,31.79-8.86,50.43-9.44C486.36,505.08,522.27,513.19,522.27,521Z"/><path class="cls-16" d="M812.27,372.35a10.56,10.56,0,0,1-5,4c-25.06,10.66-52,10-52,10-59.53,0-63.65-8.06-65-11-1.66-3.61-1.49-7.68-.42-11.66.28-1,.61-2,1-3a15.13,15.13,0,0,1,4.64-3.16l117.77,5.84h0C813.75,365.44,814.25,369.18,812.27,372.35Z"/><path class="cls-17" d="M813.27,363c0,.1,0,.2,0,.31C812.33,371.09,777,379,745.91,378c-24.51-.78-54.3-7.31-56.06-14.32a2.89,2.89,0,0,1-.08-.65,3.59,3.59,0,0,1,1.07-2.37,15.13,15.13,0,0,1,4.64-3.16c10.09-4.93,31.79-8.86,50.43-9.44C777.36,347.08,813.27,355.19,813.27,363Z"/><path class="cls-16" d="M776.27,346.35a10.56,10.56,0,0,1-5,4c-25.06,10.66-52,10-52,10-59.53,0-63.65-8.06-65-11-1.66-3.61-1.49-7.68-.42-11.66.28-1,.61-2,1-3a15.13,15.13,0,0,1,4.64-3.16l117.77,5.84h0C777.75,339.44,778.25,343.18,776.27,346.35Z"/><path class="cls-17" d="M777.27,337c0,.1,0,.2,0,.31C776.33,345.09,741,353,709.91,352c-24.51-.78-54.3-7.31-56.06-14.32a2.89,2.89,0,0,1-.08-.65,3.59,3.59,0,0,1,1.07-2.37,15.13,15.13,0,0,1,4.64-3.16c10.09-4.93,31.79-8.86,50.43-9.44C741.36,321.08,777.27,329.19,777.27,337Z"/><path class="cls-16" d="M745.27,360.35a10.56,10.56,0,0,1-5,4c-25.06,10.66-52,10-52,10-59.53,0-63.65-8.06-65-11-1.66-3.61-1.49-7.68-.42-11.66.28-1,.61-2,1-3a15.13,15.13,0,0,1,4.64-3.16l117.77,5.84h0C746.75,353.44,747.25,357.18,745.27,360.35Z"/><path class="cls-17" d="M746.27,351c0,.1,0,.2,0,.31C745.33,359.09,710,367,678.91,366c-24.51-.78-54.3-7.31-56.06-14.32a2.89,2.89,0,0,1-.08-.65,3.59,3.59,0,0,1,1.07-2.37,15.13,15.13,0,0,1,4.64-3.16c10.09-4.93,31.79-8.86,50.43-9.44C710.36,335.08,746.27,343.19,746.27,351Z"/><path class="cls-16" d="M694.27,351.35a10.56,10.56,0,0,1-5,4c-25.06,10.66-52,10-52,10-59.53,0-63.65-8.06-65-11-1.66-3.61-1.49-7.68-.42-11.66.28-1,.61-2,1-3a15.13,15.13,0,0,1,4.64-3.16l117.77,5.84h0C695.75,344.44,696.25,348.18,694.27,351.35Z"/><path class="cls-17" d="M695.27,342c0,.1,0,.2,0,.31C694.33,350.09,659,358,627.91,357c-24.51-.78-54.3-7.31-56.06-14.32a2.89,2.89,0,0,1-.08-.65,3.59,3.59,0,0,1,1.07-2.37,15.13,15.13,0,0,1,4.64-3.16c10.09-4.93,31.79-8.86,50.43-9.44C659.36,326.08,695.27,334.19,695.27,342Z"/><path class="cls-16" d="M726.27,328.35a10.56,10.56,0,0,1-5,4c-25.06,10.66-52,10-52,10-59.53,0-63.65-8.06-65-11-1.66-3.61-1.49-7.68-.42-11.66.28-1,.61-2,1-3a15.13,15.13,0,0,1,4.64-3.16l117.77,5.84h0C727.75,321.44,728.25,325.18,726.27,328.35Z"/><path class="cls-17" d="M727.27,319c0,.1,0,.2,0,.31C726.33,327.09,691,335,659.91,334c-24.51-.78-54.3-7.31-56.06-14.32a2.89,2.89,0,0,1-.08-.65,3.59,3.59,0,0,1,1.07-2.37,15.13,15.13,0,0,1,4.64-3.16c10.09-4.93,31.79-8.86,50.43-9.44C691.36,303.08,727.27,311.19,727.27,319Z"/><path class="cls-16" d="M645.27,370.35a10.56,10.56,0,0,1-5,4c-25.06,10.66-52,10-52,10-59.53,0-63.65-8.06-65-11-1.66-3.61-1.49-7.68-.42-11.66.28-1,.61-2,1-3a15.13,15.13,0,0,1,4.64-3.16l117.77,5.84h0C646.75,363.44,647.25,367.18,645.27,370.35Z"/><path class="cls-17" d="M646.27,361c0,.1,0,.2,0,.31C645.33,369.09,610,377,578.91,376c-24.51-.78-54.3-7.31-56.06-14.32a2.89,2.89,0,0,1-.08-.65,3.59,3.59,0,0,1,1.07-2.37,15.13,15.13,0,0,1,4.64-3.16c10.09-4.93,31.79-8.86,50.43-9.44C610.36,345.08,646.27,353.19,646.27,361Z"/><path class="cls-16" d="M617.27,391.35a10.56,10.56,0,0,1-5,4c-25.06,10.66-52,10-52,10-59.53,0-63.65-8.06-65-11-1.66-3.61-1.49-7.68-.42-11.66.28-1,.61-2,1-3a15.13,15.13,0,0,1,4.64-3.16l117.77,5.84h0C618.75,384.44,619.25,388.18,617.27,391.35Z"/><path class="cls-17" d="M618.27,382c0,.1,0,.2,0,.31C617.33,390.09,582,398,550.91,397c-24.51-.78-54.3-7.31-56.06-14.32a2.89,2.89,0,0,1-.08-.65,3.59,3.59,0,0,1,1.07-2.37,15.13,15.13,0,0,1,4.64-3.16c10.09-4.93,31.79-8.86,50.43-9.44C582.36,366.08,618.27,374.19,618.27,382Z"/><path class="cls-16" d="M542.27,407.35a10.56,10.56,0,0,1-5,4c-25.06,10.66-52,10-52,10-59.53,0-63.65-8.06-65-11-1.66-3.61-1.49-7.68-.42-11.66.28-1,.61-2,1-3a15.13,15.13,0,0,1,4.64-3.16l117.77,5.84h0C543.75,400.44,544.25,404.18,542.27,407.35Z"/><path class="cls-17" d="M543.27,398c0,.1,0,.2,0,.31C542.33,406.09,507,414,475.91,413c-24.51-.78-54.3-7.31-56.06-14.32a2.89,2.89,0,0,1-.08-.65,3.59,3.59,0,0,1,1.07-2.37,15.13,15.13,0,0,1,4.64-3.16c10.09-4.93,31.79-8.86,50.43-9.44C507.36,382.08,543.27,390.19,543.27,398Z"/><path class="cls-16" d="M555.27,386.35a10.56,10.56,0,0,1-5,4c-25.06,10.66-52,10-52,10-59.53,0-63.65-8.06-65-11-1.66-3.61-1.49-7.68-.42-11.66.28-1,.61-2,1-3a15.13,15.13,0,0,1,4.64-3.16l117.77,5.84h0C556.75,379.44,557.25,383.18,555.27,386.35Z"/><path class="cls-17" d="M556.27,377c0,.1,0,.2,0,.31C555.33,385.09,520,393,488.91,392c-24.51-.78-54.3-7.31-56.06-14.32a2.89,2.89,0,0,1-.08-.65,3.59,3.59,0,0,1,1.07-2.37,15.13,15.13,0,0,1,4.64-3.16c10.09-4.93,31.79-8.86,50.43-9.44C520.36,361.08,556.27,369.19,556.27,377Z"/><path class="cls-16" d="M597.27,361.35a10.56,10.56,0,0,1-5,4c-25.06,10.66-52,10-52,10-59.53,0-63.65-8.06-65-11-1.66-3.61-1.49-7.68-.42-11.66.28-1,.61-2,1-3a15.13,15.13,0,0,1,4.64-3.16l117.77,5.84h0C598.75,354.44,599.25,358.18,597.27,361.35Z"/><path class="cls-17" d="M598.27,352c0,.1,0,.2,0,.31C597.33,360.09,562,368,530.91,367c-24.51-.78-54.3-7.31-56.06-14.32a2.89,2.89,0,0,1-.08-.65,3.59,3.59,0,0,1,1.07-2.37,15.13,15.13,0,0,1,4.64-3.16c10.09-4.93,31.79-8.86,50.43-9.44C562.36,336.08,598.27,344.19,598.27,352Z"/></g><g id="Diamond"><g id="Diamond-2" data-name="Diamond"><polygon class="cls-20" points="448.69 368.33 449.33 368.97 465.22 462.18 464.83 462.56 432.85 384.17 448.69 368.33"/><polygon class="cls-20" points="464.39 463.01 464.01 463.39 462.79 463.17 370.36 446.66 386.39 430.64 464.39 463.01"/><polygon class="cls-21" points="448.25 367.88 448.69 368.33 433.12 383.9 430.87 365.68 448.25 367.88"/><polygon class="cls-22" points="417.1 399.93 414.87 381.68 433.12 383.9 417.1 399.93"/><polygon class="cls-23" points="396.62 379.45 414.87 381.68 412.64 363.43 396.62 379.45"/><polygon class="cls-23" points="380.6 395.48 398.85 397.7 396.62 379.45 380.6 395.48"/><polygon class="cls-23" points="364.58 411.5 382.83 413.72 380.6 395.48 364.58 411.5"/><polygon class="cls-22" points="401.07 415.95 398.85 397.7 417.1 399.93 401.07 415.95"/><polygon class="cls-22" points="385.05 431.97 382.83 413.72 401.07 415.95 385.05 431.97"/><polygon class="cls-21" points="385.05 431.97 370.36 446.66 368.92 445.22 366.92 429.63 385.05 431.97"/><polygon class="cls-23" points="414.87 381.68 433.12 383.9 430.89 365.66 414.87 381.68"/><polygon class="cls-22" points="414.87 381.68 412.64 363.43 430.89 365.66 414.87 381.68"/><polygon class="cls-23" points="398.85 397.7 417.1 399.93 414.87 381.68 398.85 397.7"/><polygon class="cls-23" points="382.83 413.72 401.07 415.95 398.85 397.7 382.83 413.72"/><polygon class="cls-23" points="366.8 429.75 385.05 431.97 382.83 413.72 366.8 429.75"/><polygon class="cls-22" points="366.8 429.75 364.58 411.5 382.83 413.72 366.8 429.75"/><polygon class="cls-22" points="382.83 413.72 380.6 395.48 398.85 397.7 382.83 413.72"/><polygon class="cls-22" points="398.85 397.7 396.62 379.45 414.87 381.68 398.85 397.7"/><path class="cls-24" d="M385.05,432l77.74,31.2,1.22.22.94-.94-31.83-78.54Z"/></g></g><g id="Ruby"><g id="Ruby-2" data-name="Ruby"><polygon class="cls-25" points="607.13 381.47 659.75 406.27 659.75 350.17 607.13 381.47"/><polygon class="cls-26" points="607.13 381.47 596.23 381.47 665.78 415.31 659.75 406.27 607.13 381.47"/><polygon class="cls-27" points="665.78 415.31 665.78 338.35 659.75 350.17 659.75 406.27 665.78 415.31"/><polygon class="cls-28" points="596.23 381.47 665.78 338.35 659.75 350.17 607.13 381.47 596.23 381.47"/></g></g><g id="Emerald"><g id="Emerald-2" data-name="Emerald"><polygon class="cls-29" points="794.46 389.64 776.2 389.64 767.07 405.45 776.2 421.27 794.46 421.27 803.6 405.45 794.46 389.64"/><polygon class="cls-30" points="776.21 389.64 762.67 376.1 751.27 406.67 767.08 405.45 776.21 389.64"/><polygon class="cls-31" points="762.52 376.25 812.1 376.25 794.46 389.64 776.21 389.64 762.52 376.25"/><polygon class="cls-32" points="794.46 389.64 812.1 376.25 824.27 405.45 803.58 405.45 794.46 389.64"/><polygon class="cls-32" points="767.08 405.45 751.27 406.67 767.08 434.35 776.21 421.27 767.08 405.45"/><polygon class="cls-31" points="767.08 434.35 803.58 434.35 794.46 421.27 776.21 421.27 767.08 434.35"/><polygon class="cls-30" points="824.27 405.45 803.58 434.35 794.46 421.27 803.58 405.45 824.27 405.45"/></g></g><g id="Lion_Eye" data-name="Lion Eye"><g id="Lion_Eye-2" data-name="Lion Eye"><polygon class="cls-33" points="547.82 482.58 527.29 494.03 535.93 502.67 550.98 492.45 547.82 482.58"/><polygon class="cls-34" points="527.29 494.03 517.02 513.38 528.27 515.17 535.98 502.72 527.29 494.03"/><polygon class="cls-35" points="517.02 513.38 525.71 530.75 532.03 524.44 528.28 515.16 517.02 513.38"/><polygon class="cls-36" points="573.89 508.64 562.43 529.17 553.8 520.54 564.01 505.48 573.89 508.64"/><polygon class="cls-37" points="562.43 529.17 543.09 539.44 541.3 528.2 553.75 520.49 562.43 529.17"/><polygon class="cls-38" points="543.09 539.44 525.71 530.75 532.03 524.44 541.31 528.19 543.09 539.44"/><path class="cls-39" d="M578,478.43s-25.86,66.15-46,46S578,478.43,578,478.43Z"/><polygon class="cls-40" points="578.03 478.43 586.52 469.94 573.89 508.64 564.53 505.85 578.03 478.43"/><polygon class="cls-41" points="578.03 478.43 586.52 469.94 547.82 482.58 550.62 491.94 578.03 478.43"/></g></g></g></svg>