<svg xmlns="http://www.w3.org/2000/svg" width="694" height="694" viewBox="0 0 694 694">
  <defs>
    <style>
      .cls-1 {
        fill: #622e14;
      }

      .cls-2 {
        fill: #854623;
      }

      .cls-3 {
        fill: #ffd62a;
      }

      .cls-4 {
        fill: #803a1a;
      }

      .cls-5, .cls-6, .cls-7 {
        fill: none;
      }

      .cls-5, .cls-6 {
        stroke: #622e14;
        stroke-miterlimit: 10;
      }

      .cls-6 {
        stroke-width: 0.75px;
      }
    </style>
  </defs>
  <title>shipwheel</title>
  <g id="Lag_2" data-name="Lag 2">
    <g id="Lag_1-2" data-name="Lag 1">
      <g id="shipwheel">
        <g>
          <g>
            <rect class="cls-1" x="338.25" y="112.23" width="20.03" height="207.02"/>
            <path class="cls-2" d="M373.72,38.19l-.78,7.38-7.85,51.87,1.44,9c0,9.54-8.53,17.28-19.06,17.28s-19.06-7.74-19.06-17.28l.72-9.88-7.13-51-.78-7.38c0-16.81,11.75-30.44,26.25-30.44S373.72,21.38,373.72,38.19Z"/>
            <rect class="cls-3" x="337.72" y="121.74" width="21" height="2.59"/>
          </g>
          <g>
            <rect class="cls-1" x="337.25" y="374.75" width="20.03" height="207.02"/>
            <path class="cls-2" d="M372.72,655.81l-.78-7.38-7.85-51.87,1.44-9c0-9.54-8.53-17.28-19.06-17.28s-19.06,7.74-19.06,17.28l.72,9.88-7.13,51-.78,7.38c0,16.81,11.75,30.44,26.25,30.44S372.72,672.62,372.72,655.81Z"/>
            <rect class="cls-3" x="336.72" y="569.68" width="21" height="2.59"/>
          </g>
          <g>
            <rect class="cls-1" x="228" y="164.31" width="20.03" height="207.02" transform="translate(-118.76 300.8) rotate(-53.65)"/>
            <path class="cls-2" d="M110.1,142.09l5.49,5,37.11,37.06,8.14,4.21c7.69,5.66,8.87,17.11,2.63,25.59s-17.53,10.77-25.22,5.11l-7.52-6.43L85.39,188.12,79,184.38c-13.54-10-17.56-27.51-9-39.19S96.56,132.13,110.1,142.09Z"/>
            <rect class="cls-3" x="152.82" y="211.62" width="21" height="2.59" transform="translate(-104.96 218.26) rotate(-53.65)"/>
          </g>
          <g>
            <rect class="cls-1" x="227" y="320.35" width="20.03" height="207.02" transform="translate(437.93 -18.26) rotate(53.65)"/>
            <path class="cls-2" d="M109.1,549.58l5.49-5,37.11-37.06,8.14-4.21c7.69-5.66,8.87-17.11,2.63-25.59s-17.53-10.77-25.22-5.11L129.73,479,84.39,503.55,78,507.29c-13.54,10-17.56,27.51-9,39.19S95.56,559.54,109.1,549.58Z"/>
            <rect class="cls-3" x="151.82" y="477.47" width="21" height="2.59" transform="translate(451.73 64.27) rotate(53.65)"/>
          </g>
          <g>
            <rect class="cls-1" x="446.96" y="321.35" width="20.03" height="207.02" transform="translate(1070.02 308.59) rotate(126.35)"/>
            <path class="cls-2" d="M584.9,550.58l-5.49-5L542.3,508.52l-8.14-4.21c-7.69-5.66-8.87-17.11-2.63-25.59s17.53-10.77,25.22-5.11l7.52,6.43,45.34,24.51,6.4,3.74c13.54,10,17.56,27.51,9,39.19S598.44,560.54,584.9,550.58Z"/>
            <rect class="cls-3" x="521.18" y="478.47" width="21" height="2.59" transform="translate(1233.22 335.87) rotate(126.35)"/>
          </g>
          <g>
            <rect class="cls-1" x="446.96" y="166.31" width="20.03" height="207.02" transform="translate(510.5 797.8) rotate(-126.35)"/>
            <path class="cls-2" d="M584.9,144.09l-5.49,5L542.3,186.15l-8.14,4.21c-7.69,5.66-8.87,17.11-2.63,25.59s17.53,10.77,25.22,5.11l7.52-6.43,45.34-24.51,6.4-3.74c13.54-10,17.56-27.51,9-39.19S598.44,134.13,584.9,144.09Z"/>
            <rect class="cls-3" x="521.18" y="213.62" width="21" height="2.59" transform="translate(673.7 770.52) rotate(-126.35)"/>
          </g>
          <path class="cls-4" d="M345.72,152.25c-107.42,0-194.5,87.08-194.5,194.5s87.08,194.5,194.5,194.5,194.5-87.08,194.5-194.5S453.14,152.25,345.72,152.25Zm0,340.38A145.88,145.88,0,1,1,491.6,346.75,145.89,145.89,0,0,1,345.72,492.63Z"/>
          <path class="cls-4" d="M345.72,305.25a41.5,41.5,0,1,0,41.5,41.5A41.5,41.5,0,0,0,345.72,305.25Zm0,62.5a21,21,0,1,1,21-21A21,21,0,0,1,345.72,367.75Z"/>
          <line class="cls-5" x1="204.22" y1="213.25" x2="239.22" y2="246.25"/>
          <line class="cls-5" x1="451.22" y1="447.25" x2="486.22" y2="480.25"/>
          <line class="cls-6" x1="460.22" y1="256.25" x2="498.22" y2="226.25"/>
          <line class="cls-5" x1="193.22" y1="468.25" x2="231.22" y2="438.25"/>
        </g>
        <rect class="cls-7" width="694" height="694"/>
      </g>
    </g>
  </g>
</svg>
