<svg id="Layer_1" data-name="Layer 1" xmlns="http://www.w3.org/2000/svg" viewBox="0 0 1200 300">
  <defs>
    <style>
      .cls-1 {
        opacity: 0.9;
      }

      .cls-2 {
        fill: #666;
      }

      .cls-3 {
        fill: #848484;
      }

      .cls-4 {
        fill: #9b9b9b;
      }

      .cls-5, .cls-8 {
        fill: #bcbcbc;
      }

      .cls-6 {
        opacity: 0.81;
      }

      .cls-7 {
        opacity: 0.57;
      }

      .cls-8 {
        opacity: 0.4;
      }
    </style>
  </defs>
  <title>røgsky</title>
  <g class="cls-1">
    <path class="cls-2" d="M256.47,182.11a59.3,59.3,0,0,0-.49-74.78,59.28,59.28,0,0,0-58.74-51.24c-.7,0-1.41,0-2.11,0a70.94,70.94,0,0,0-76.5.09c-1.27-.09-2.54-.13-3.83-.13A59.29,59.29,0,0,0,56.67,103.7,60.21,60.21,0,0,0,86,213.39,59.38,59.38,0,0,0,126.21,243a59.36,59.36,0,0,0,68.25,1.1c.92,0,1.85.06,2.78.06a59.28,59.28,0,0,0,59.29-59.28C256.53,183.94,256.51,183,256.47,182.11Z"/>
    <path class="cls-3" d="M234.35,174.65a45.65,45.65,0,0,0-.37-57.58,45.65,45.65,0,0,0-45.22-39.45c-.55,0-1.1,0-1.63,0a54.59,54.59,0,0,0-58.9.07c-1-.07-2-.1-2.95-.1a45.65,45.65,0,0,0-44.75,36.65,46.36,46.36,0,0,0,22.55,84.45,45.68,45.68,0,0,0,31,22.78,45.64,45.64,0,0,0,52.54.85c.71,0,1.43.05,2.15.05a45.64,45.64,0,0,0,45.64-45.64C234.4,176.05,234.39,175.34,234.35,174.65Z"/>
    <path class="cls-4" d="M224,170.87a38.75,38.75,0,0,0-.32-48.88,38.75,38.75,0,0,0-38.39-33.5c-.46,0-.93,0-1.38,0a46.37,46.37,0,0,0-50,.06c-.83-.06-1.67-.09-2.51-.09a38.76,38.76,0,0,0-38,31.12,39.36,39.36,0,0,0,19.16,71.71,38.8,38.8,0,0,0,26.3,19.34,38.79,38.79,0,0,0,44.61.72c.61,0,1.21,0,1.83,0A38.75,38.75,0,0,0,224,172.67C224,172.07,224,171.47,224,170.87Z"/>
    <path class="cls-5" d="M213.29,167.61a32.8,32.8,0,0,0-.27-41.37,32.8,32.8,0,0,0-32.5-28.35c-.39,0-.78,0-1.17,0A39.24,39.24,0,0,0,137,98c-.7,0-1.41-.07-2.12-.07a32.81,32.81,0,0,0-32.17,26.34A33.31,33.31,0,0,0,119,184.92a32.83,32.83,0,0,0,22.26,16.37,32.84,32.84,0,0,0,37.76.61c.51,0,1,0,1.54,0a32.79,32.79,0,0,0,32.8-32.8C213.32,168.62,213.31,168.12,213.29,167.61Z"/>
  </g>
  <g class="cls-6">
    <path class="cls-3" d="M533.85,150.65a45.65,45.65,0,0,0-.37-57.58,45.65,45.65,0,0,0-45.22-39.45c-.55,0-1.1,0-1.63,0a54.59,54.59,0,0,0-58.9.07c-1-.07-2-.1-3-.1A45.65,45.65,0,0,0,380,90.27a46.36,46.36,0,0,0,22.55,84.45,45.68,45.68,0,0,0,31,22.78,45.64,45.64,0,0,0,52.54.85c.71,0,1.43.05,2.15.05a45.64,45.64,0,0,0,45.64-45.64C533.9,152.05,533.89,151.34,533.85,150.65Z"/>
    <path class="cls-4" d="M523.48,146.87A38.75,38.75,0,0,0,523.16,98a38.75,38.75,0,0,0-38.39-33.5c-.46,0-.93,0-1.38,0a46.37,46.37,0,0,0-50,.06c-.83-.06-1.67-.09-2.51-.09a38.76,38.76,0,0,0-38,31.12A39.36,39.36,0,0,0,412,167.32a38.8,38.8,0,0,0,26.3,19.34,38.79,38.79,0,0,0,44.61.72c.61,0,1.21,0,1.83,0a38.75,38.75,0,0,0,38.75-38.75C523.52,148.07,523.51,147.47,523.48,146.87Z"/>
    <path class="cls-5" d="M512.79,143.61a32.8,32.8,0,0,0-.27-41.37A32.8,32.8,0,0,0,480,73.89c-.39,0-.78,0-1.17,0a39.24,39.24,0,0,0-42.32,0c-.7,0-1.41-.07-2.12-.07a32.81,32.81,0,0,0-32.17,26.34,33.31,33.31,0,0,0,16.22,60.69,32.83,32.83,0,0,0,22.26,16.37,32.84,32.84,0,0,0,37.76.61c.51,0,1,0,1.54,0a32.79,32.79,0,0,0,32.8-32.8C512.82,144.62,512.81,144.12,512.79,143.61Z"/>
  </g>
  <g class="cls-7">
    <path class="cls-4" d="M829.48,108.87A38.75,38.75,0,0,0,829.16,60a38.75,38.75,0,0,0-38.39-33.5c-.46,0-.93,0-1.38,0a46.37,46.37,0,0,0-50,.06c-.83-.06-1.67-.09-2.51-.09a38.76,38.76,0,0,0-38,31.12A39.36,39.36,0,0,0,718,129.32a38.8,38.8,0,0,0,26.3,19.34,38.79,38.79,0,0,0,44.61.72c.61,0,1.21,0,1.83,0a38.75,38.75,0,0,0,38.75-38.75C829.52,110.07,829.51,109.47,829.48,108.87Z"/>
    <path class="cls-5" d="M818.79,105.61a32.8,32.8,0,0,0-.27-41.37A32.8,32.8,0,0,0,786,35.89c-.39,0-.78,0-1.17,0a39.24,39.24,0,0,0-42.32.05c-.7-.05-1.41-.07-2.12-.07a32.81,32.81,0,0,0-32.17,26.34,33.31,33.31,0,0,0,16.22,60.69,32.83,32.83,0,0,0,22.26,16.37,32.84,32.84,0,0,0,37.76.61c.51,0,1,0,1.54,0a32.79,32.79,0,0,0,32.8-32.8C818.82,106.62,818.81,106.12,818.79,105.61Z"/>
  </g>
  <path class="cls-8" d="M1112.79,76.61a32.8,32.8,0,0,0-.27-41.37A32.8,32.8,0,0,0,1080,6.89c-.39,0-.78,0-1.17,0a39.24,39.24,0,0,0-42.32,0c-.7,0-1.41-.07-2.12-.07a32.81,32.81,0,0,0-32.17,26.34,33.31,33.31,0,0,0,16.22,60.69,32.83,32.83,0,0,0,22.26,16.37,32.84,32.84,0,0,0,37.76.61c.51,0,1,0,1.54,0a32.79,32.79,0,0,0,32.8-32.8C1112.82,77.62,1112.81,77.12,1112.79,76.61Z"/>
</svg>
