<svg xmlns="http://www.w3.org/2000/svg" width="269.31" height="49" viewBox="0 0 269.31 49">
  <defs>
    <style>
      .cls-1 {
        fill: #97dcff;
      }

      .cls-2 {
        fill: none;
      }

      .cls-3 {
        fill: #161616;
      }

      .cls-4 {
        fill: #262626;
      }
    </style>
  </defs>
  <title>splask_vand</title>
  <g id="Lag_2" data-name="Lag 2">
    <g id="game">
      <g id="cannon_splash">
        <g id="splash4">
          <path class="cls-1" d="M252.48,33.51c-5.18-.08-9.78,0-14.1.14,0,0-6.83.19-8.26.22A144.57,144.57,0,0,1,215,33.51c-.2-.22,1.06-.41,3.09-.58a.56.56,0,0,1,0-.67,1.3,1.3,0,0,1,.1-.15c.63-.73,2.64-1,4.06-.53,0-.28.15-.56.59-.79l.11-.06.12-.05a4.93,4.93,0,0,1,4.2.29l.2.16,1.48,1.18c.69-.69,2.66-.91,4-.46l.32.1,1.84.59,1.79,0,1.64-.86.44-.23a4.91,4.91,0,0,1,4.18.11l1.69-.88.44-.23a4.76,4.76,0,0,1,4.26.17l.08.07.07.07a.62.62,0,0,1,.17.66,2.75,2.75,0,0,1,2.55.34l0,0,0,0c.26.49-.61,1-1.72.94A5.61,5.61,0,0,1,252.48,33.51Z"/>
          <path class="cls-1" d="M211.43,30.6a1.51,1.51,0,0,1,1.37-2H213l3.5-.12a.08.08,0,0,1,.06.14L214.12,31l-.27.26a1.45,1.45,0,0,1-2.35-.51l0-.09Z"/>
          <path class="cls-1" d="M263.44,34.21c-.38.35-1.09.13-1.43-.41l-.08-.12-1.22-2s0-.07.05,0l2,.95.22.11c.59.28.87,1,.53,1.41,0,0,0,0,0,0Z"/>
          <path class="cls-1" d="M248.2,25.6c-.48.2-1.07-.25-1.21-.87l0-.14-.48-2.25c0-.05,0-.08.07,0l1.55,1.58.17.17c.46.46.48,1.25,0,1.51l0,0Z"/>
          <rect class="cls-2" x="201.98" width="67.33" height="49"/>
        </g>
        <g id="splash3">
          <g>
            <path class="cls-3" d="M177.11,33.36l-2,.1-4,.29s-1.64.11-3.47.27-4.06.34-4.79.38c-2.19.13-4.37.19-6.57.11a11.54,11.54,0,0,1,6.59-6.35,10.21,10.21,0,0,1,1-.32,11.61,11.61,0,0,1,13.29,5.52Z"/>
            <path class="cls-4" d="M175.08,33.46l-4,.29s-1.64.11-3.47.27a4.34,4.34,0,0,1,7.47-.56Z"/>
          </g>
          <path class="cls-1" d="M200,35a2.34,2.34,0,0,1-3.47-1.18l-.13-.32-2-5.09a.12.12,0,0,1,.17-.15l4.64,2.62.5.29a2.29,2.29,0,0,1,.53,3.66l-.11.09Z"/>
          <path class="cls-1" d="M138,33.7a2.36,2.36,0,0,1,1.24-3.51l.32-.11,5.2-1.79a.12.12,0,0,1,.14.17l-2.71,4.63-.29.5a2.3,2.3,0,0,1-3.73.35l-.09-.12A.83.83,0,0,1,138,33.7Z"/>
          <path class="cls-1" d="M185.18,33.61c-2.85-.14-5.52-.11-8.07,0l-2,.1c-1.36.08-2.69.19-4,.29,0,0-1.64.11-3.47.27s-4.06.34-4.79.38c-2.19.13-4.37.19-6.57.11a44.14,44.14,0,0,1-8.6-1.15c-.2-.65,1.06-1.2,3.09-1.7a4.29,4.29,0,0,1-.05-2c0-.07.08-.35.1-.41.63-2.13,2.64-2.86,4.06-1.57a4,4,0,0,1,.59-2.3,1,1,0,0,1,.11-.17l.12-.16c1.25-1.6,3.34-1.13,4.2.87l.2.45,1.09,2.54.39.9a3.08,3.08,0,0,1,1.29-1.69,2.1,2.1,0,0,1,1-.32,2.31,2.31,0,0,1,1.77.66l.32.31,1.84,1.72,1.79-.07,1.52-2.31.12-.19.44-.67a2.29,2.29,0,0,1,4.18.31l1.68-2.56.45-.67c1.17-1.79,3.38-1.57,4.26.5a1.67,1.67,0,0,0,.08.2c0,.06,0,.13.07.2a4.39,4.39,0,0,1,.16,1.93c.89-.86,2.19-.39,2.56,1l0,.13,0,.14c.26,1.42-.61,2.76-1.73,2.73A6,6,0,0,1,185.18,33.61Z"/>
          <path class="cls-1" d="M148.73,22.05a1.51,1.51,0,0,1,2-1.3l.21.08,3.29,1.22a.08.08,0,0,1,0,.15l-3.19,1.27-.35.14a1.45,1.45,0,0,1-2-1.36v-.1A.31.31,0,0,0,148.73,22.05Z"/>
          <path class="cls-1" d="M191.2,25.29c-.06.51-.73.82-1.35.64l-.14-.05-2.2-.66s0-.06,0-.08l2.13-.6.23-.06c.63-.18,1.33.19,1.33.72v.09Z"/>
          <path class="cls-1" d="M170.9,21.44a1,1,0,0,1-.22,1.47l-.11.09-1.76,1.48s-.08,0-.07,0l.67-2.11.08-.23c.19-.62.88-1,1.33-.72l0,0Z"/>
          <rect class="cls-2" x="134.66" width="67.33" height="49"/>
        </g>
        <g id="splash2">
          <g>
            <path class="cls-3" d="M111.77,29.6a11.75,11.75,0,0,1-.7,4c-2.55,0-5,.16-7.29.29,0,0-6.83.38-8.26.43-2,.08-4,.12-6,.08a11.44,11.44,0,0,1-1-4.79,11.66,11.66,0,0,1,.13-1.68,11.51,11.51,0,0,1,2.74-6c.15-.17.31-.34.47-.5a11.63,11.63,0,0,1,19.64,5.61A11.84,11.84,0,0,1,111.77,29.6Z"/>
            <circle class="cls-4" cx="104.69" cy="26.5" r="4.34"/>
          </g>
          <path class="cls-1" d="M131.88,26.83a2.38,2.38,0,0,1-3.65.76l-.26-.23-4.23-3.51a.12.12,0,0,1,.08-.21l5.35-.08h.59a2.29,2.29,0,0,1,2.23,3,.69.69,0,0,0-.05.13Z"/>
          <path class="cls-1" d="M76,23.91a2.36,2.36,0,0,1,3.37-1.58l.31.15,4.92,2.44a.12.12,0,0,1,0,.23l-5.2,1.31-.57.15a2.3,2.3,0,0,1-2.86-2.42s0-.09,0-.14Z"/>
          <path class="cls-1" d="M117.88,33.74c-2.39-.07-4.65-.07-6.81,0-2.55,0-5,.17-7.29.29,0,0-6.83.38-8.26.44-2,.07-4,.11-6,.08a64.55,64.55,0,0,1-9.2-.78c-.2-.43,1.06-.8,3.08-1.13a1.93,1.93,0,0,1-.05-1.3l.11-.28a2.89,2.89,0,0,1,4.06-1,2,2,0,0,1,.58-1.53l.12-.11a1.14,1.14,0,0,1,.11-.11,2.83,2.83,0,0,1,.28-.2,2.94,2.94,0,0,1,3.93.78l.19.3,1.49,2.29a2.91,2.91,0,0,1,4-.9l.33.2,1.83,1.15,1.79-.05,1.06-1.07.59-.59.44-.44a2.9,2.9,0,0,1,3.68-.28,2.23,2.23,0,0,1,.49.48l1.69-1.7.44-.45a2.82,2.82,0,0,1,.87-.58,2.79,2.79,0,0,1,3.39.92.57.57,0,0,1,.08.13.54.54,0,0,1,.07.13,1.93,1.93,0,0,1,.17,1.28,1.77,1.77,0,0,1,2.56.66l0,.09,0,.09a1.57,1.57,0,0,1-1.73,1.82A5,5,0,0,1,117.88,33.74Z"/>
          <path class="cls-1" d="M124.55,31.32a1.51,1.51,0,0,1-2.3-.58l-.09-.2-1.45-3.18a.08.08,0,0,1,.11-.1l3.09,1.44.33.15a1.46,1.46,0,0,1,.45,2.34.23.23,0,0,0-.07.07Z"/>
          <path class="cls-1" d="M88.11,18.57a1.5,1.5,0,0,1,2.33.42l.1.19,1.67,3.07c0,.06,0,.13-.09.11l-3.19-1.22L88.59,21a1.45,1.45,0,0,1-.61-2.3l.06-.07A.46.46,0,0,0,88.11,18.57Z"/>
          <path class="cls-1" d="M80.52,30.73a.81.81,0,0,1,.67-1.09l.12,0,1.89-.23a0,0,0,0,1,0,.07L82,30.83l-.14.15a.79.79,0,0,1-1.28-.16s0,0,0,0Z"/>
          <path class="cls-1" d="M119.41,23.91c-.06.51-.74.82-1.35.63l-.14,0-2.2-.66s0-.07,0-.08l2.13-.6.23-.07c.63-.17,1.32.19,1.33.72v.1Z"/>
          <rect class="cls-2" x="67.33" width="67.33" height="49"/>
        </g>
        <g id="splash1">
          <g>
            <circle class="cls-3" cx="32.23" cy="22.24" r="11.63"/>
            <circle class="cls-4" cx="36.78" cy="19.14" r="4.34"/>
          </g>
          <path class="cls-1" d="M54.22,20.47A2.37,2.37,0,0,1,53,24l-.33.11-5.21,1.74a.12.12,0,0,1-.15-.17L50,21.05l.3-.5a2.3,2.3,0,0,1,3.73-.32l.09.12A.83.83,0,0,0,54.22,20.47Z"/>
          <path class="cls-1" d="M13.46,21.26a2.36,2.36,0,0,1,3.67.58l.17.3L20,26.92a.12.12,0,0,1-.15.17l-5-1.82-.55-.2a2.28,2.28,0,0,1-1-3.59l.09-.11A1.14,1.14,0,0,1,13.46,21.26Z"/>
          <path class="cls-1" d="M48.35,33.74c-4.53-.16-8.54,0-12.32.26,0,0-6,.38-7.22.44a57.61,57.61,0,0,1-13.25-.7c-.18-.43.92-.8,2.69-1.13a2.2,2.2,0,0,1,0-1.3s.07-.23.09-.28a2.37,2.37,0,0,1,3.55-1,2.17,2.17,0,0,1,.51-1.53.52.52,0,0,1,.1-.11l.1-.11a2.36,2.36,0,0,1,3.67.58l.18.3,1.29,2.29a2.37,2.37,0,0,1,3.53-.9l.28.2,1.61,1.15,1.56-.05,1.44-1.66.38-.44a2.3,2.3,0,0,1,3.65.2l1.48-1.7.38-.45a2.28,2.28,0,0,1,3.72.34.54.54,0,0,1,.07.13l.06.13A2.2,2.2,0,0,1,46,29.64a1.45,1.45,0,0,1,2.23.66l0,.09,0,.09a1.5,1.5,0,0,1-1.51,1.82A4.52,4.52,0,0,1,48.35,33.74Z"/>
          <path class="cls-1" d="M53.78,27a1.49,1.49,0,0,1-1.5,1.82h-.23l-3.49-.07a.08.08,0,0,1-.05-.14l2.63-2.16.29-.24a1.46,1.46,0,0,1,2.3.61l0,.09A.29.29,0,0,1,53.78,27Z"/>
          <path class="cls-1" d="M26.54,21.13a1.51,1.51,0,0,1,1.77,1.57l0,.22-.18,3.49a.08.08,0,0,1-.14,0l-2.08-2.7-.22-.3a1.45,1.45,0,0,1,.69-2.27l.08,0Z"/>
          <path class="cls-1" d="M15.22,27.47a.81.81,0,0,1,1.28-.08l.08.09,1.27,1.42s0,.07,0,.07L16,28.72l-.2,0a.79.79,0,0,1-.61-1.14s0,0,0,0Z"/>
          <path class="cls-1" d="M44.85,21.26a.81.81,0,0,1,.08,1.28l-.09.08-1.41,1.27a0,0,0,0,1-.07,0L43.6,22l0-.2a.79.79,0,0,1,1.14-.61l0,0Z"/>
          <rect class="cls-2" width="67.33" height="49"/>
        </g>
      </g>
    </g>
  </g>
</svg>
